{"glyphs":{"0":{"ha":776,"x_min":51,"x_max":725,"o":"m 389 -14 q 246 8 308 -14 q 140 83 183 31 q 74 225 96 136 q 51 446 51 314 q 73 679 51 585 q 138 829 94 774 q 244 908 182 885 q 388 932 307 932 q 533 908 471 932 q 638 829 596 885 q 703 680 681 774 q 725 446 725 586 q 685 171 725 271 q 570 28 644 71 q 389 -14 496 -14 m 389 93 q 480 109 440 93 q 546 165 519 125 q 585 273 572 204 q 599 446 599 342 q 586 631 599 558 q 548 747 574 704 q 483 808 522 790 q 389 825 443 825 q 295 808 335 825 q 229 748 256 790 q 190 632 203 706 q 176 444 176 558 q 190 272 176 340 q 232 164 204 203 q 299 109 260 125 q 389 93 338 93 z "},"1":{"ha":776,"x_min":142,"x_max":547,"o":"m 425 0 l 425 782 l 194 631 l 142 722 l 435 917 l 547 917 l 547 0 l 425 0 z "},"2":{"ha":776,"x_min":94,"x_max":683,"o":"m 94 0 l 94 101 l 350 369 q 450 478 408 431 q 514 571 492 525 q 536 669 536 617 q 488 790 536 757 q 343 822 440 822 q 263 817 307 822 q 178 806 219 813 q 110 793 138 800 l 100 893 q 174 910 131 901 q 268 924 217 918 q 368 931 319 931 q 588 872 514 931 q 663 683 663 813 q 641 560 663 615 q 577 454 619 506 q 468 339 535 403 l 236 106 l 683 106 l 683 0 l 94 0 z "},"3":{"ha":776,"x_min":85,"x_max":688,"o":"m 383 -14 q 275 -8 332 -14 q 168 7 218 -1 q 85 24 118 15 l 94 122 q 173 110 126 117 q 272 98 219 103 q 371 93 325 93 q 515 135 468 93 q 561 260 561 176 q 538 354 561 319 q 473 406 514 389 q 382 424 432 422 l 196 424 l 196 526 l 381 526 q 452 545 415 526 q 515 599 489 564 q 540 685 540 635 q 499 792 540 760 q 360 825 457 825 q 267 820 315 825 q 177 809 219 815 q 107 796 135 803 l 97 893 q 170 910 126 901 q 265 926 214 919 q 365 932 315 932 q 542 906 476 932 q 636 828 607 881 q 665 692 665 775 q 649 603 665 640 q 610 542 633 567 q 566 504 588 518 q 532 483 544 490 q 614 443 579 467 q 668 378 649 419 q 688 264 688 336 q 656 108 688 169 q 556 16 624 46 q 383 -14 489 -14 z "},"4":{"ha":776,"x_min":54,"x_max":725,"o":"m 492 0 l 492 174 l 54 174 l 54 268 l 307 917 l 442 917 l 181 282 l 492 282 l 493 558 l 614 558 l 614 282 l 725 282 l 725 174 l 614 174 l 614 0 l 492 0 z "},"5":{"ha":776,"x_min":85,"x_max":701,"o":"m 392 -12 q 283 -6 340 -12 q 172 10 225 1 q 85 28 119 19 l 97 125 q 181 112 132 119 q 283 99 231 104 q 379 94 335 94 q 524 146 471 94 q 576 296 576 197 q 553 401 576 363 q 490 455 531 439 q 393 471 449 471 q 312 463 353 471 q 238 442 271 454 q 182 418 204 431 l 100 433 l 125 917 l 665 917 l 665 807 l 224 807 l 200 526 q 258 549 224 538 q 331 570 292 561 q 408 579 369 579 q 564 552 499 579 q 665 465 629 525 q 701 307 701 406 q 665 129 701 200 q 558 23 628 58 q 392 -12 489 -12 z "},"6":{"ha":776,"x_min":65,"x_max":719,"o":"m 397 -14 q 144 113 224 -14 q 65 461 65 239 q 91 677 65 588 q 164 822 117 767 q 278 904 211 878 q 426 931 344 931 q 517 926 469 931 q 609 916 565 922 q 682 904 653 910 l 671 808 q 603 815 644 811 q 516 821 561 818 q 428 824 471 824 q 252 746 313 824 q 190 524 192 668 q 227 535 203 528 q 283 553 251 543 q 348 569 314 563 q 413 575 382 575 q 642 506 564 575 q 719 289 719 436 q 681 124 719 192 q 572 21 643 56 q 397 -14 500 -14 m 397 92 q 545 143 493 92 q 597 289 597 194 q 545 425 597 381 q 403 469 493 469 q 326 461 367 469 q 249 442 285 453 q 189 419 213 431 q 210 252 190 326 q 276 135 231 178 q 397 92 322 92 z "},"7":{"ha":776,"x_min":106,"x_max":679,"o":"m 332 -14 l 217 19 l 554 769 l 554 807 l 106 807 l 106 917 l 679 917 l 679 764 l 332 -14 z "},"8":{"ha":776,"x_min":42,"x_max":733,"o":"m 386 -14 q 215 8 294 -14 q 89 85 136 31 q 42 233 42 139 q 61 349 42 304 q 116 423 81 393 q 197 479 151 453 q 92 563 126 515 q 57 694 57 610 q 97 826 57 774 q 212 906 138 879 q 386 932 286 932 q 560 906 485 932 q 677 827 635 881 q 719 693 719 774 q 685 560 719 604 q 571 478 650 515 q 656 427 619 456 q 713 356 693 399 q 733 249 733 314 q 686 90 733 147 q 560 10 639 33 q 386 -14 482 -14 m 386 94 q 499 109 450 94 q 576 160 549 124 q 604 261 604 197 q 584 342 604 311 q 530 391 564 372 q 453 422 496 410 l 313 422 q 208 365 246 403 q 171 254 171 326 q 199 159 171 194 q 276 109 226 124 q 386 94 325 94 m 313 525 l 453 525 q 555 582 519 547 q 590 676 590 617 q 537 790 590 757 q 388 824 483 824 q 240 790 293 824 q 186 678 186 757 q 218 583 186 618 q 313 525 250 547 z "},"9":{"ha":776,"x_min":56,"x_max":708,"o":"m 343 -14 q 254 -10 301 -14 q 163 1 207 -6 q 88 13 119 7 l 100 110 q 169 103 128 107 q 256 96 210 99 q 343 93 301 93 q 522 167 463 93 q 583 394 582 242 q 510 371 550 383 q 429 351 469 358 q 356 343 389 343 q 133 412 210 343 q 56 626 56 481 q 94 789 56 721 q 206 894 133 857 q 375 931 278 931 q 565 873 492 931 q 674 709 639 815 q 708 456 708 603 q 683 232 708 322 q 612 88 658 142 q 497 10 565 33 q 343 -14 429 -14 m 367 450 q 440 458 400 450 q 519 478 481 467 q 585 499 558 489 q 564 667 585 594 q 497 782 543 740 q 375 824 451 824 q 231 770 283 824 q 178 626 178 717 q 226 492 178 535 q 367 450 275 450 z "},"A":{"ha":831,"x_min":31,"x_max":801,"o":"m 31 0 l 289 958 l 543 958 l 801 0 l 679 0 l 613 236 l 218 236 l 151 0 l 31 0 m 242 342 l 589 342 l 450 856 l 381 856 l 242 342 z "},"Á":{"ha":831,"x_min":31,"x_max":801,"o":"m 31 0 l 289 958 l 543 958 l 801 0 l 679 0 l 613 236 l 218 236 l 151 0 l 31 0 m 242 342 l 589 342 l 450 856 l 381 856 l 242 342 m 300 1074 l 257 1147 l 547 1289 l 599 1197 l 300 1074 z "},"Ă":{"ha":831,"x_min":31,"x_max":801,"o":"m 31 0 l 289 958 l 543 958 l 801 0 l 679 0 l 613 236 l 218 236 l 151 0 l 31 0 m 242 342 l 589 342 l 450 856 l 381 856 l 242 342 m 414 1085 q 299 1109 347 1085 q 224 1175 251 1133 q 193 1271 196 1217 l 297 1272 q 333 1198 300 1225 q 414 1171 365 1171 q 496 1198 463 1171 q 531 1272 529 1225 l 635 1271 q 604 1175 632 1217 q 528 1109 576 1133 q 414 1085 481 1085 z "},"Â":{"ha":831,"x_min":31,"x_max":801,"o":"m 31 0 l 289 958 l 543 958 l 801 0 l 679 0 l 613 236 l 218 236 l 151 0 l 31 0 m 242 342 l 589 342 l 450 856 l 381 856 l 242 342 m 179 1092 l 364 1279 l 464 1279 l 649 1092 l 522 1092 l 415 1200 l 308 1092 l 179 1092 z "},"Ä":{"ha":831,"x_min":31,"x_max":801,"o":"m 31 0 l 289 958 l 543 958 l 801 0 l 679 0 l 613 236 l 218 236 l 151 0 l 31 0 m 242 342 l 589 342 l 450 856 l 381 856 l 242 342 m 501 1113 l 501 1244 l 611 1244 l 611 1113 l 501 1113 m 218 1113 l 218 1244 l 328 1244 l 328 1113 l 218 1113 z "},"À":{"ha":831,"x_min":31,"x_max":801,"o":"m 31 0 l 289 958 l 543 958 l 801 0 l 679 0 l 613 236 l 218 236 l 151 0 l 31 0 m 242 342 l 589 342 l 450 856 l 381 856 l 242 342 m 522 1074 l 224 1197 l 275 1289 l 564 1147 l 522 1074 z "},"Ā":{"ha":831,"x_min":31,"x_max":801,"o":"m 31 0 l 289 958 l 543 958 l 801 0 l 679 0 l 613 236 l 218 236 l 151 0 l 31 0 m 242 342 l 589 342 l 450 856 l 381 856 l 242 342 m 196 1118 l 196 1208 l 632 1208 l 632 1118 l 196 1118 z "},"Ą":{"ha":831,"x_min":31,"x_max":828,"o":"m 31 0 l 289 958 l 543 958 l 801 0 l 679 0 l 613 236 l 218 236 l 151 0 l 31 0 m 242 342 l 589 342 l 450 856 l 381 856 l 242 342 m 714 -289 q 639 -272 669 -289 q 593 -227 608 -254 q 578 -169 578 -200 q 596 -101 578 -135 q 641 -38 614 -68 q 694 13 668 -8 l 789 1 q 738 -51 761 -25 q 703 -102 715 -78 q 690 -147 690 -126 q 705 -183 690 -168 q 746 -197 719 -197 q 778 -194 758 -197 q 813 -189 799 -190 l 826 -275 q 769 -284 800 -279 q 714 -289 738 -289 z "},"Å":{"ha":831,"x_min":31,"x_max":801,"o":"m 31 0 l 289 958 l 543 958 l 801 0 l 679 0 l 613 236 l 218 236 l 151 0 l 31 0 m 242 342 l 589 342 l 450 856 l 381 856 l 242 342 m 415 883 q 295 922 343 883 q 247 1029 247 960 q 295 1138 247 1100 q 415 1176 343 1176 q 534 1138 486 1176 q 582 1029 582 1100 q 534 922 582 960 q 415 883 486 883 m 415 958 q 476 977 454 958 q 499 1029 499 996 q 476 1082 499 1064 q 415 1100 454 1100 q 354 1082 376 1100 q 332 1029 332 1064 q 354 977 332 996 q 415 958 376 958 z "},"Ǻ":{"ha":831,"x_min":31,"x_max":801,"o":"m 31 0 l 289 958 l 543 958 l 801 0 l 679 0 l 613 236 l 218 236 l 151 0 l 31 0 m 242 342 l 589 342 l 450 856 l 381 856 l 242 342 m 415 886 q 295 924 343 886 q 247 1032 247 963 q 295 1141 247 1103 q 415 1179 343 1179 q 534 1141 486 1179 q 582 1032 582 1103 q 534 924 582 963 q 415 886 486 886 m 415 961 q 476 980 454 961 q 499 1032 499 999 q 476 1085 499 1067 q 415 1103 454 1103 q 354 1085 376 1103 q 332 1032 332 1067 q 354 980 332 999 q 415 961 376 961 m 279 1207 l 236 1281 l 526 1422 l 578 1331 l 279 1207 z "},"Ã":{"ha":831,"x_min":31,"x_max":801,"o":"m 31 0 l 289 958 l 543 958 l 801 0 l 679 0 l 613 236 l 218 236 l 151 0 l 31 0 m 242 342 l 589 342 l 450 856 l 381 856 l 242 342 m 526 1106 q 469 1117 501 1106 q 404 1143 438 1128 q 343 1169 371 1158 q 300 1179 315 1179 q 251 1157 282 1179 q 199 1114 221 1135 l 174 1199 q 232 1252 196 1225 q 299 1279 268 1279 q 358 1268 326 1279 q 422 1243 390 1257 q 481 1218 454 1229 q 525 1207 508 1207 q 569 1227 540 1207 q 621 1268 599 1247 l 647 1183 q 593 1132 628 1158 q 526 1106 558 1106 z "},"Æ":{"ha":1217,"x_min":25,"x_max":1154,"o":"m 25 0 l 328 965 l 1154 965 l 1154 850 l 683 850 l 683 550 l 1071 550 l 1071 436 l 683 436 l 683 114 l 1154 114 l 1154 0 l 563 0 l 563 232 l 226 232 l 150 0 l 25 0 m 257 346 l 563 346 l 564 850 l 415 850 l 257 346 z "},"Ǽ":{"ha":1217,"x_min":25,"x_max":1154,"o":"m 25 0 l 328 965 l 1154 965 l 1154 850 l 683 850 l 683 550 l 1071 550 l 1071 436 l 683 436 l 683 114 l 1154 114 l 1154 0 l 563 0 l 563 232 l 226 232 l 150 0 l 25 0 m 257 346 l 563 346 l 564 850 l 415 850 l 257 346 m 610 1074 l 567 1147 l 857 1289 l 908 1197 l 610 1074 z "},"B":{"ha":854,"x_min":113,"x_max":785,"o":"m 113 0 l 113 958 l 467 958 q 625 933 561 958 q 722 855 689 908 q 756 714 756 801 q 741 612 756 654 q 701 542 726 569 q 636 493 675 514 q 711 453 678 479 q 765 383 744 426 q 785 269 785 339 q 763 142 785 194 q 701 59 742 90 q 606 14 661 28 q 482 0 551 0 l 113 0 m 235 103 l 476 103 q 575 118 533 103 q 639 170 617 133 q 661 275 661 207 q 642 359 661 326 q 594 408 624 392 q 532 429 564 424 q 472 435 500 435 l 235 435 l 235 103 m 235 538 l 471 538 q 595 578 557 538 q 633 703 633 619 q 591 819 633 782 q 461 856 549 856 l 235 856 l 235 538 z "},"C":{"ha":754,"x_min":78,"x_max":700,"o":"m 433 -14 q 255 17 324 -14 q 147 111 186 49 q 92 265 107 174 q 78 478 78 357 q 92 693 78 600 q 147 849 107 786 q 256 942 186 911 q 433 974 325 974 q 533 969 483 974 q 626 956 582 964 q 700 942 669 949 l 696 840 q 622 851 665 846 q 532 860 578 857 q 449 864 486 864 q 323 842 371 864 q 249 772 275 819 q 214 651 224 724 q 204 478 204 578 q 214 306 204 379 q 249 187 224 233 q 322 117 274 140 q 450 94 371 94 q 578 102 508 94 q 696 118 647 110 l 700 15 q 622 1 667 8 q 528 -10 578 -6 q 433 -14 479 -14 z "},"Ć":{"ha":754,"x_min":78,"x_max":700,"o":"m 433 -14 q 255 17 324 -14 q 147 111 186 49 q 92 265 107 174 q 78 478 78 357 q 92 693 78 600 q 147 849 107 786 q 256 942 186 911 q 433 974 325 974 q 533 969 483 974 q 626 956 582 964 q 700 942 669 949 l 696 840 q 622 851 665 846 q 532 860 578 857 q 449 864 486 864 q 323 842 371 864 q 249 772 275 819 q 214 651 224 724 q 204 478 204 578 q 214 306 204 379 q 249 187 224 233 q 322 117 274 140 q 450 94 371 94 q 578 102 508 94 q 696 118 647 110 l 700 15 q 622 1 667 8 q 528 -10 578 -6 q 433 -14 479 -14 m 293 1074 l 250 1147 l 540 1289 l 592 1197 l 293 1074 z "},"Č":{"ha":754,"x_min":78,"x_max":700,"o":"m 433 -14 q 255 17 324 -14 q 147 111 186 49 q 92 265 107 174 q 78 478 78 357 q 92 693 78 600 q 147 849 107 786 q 256 942 186 911 q 433 974 325 974 q 533 969 483 974 q 626 956 582 964 q 700 942 669 949 l 696 840 q 622 851 665 846 q 532 860 578 857 q 449 864 486 864 q 323 842 371 864 q 249 772 275 819 q 214 651 224 724 q 204 478 204 578 q 214 306 204 379 q 249 187 224 233 q 322 117 274 140 q 450 94 371 94 q 578 102 508 94 q 696 118 647 110 l 700 15 q 622 1 667 8 q 528 -10 578 -6 q 433 -14 479 -14 m 369 1092 l 186 1279 l 313 1279 l 421 1172 l 526 1279 l 653 1279 l 469 1092 l 369 1092 z "},"Ç":{"ha":754,"x_min":78,"x_max":700,"o":"m 433 -14 q 255 17 324 -14 q 147 111 186 49 q 92 265 107 174 q 78 478 78 357 q 92 693 78 600 q 147 849 107 786 q 256 942 186 911 q 433 974 325 974 q 533 969 483 974 q 626 956 582 964 q 700 942 669 949 l 696 840 q 622 851 665 846 q 532 860 578 857 q 449 864 486 864 q 323 842 371 864 q 249 772 275 819 q 214 651 224 724 q 204 478 204 578 q 214 306 204 379 q 249 187 224 233 q 322 117 274 140 q 450 94 371 94 q 578 102 508 94 q 696 118 647 110 l 700 15 q 622 1 667 8 q 528 -10 578 -6 q 433 -14 479 -14 m 472 -303 q 403 -300 438 -303 q 349 -292 368 -297 l 353 -222 q 394 -224 364 -224 q 442 -225 425 -225 q 487 -213 471 -225 q 503 -175 503 -201 q 487 -139 503 -149 q 442 -129 471 -129 l 388 -129 l 388 4 l 447 4 l 447 -64 q 566 -86 526 -65 q 606 -175 606 -107 q 569 -272 606 -242 q 472 -303 532 -303 z "},"Ĉ":{"ha":754,"x_min":78,"x_max":700,"o":"m 433 -14 q 255 17 324 -14 q 147 111 186 49 q 92 265 107 174 q 78 478 78 357 q 92 693 78 600 q 147 849 107 786 q 256 942 186 911 q 433 974 325 974 q 533 969 483 974 q 626 956 582 964 q 700 942 669 949 l 696 840 q 622 851 665 846 q 532 860 578 857 q 449 864 486 864 q 323 842 371 864 q 249 772 275 819 q 214 651 224 724 q 204 478 204 578 q 214 306 204 379 q 249 187 224 233 q 322 117 274 140 q 450 94 371 94 q 578 102 508 94 q 696 118 647 110 l 700 15 q 622 1 667 8 q 528 -10 578 -6 q 433 -14 479 -14 m 194 1092 l 379 1279 l 479 1279 l 664 1092 l 538 1092 l 431 1200 l 324 1092 l 194 1092 z "},"Ċ":{"ha":754,"x_min":78,"x_max":700,"o":"m 433 -14 q 255 17 324 -14 q 147 111 186 49 q 92 265 107 174 q 78 478 78 357 q 92 693 78 600 q 147 849 107 786 q 256 942 186 911 q 433 974 325 974 q 533 969 483 974 q 626 956 582 964 q 700 942 669 949 l 696 840 q 622 851 665 846 q 532 860 578 857 q 449 864 486 864 q 323 842 371 864 q 249 772 275 819 q 214 651 224 724 q 204 478 204 578 q 214 306 204 379 q 249 187 224 233 q 322 117 274 140 q 450 94 371 94 q 578 102 508 94 q 696 118 647 110 l 700 15 q 622 1 667 8 q 528 -10 578 -6 q 433 -14 479 -14 m 346 1099 l 346 1226 l 463 1226 l 463 1099 l 346 1099 z "},"D":{"ha":896,"x_min":113,"x_max":822,"o":"m 113 0 l 113 958 l 458 958 q 635 924 565 958 q 747 829 706 890 q 805 683 788 768 q 822 493 822 597 q 806 299 822 389 q 748 142 789 210 q 637 38 707 75 q 460 0 567 0 l 113 0 m 235 107 l 458 107 q 578 138 532 107 q 649 224 624 169 q 685 347 675 278 q 696 493 696 415 q 685 635 696 569 q 649 749 675 700 q 577 824 624 797 q 458 851 531 851 l 235 851 l 235 107 z "},"Ð":{"ha":900,"x_min":26,"x_max":826,"o":"m 26 426 l 26 538 l 449 538 l 449 426 l 26 426 m 117 0 l 117 958 l 463 958 q 640 924 569 958 q 751 829 710 890 q 809 683 792 768 q 826 493 826 597 q 810 299 826 389 q 752 142 793 210 q 641 38 711 75 q 464 0 571 0 l 117 0 m 239 107 l 463 107 q 582 138 536 107 q 653 224 628 169 q 690 347 679 278 q 700 493 700 415 q 690 635 700 569 q 653 749 679 700 q 582 824 628 797 q 463 851 536 851 l 239 851 l 239 107 z "},"Ď":{"ha":896,"x_min":113,"x_max":822,"o":"m 113 0 l 113 958 l 458 958 q 635 924 565 958 q 747 829 706 890 q 805 683 788 768 q 822 493 822 597 q 806 299 822 389 q 748 142 789 210 q 637 38 707 75 q 460 0 567 0 l 113 0 m 235 107 l 458 107 q 578 138 532 107 q 649 224 624 169 q 685 347 675 278 q 696 493 696 415 q 685 635 696 569 q 649 749 675 700 q 577 824 624 797 q 458 851 531 851 l 235 851 l 235 107 m 360 1092 l 176 1279 l 303 1279 l 411 1172 l 517 1279 l 643 1279 l 460 1092 l 360 1092 z "},"Đ":{"ha":900,"x_min":26,"x_max":826,"o":"m 26 426 l 26 538 l 449 538 l 449 426 l 26 426 m 117 0 l 117 958 l 463 958 q 640 924 569 958 q 751 829 710 890 q 809 683 792 768 q 826 493 826 597 q 810 299 826 389 q 752 142 793 210 q 641 38 711 75 q 464 0 571 0 l 117 0 m 239 107 l 463 107 q 582 138 536 107 q 653 224 628 169 q 690 347 679 278 q 700 493 700 415 q 690 635 700 569 q 653 749 679 700 q 582 824 628 797 q 463 851 536 851 l 239 851 l 239 107 z "},"E":{"ha":768,"x_min":113,"x_max":706,"o":"m 113 0 l 113 958 l 706 958 l 706 851 l 235 851 l 235 539 l 622 539 l 622 433 l 235 433 l 235 107 l 706 107 l 706 0 l 113 0 z "},"É":{"ha":768,"x_min":113,"x_max":706,"o":"m 113 0 l 113 958 l 706 958 l 706 851 l 235 851 l 235 539 l 622 539 l 622 433 l 235 433 l 235 107 l 706 107 l 706 0 l 113 0 m 285 1074 l 242 1147 l 532 1289 l 583 1197 l 285 1074 z "},"Ĕ":{"ha":768,"x_min":113,"x_max":706,"o":"m 113 0 l 113 958 l 706 958 l 706 851 l 235 851 l 235 539 l 622 539 l 622 433 l 235 433 l 235 107 l 706 107 l 706 0 l 113 0 m 421 1085 q 306 1109 354 1085 q 231 1175 258 1133 q 200 1271 203 1217 l 304 1272 q 340 1198 307 1225 q 421 1171 372 1171 q 503 1198 469 1171 q 538 1272 536 1225 l 642 1271 q 611 1175 639 1217 q 535 1109 583 1133 q 421 1085 488 1085 z "},"Ě":{"ha":768,"x_min":113,"x_max":706,"o":"m 113 0 l 113 958 l 706 958 l 706 851 l 235 851 l 235 539 l 622 539 l 622 433 l 235 433 l 235 107 l 706 107 l 706 0 l 113 0 m 350 1092 l 167 1279 l 293 1279 l 401 1172 l 507 1279 l 633 1279 l 450 1092 l 350 1092 z "},"Ê":{"ha":768,"x_min":113,"x_max":706,"o":"m 113 0 l 113 958 l 706 958 l 706 851 l 235 851 l 235 539 l 622 539 l 622 433 l 235 433 l 235 107 l 706 107 l 706 0 l 113 0 m 172 1092 l 357 1279 l 457 1279 l 642 1092 l 515 1092 l 408 1200 l 301 1092 l 172 1092 z "},"Ë":{"ha":768,"x_min":113,"x_max":706,"o":"m 113 0 l 113 958 l 706 958 l 706 851 l 235 851 l 235 539 l 622 539 l 622 433 l 235 433 l 235 107 l 706 107 l 706 0 l 113 0 m 494 1113 l 494 1244 l 604 1244 l 604 1113 l 494 1113 m 211 1113 l 211 1244 l 321 1244 l 321 1113 l 211 1113 z "},"Ė":{"ha":768,"x_min":113,"x_max":706,"o":"m 113 0 l 113 958 l 706 958 l 706 851 l 235 851 l 235 539 l 622 539 l 622 433 l 235 433 l 235 107 l 706 107 l 706 0 l 113 0 m 353 1103 l 353 1231 l 469 1231 l 469 1103 l 353 1103 z "},"È":{"ha":768,"x_min":113,"x_max":706,"o":"m 113 0 l 113 958 l 706 958 l 706 851 l 235 851 l 235 539 l 622 539 l 622 433 l 235 433 l 235 107 l 706 107 l 706 0 l 113 0 m 528 1074 l 229 1197 l 281 1289 l 569 1147 l 528 1074 z "},"Ē":{"ha":768,"x_min":113,"x_max":706,"o":"m 113 0 l 113 958 l 706 958 l 706 851 l 235 851 l 235 539 l 622 539 l 622 433 l 235 433 l 235 107 l 706 107 l 706 0 l 113 0 m 189 1118 l 189 1208 l 625 1208 l 625 1118 l 189 1118 z "},"Ę":{"ha":768,"x_min":113,"x_max":706,"o":"m 113 0 l 113 958 l 706 958 l 706 851 l 235 851 l 235 539 l 622 539 l 622 433 l 235 433 l 235 107 l 706 107 l 706 0 l 113 0 m 592 -289 q 517 -272 547 -289 q 471 -227 486 -254 q 456 -169 456 -200 q 474 -101 456 -135 q 519 -38 492 -68 q 572 13 546 -8 l 667 1 q 616 -51 639 -25 q 581 -102 593 -78 q 568 -147 568 -126 q 583 -183 568 -168 q 624 -197 597 -197 q 656 -194 636 -197 q 690 -189 676 -190 l 704 -275 q 647 -284 678 -279 q 592 -289 615 -289 z "},"F":{"ha":731,"x_min":113,"x_max":694,"o":"m 113 0 l 113 958 l 694 958 l 694 851 l 235 851 l 235 493 l 621 493 l 621 386 l 235 386 l 235 0 l 113 0 z "},"G":{"ha":856,"x_min":75,"x_max":767,"o":"m 451 -14 q 267 19 340 -14 q 152 114 194 51 q 92 268 110 176 q 75 478 75 360 q 92 691 75 599 q 153 847 110 783 q 268 942 196 910 q 449 974 340 974 q 563 968 504 974 q 676 953 622 963 q 767 936 731 944 l 763 836 q 673 849 726 843 q 565 860 619 856 q 464 864 510 864 q 332 841 383 864 q 252 770 281 818 q 213 650 224 722 q 201 478 201 578 q 222 262 201 347 q 298 135 242 176 q 461 93 354 93 q 526 96 492 93 q 593 103 560 99 q 647 111 626 107 l 647 389 l 497 389 l 497 494 l 767 494 l 767 19 q 703 10 743 15 q 619 -1 664 4 q 530 -10 574 -7 q 451 -14 486 -14 z "},"Ğ":{"ha":856,"x_min":75,"x_max":767,"o":"m 451 -14 q 267 19 340 -14 q 152 114 194 51 q 92 268 110 176 q 75 478 75 360 q 92 691 75 599 q 153 847 110 783 q 268 942 196 910 q 449 974 340 974 q 563 968 504 974 q 676 953 622 963 q 767 936 731 944 l 763 836 q 673 849 726 843 q 565 860 619 856 q 464 864 510 864 q 332 841 383 864 q 252 770 281 818 q 213 650 224 722 q 201 478 201 578 q 222 262 201 347 q 298 135 242 176 q 461 93 354 93 q 526 96 492 93 q 593 103 560 99 q 647 111 626 107 l 647 389 l 497 389 l 497 494 l 767 494 l 767 19 q 703 10 743 15 q 619 -1 664 4 q 530 -10 574 -7 q 451 -14 486 -14 m 456 1085 q 341 1109 389 1085 q 265 1175 293 1133 q 235 1271 238 1217 l 339 1272 q 374 1198 342 1225 q 456 1171 407 1171 q 538 1198 504 1171 q 572 1272 571 1225 l 676 1271 q 646 1175 674 1217 q 570 1109 618 1133 q 456 1085 522 1085 z "},"Ĝ":{"ha":856,"x_min":75,"x_max":767,"o":"m 451 -14 q 267 19 340 -14 q 152 114 194 51 q 92 268 110 176 q 75 478 75 360 q 92 691 75 599 q 153 847 110 783 q 268 942 196 910 q 449 974 340 974 q 563 968 504 974 q 676 953 622 963 q 767 936 731 944 l 763 836 q 673 849 726 843 q 565 860 619 856 q 464 864 510 864 q 332 841 383 864 q 252 770 281 818 q 213 650 224 722 q 201 478 201 578 q 222 262 201 347 q 298 135 242 176 q 461 93 354 93 q 526 96 492 93 q 593 103 560 99 q 647 111 626 107 l 647 389 l 497 389 l 497 494 l 767 494 l 767 19 q 703 10 743 15 q 619 -1 664 4 q 530 -10 574 -7 q 451 -14 486 -14 m 213 1088 l 397 1275 l 497 1275 l 682 1088 l 556 1088 l 449 1196 l 342 1088 l 213 1088 z "},"Ģ":{"ha":856,"x_min":75,"x_max":767,"o":"m 451 -14 q 267 19 340 -14 q 152 114 194 51 q 92 268 110 176 q 75 478 75 360 q 92 691 75 599 q 153 847 110 783 q 268 942 196 910 q 449 974 340 974 q 563 968 504 974 q 676 953 622 963 q 767 936 731 944 l 763 836 q 673 849 726 843 q 565 860 619 856 q 464 864 510 864 q 332 841 383 864 q 252 770 281 818 q 213 650 224 722 q 201 478 201 578 q 222 262 201 347 q 298 135 242 176 q 461 93 354 93 q 526 96 492 93 q 593 103 560 99 q 647 111 626 107 l 647 389 l 497 389 l 497 494 l 767 494 l 767 19 q 703 10 743 15 q 619 -1 664 4 q 530 -10 574 -7 q 451 -14 486 -14 m 356 -404 l 411 -110 l 529 -110 l 458 -404 l 356 -404 z "},"Ġ":{"ha":856,"x_min":75,"x_max":767,"o":"m 376 1104 l 376 1233 l 492 1233 l 492 1104 l 376 1104 m 451 -14 q 267 19 340 -14 q 152 114 194 51 q 92 268 110 176 q 75 478 75 360 q 92 691 75 599 q 153 847 110 783 q 268 942 196 910 q 449 974 340 974 q 563 968 504 974 q 676 953 622 963 q 767 936 731 944 l 763 836 q 673 849 726 843 q 565 860 619 856 q 464 864 510 864 q 332 841 383 864 q 252 770 281 818 q 213 650 224 722 q 201 478 201 578 q 222 262 201 347 q 298 135 242 176 q 461 93 354 93 q 526 96 492 93 q 593 103 560 99 q 647 111 626 107 l 647 389 l 497 389 l 497 494 l 767 494 l 767 19 q 703 10 743 15 q 619 -1 664 4 q 530 -10 574 -7 q 451 -14 486 -14 z "},"H":{"ha":936,"x_min":113,"x_max":824,"o":"m 113 0 l 113 958 l 235 958 l 235 535 l 701 535 l 701 958 l 824 958 l 824 0 l 701 0 l 701 428 l 235 428 l 235 0 l 113 0 z "},"Ħ":{"ha":951,"x_min":19,"x_max":938,"o":"m 19 700 l 19 801 l 938 801 l 938 700 l 19 700 m 118 0 l 118 958 l 240 958 l 240 535 l 707 535 l 707 958 l 829 958 l 829 0 l 707 0 l 707 428 l 240 428 l 240 0 l 118 0 z "},"Ĥ":{"ha":936,"x_min":113,"x_max":824,"o":"m 113 0 l 113 958 l 235 958 l 235 535 l 701 535 l 701 958 l 824 958 l 824 0 l 701 0 l 701 428 l 235 428 l 235 0 l 113 0 m 233 1092 l 418 1279 l 518 1279 l 703 1092 l 576 1092 l 469 1200 l 363 1092 l 233 1092 z "},"I":{"ha":347,"x_min":113,"x_max":235,"o":"m 113 0 l 113 958 l 235 958 l 235 0 l 113 0 z "},"Í":{"ha":347,"x_min":21,"x_max":363,"o":"m 113 0 l 113 958 l 235 958 l 235 0 l 113 0 m 63 1074 l 19 1147 l 310 1289 l 361 1197 l 63 1074 z "},"Ĭ":{"ha":347,"x_min":-35,"x_max":406,"o":"m 113 0 l 113 958 l 235 958 l 235 0 l 113 0 m 185 1085 q 70 1109 118 1085 q -6 1175 22 1133 q -36 1271 -33 1217 l 68 1272 q 103 1198 71 1225 q 185 1171 136 1171 q 267 1198 233 1171 q 301 1272 300 1225 l 406 1271 q 375 1175 403 1217 q 299 1109 347 1133 q 185 1085 251 1085 z "},"Î":{"ha":347,"x_min":-67,"x_max":403,"o":"m 113 0 l 113 958 l 235 958 l 235 0 l 113 0 m -67 1092 l 118 1279 l 218 1279 l 403 1092 l 276 1092 l 169 1200 l 63 1092 l -67 1092 z "},"Ï":{"ha":347,"x_min":-24,"x_max":371,"o":"m 113 0 l 113 958 l 235 958 l 235 0 l 113 0 m 260 1113 l 260 1244 l 369 1244 l 369 1113 l 260 1113 m -24 1113 l -24 1244 l 86 1244 l 86 1113 l -24 1113 z "},"İ":{"ha":347,"x_min":113,"x_max":235,"o":"m 117 1103 l 117 1231 l 232 1231 l 232 1103 l 117 1103 m 113 0 l 113 958 l 235 958 l 235 0 l 113 0 z "},"Ì":{"ha":347,"x_min":-29,"x_max":313,"o":"m 113 0 l 113 958 l 235 958 l 235 0 l 113 0 m 271 1074 l -28 1197 l 24 1289 l 313 1147 l 271 1074 z "},"Ī":{"ha":347,"x_min":-40,"x_max":394,"o":"m 113 0 l 113 958 l 235 958 l 235 0 l 113 0 m -42 1118 l -42 1208 l 394 1208 l 394 1118 l -42 1118 z "},"Į":{"ha":347,"x_min":18,"x_max":267,"o":"m 154 -289 q 79 -272 110 -289 q 33 -227 49 -254 q 18 -169 18 -200 q 36 -101 18 -135 q 81 -38 54 -68 q 135 13 108 -8 l 229 1 q 178 -51 201 -25 q 143 -102 156 -78 q 131 -147 131 -126 q 145 -183 131 -168 q 186 -197 160 -197 q 219 -194 199 -197 q 253 -189 239 -190 l 267 -275 q 209 -284 240 -279 q 154 -289 178 -289 m 113 0 l 113 958 l 235 958 l 235 0 l 113 0 z "},"Ĩ":{"ha":347,"x_min":-69,"x_max":404,"o":"m 113 0 l 113 958 l 235 958 l 235 0 l 113 0 m 283 1106 q 226 1117 258 1106 q 161 1143 194 1128 q 100 1169 128 1158 q 57 1179 72 1179 q 8 1157 39 1179 q -44 1114 -22 1135 l -69 1199 q -11 1252 -47 1225 q 56 1279 25 1279 q 115 1268 83 1279 q 179 1243 147 1257 q 238 1218 211 1229 q 282 1207 265 1207 q 326 1227 297 1207 q 378 1268 356 1247 l 404 1183 q 350 1132 385 1158 q 283 1106 315 1106 z "},"J":{"ha":404,"x_min":25,"x_max":296,"o":"m 25 -96 l 25 11 q 99 16 69 11 q 145 35 129 21 q 167 81 161 50 q 174 164 174 113 l 174 958 l 296 958 l 296 139 q 281 14 296 61 q 231 -57 265 -33 q 147 -88 197 -81 q 25 -96 96 -96 z "},"Ĵ":{"ha":404,"x_min":0,"x_max":469,"o":"m 25 -96 l 25 11 q 99 16 69 11 q 145 35 129 21 q 167 81 161 50 q 174 164 174 113 l 174 958 l 296 958 l 296 139 q 281 14 296 61 q 231 -57 265 -33 q 147 -88 197 -81 q 25 -96 96 -96 m 0 1088 l 185 1275 l 285 1275 l 469 1088 l 343 1088 l 236 1196 l 129 1088 l 0 1088 z "},"K":{"ha":794,"x_min":113,"x_max":774,"o":"m 113 0 l 113 958 l 235 958 l 235 519 l 386 525 l 621 958 l 758 958 l 494 478 l 774 0 l 632 0 l 388 417 l 235 411 l 235 0 l 113 0 z "},"Ķ":{"ha":793,"x_min":113,"x_max":774,"o":"m 304 -396 l 360 -106 l 476 -106 l 406 -396 l 304 -396 m 113 0 l 113 958 l 235 958 l 235 519 l 386 525 l 621 958 l 758 958 l 494 478 l 774 0 l 632 0 l 388 417 l 235 411 l 235 0 l 113 0 z "},"L":{"ha":665,"x_min":113,"x_max":649,"o":"m 113 0 l 113 958 l 235 958 l 235 108 l 649 108 l 649 0 l 113 0 z "},"Ĺ":{"ha":667,"x_min":113,"x_max":649,"o":"m 221 1074 l 178 1147 l 468 1289 l 519 1197 l 221 1074 m 113 0 l 113 958 l 235 958 l 235 108 l 649 108 l 649 0 l 113 0 z "},"Ľ":{"ha":689,"x_min":113,"x_max":649,"o":"m 504 640 l 506 967 l 618 967 l 614 640 l 504 640 m 113 0 l 113 958 l 235 958 l 235 108 l 649 108 l 649 0 l 113 0 z "},"Ļ":{"ha":665,"x_min":113,"x_max":649,"o":"m 271 -396 l 326 -106 l 442 -106 l 372 -396 l 271 -396 m 113 0 l 113 958 l 235 958 l 235 108 l 649 108 l 649 0 l 113 0 z "},"Ł":{"ha":672,"x_min":-7,"x_max":656,"o":"m 44 314 l -7 399 l 432 700 l 483 617 l 44 314 m 119 0 l 119 958 l 242 958 l 242 108 l 656 108 l 656 0 l 119 0 z "},"M":{"ha":1169,"x_min":113,"x_max":1057,"o":"m 113 0 l 113 958 l 329 958 l 583 176 l 840 958 l 1057 958 l 1057 0 l 935 0 l 935 822 l 914 822 l 650 33 l 519 33 l 256 822 l 235 822 l 235 0 l 113 0 z "},"N":{"ha":942,"x_min":113,"x_max":828,"o":"m 113 0 l 113 958 l 325 958 l 679 124 l 706 124 l 706 958 l 828 958 l 828 0 l 619 0 l 261 836 l 235 836 l 235 0 l 113 0 z "},"Ń":{"ha":942,"x_min":113,"x_max":828,"o":"m 113 0 l 113 958 l 325 958 l 679 124 l 706 124 l 706 958 l 828 958 l 828 0 l 619 0 l 261 836 l 235 836 l 235 0 l 113 0 m 347 1074 l 304 1147 l 594 1289 l 646 1197 l 347 1074 z "},"Ň":{"ha":942,"x_min":113,"x_max":828,"o":"m 113 0 l 113 958 l 325 958 l 679 124 l 706 124 l 706 958 l 828 958 l 828 0 l 619 0 l 261 836 l 235 836 l 235 0 l 113 0 m 422 1088 l 239 1275 l 365 1275 l 474 1168 l 579 1275 l 706 1275 l 522 1088 l 422 1088 z "},"Ņ":{"ha":942,"x_min":113,"x_max":828,"o":"m 388 -396 l 443 -106 l 560 -106 l 490 -396 l 388 -396 m 113 0 l 113 958 l 325 958 l 679 124 l 706 124 l 706 958 l 828 958 l 828 0 l 619 0 l 261 836 l 235 836 l 235 0 l 113 0 z "},"Ŋ":{"ha":943,"x_min":113,"x_max":828,"o":"m 560 -264 l 554 -158 q 629 -153 600 -157 q 676 -135 658 -149 q 700 -90 693 -121 q 707 -8 707 -60 l 707 53 l 828 53 l 828 -22 q 813 -149 828 -101 q 765 -221 797 -196 q 681 -254 732 -246 q 560 -264 631 -262 m 113 0 l 113 958 l 325 958 l 679 124 l 706 124 l 706 958 l 828 958 l 828 0 l 619 0 l 261 836 l 235 836 l 235 0 l 113 0 z "},"Ñ":{"ha":942,"x_min":113,"x_max":828,"o":"m 113 0 l 113 958 l 325 958 l 679 124 l 706 124 l 706 958 l 828 958 l 828 0 l 619 0 l 261 836 l 235 836 l 235 0 l 113 0 m 583 1106 q 526 1117 558 1106 q 461 1143 494 1128 q 400 1169 428 1158 q 357 1179 372 1179 q 308 1157 339 1179 q 256 1114 278 1135 l 231 1199 q 289 1252 253 1225 q 356 1279 325 1279 q 415 1268 383 1279 q 479 1243 447 1257 q 538 1218 511 1229 q 582 1207 565 1207 q 626 1227 597 1207 q 678 1268 656 1247 l 704 1183 q 650 1132 685 1158 q 583 1106 615 1106 z "},"O":{"ha":918,"x_min":75,"x_max":843,"o":"m 458 -14 q 225 41 308 -14 q 108 205 142 96 q 75 475 75 314 q 109 746 75 635 q 226 915 143 857 q 458 974 310 974 q 692 916 608 974 q 809 747 775 858 q 843 475 843 635 q 810 201 843 310 q 692 40 776 93 q 458 -14 608 -14 m 458 93 q 621 134 565 93 q 697 260 676 175 q 717 475 717 344 q 696 688 717 600 q 619 821 675 775 q 458 867 564 867 q 298 821 353 867 q 222 688 243 775 q 201 475 201 601 q 222 264 201 349 q 297 136 242 179 q 458 93 351 93 z "},"Ó":{"ha":918,"x_min":75,"x_max":843,"o":"m 458 -14 q 225 41 308 -14 q 108 205 142 96 q 75 475 75 314 q 109 746 75 635 q 226 915 143 857 q 458 974 310 974 q 692 916 608 974 q 809 747 775 858 q 843 475 843 635 q 810 201 843 310 q 692 40 776 93 q 458 -14 608 -14 m 458 93 q 621 134 565 93 q 697 260 676 175 q 717 475 717 344 q 696 688 717 600 q 619 821 675 775 q 458 867 564 867 q 298 821 353 867 q 222 688 243 775 q 201 475 201 601 q 222 264 201 349 q 297 136 242 179 q 458 93 351 93 m 317 1074 l 274 1147 l 564 1289 l 615 1197 l 317 1074 z "},"Ŏ":{"ha":918,"x_min":75,"x_max":843,"o":"m 458 -14 q 225 41 308 -14 q 108 205 142 96 q 75 475 75 314 q 109 746 75 635 q 226 915 143 857 q 458 974 310 974 q 692 916 608 974 q 809 747 775 858 q 843 475 843 635 q 810 201 843 310 q 692 40 776 93 q 458 -14 608 -14 m 458 93 q 621 134 565 93 q 697 260 676 175 q 717 475 717 344 q 696 688 717 600 q 619 821 675 775 q 458 867 564 867 q 298 821 353 867 q 222 688 243 775 q 201 475 201 601 q 222 264 201 349 q 297 136 242 179 q 458 93 351 93 m 461 1085 q 347 1109 394 1085 q 271 1175 299 1133 q 240 1271 243 1217 l 344 1272 q 380 1198 347 1225 q 461 1171 413 1171 q 543 1198 510 1171 q 578 1272 576 1225 l 682 1271 q 651 1175 679 1217 q 576 1109 624 1133 q 461 1085 528 1085 z "},"Ô":{"ha":918,"x_min":75,"x_max":843,"o":"m 458 -14 q 225 41 308 -14 q 108 205 142 96 q 75 475 75 314 q 109 746 75 635 q 226 915 143 857 q 458 974 310 974 q 692 916 608 974 q 809 747 775 858 q 843 475 843 635 q 810 201 843 310 q 692 40 776 93 q 458 -14 608 -14 m 458 93 q 621 134 565 93 q 697 260 676 175 q 717 475 717 344 q 696 688 717 600 q 619 821 675 775 q 458 867 564 867 q 298 821 353 867 q 222 688 243 775 q 201 475 201 601 q 222 264 201 349 q 297 136 242 179 q 458 93 351 93 m 224 1092 l 408 1279 l 508 1279 l 693 1092 l 567 1092 l 460 1200 l 353 1092 l 224 1092 z "},"Ö":{"ha":918,"x_min":75,"x_max":843,"o":"m 458 -14 q 225 41 308 -14 q 108 205 142 96 q 75 475 75 314 q 109 746 75 635 q 226 915 143 857 q 458 974 310 974 q 692 916 608 974 q 809 747 775 858 q 843 475 843 635 q 810 201 843 310 q 692 40 776 93 q 458 -14 608 -14 m 458 93 q 621 134 565 93 q 697 260 676 175 q 717 475 717 344 q 696 688 717 600 q 619 821 675 775 q 458 867 564 867 q 298 821 353 867 q 222 688 243 775 q 201 475 201 601 q 222 264 201 349 q 297 136 242 179 q 458 93 351 93 m 544 1113 l 544 1244 l 654 1244 l 654 1113 l 544 1113 m 261 1113 l 261 1244 l 371 1244 l 371 1113 l 261 1113 z "},"Ò":{"ha":918,"x_min":75,"x_max":843,"o":"m 458 -14 q 225 41 308 -14 q 108 205 142 96 q 75 475 75 314 q 109 746 75 635 q 226 915 143 857 q 458 974 310 974 q 692 916 608 974 q 809 747 775 858 q 843 475 843 635 q 810 201 843 310 q 692 40 776 93 q 458 -14 608 -14 m 458 93 q 621 134 565 93 q 697 260 676 175 q 717 475 717 344 q 696 688 717 600 q 619 821 675 775 q 458 867 564 867 q 298 821 353 867 q 222 688 243 775 q 201 475 201 601 q 222 264 201 349 q 297 136 242 179 q 458 93 351 93 m 572 1074 l 274 1197 l 325 1289 l 614 1147 l 572 1074 z "},"Ő":{"ha":918,"x_min":75,"x_max":843,"o":"m 458 -14 q 225 41 308 -14 q 108 205 142 96 q 75 475 75 314 q 109 746 75 635 q 226 915 143 857 q 458 974 310 974 q 692 916 608 974 q 809 747 775 858 q 843 475 843 635 q 810 201 843 310 q 692 40 776 93 q 458 -14 608 -14 m 458 93 q 621 134 565 93 q 697 260 676 175 q 717 475 717 344 q 696 688 717 600 q 619 821 675 775 q 458 867 564 867 q 298 821 353 867 q 222 688 243 775 q 201 475 201 601 q 222 264 201 349 q 297 136 242 179 q 458 93 351 93 m 567 1042 l 488 1083 l 669 1271 l 761 1225 l 567 1042 m 290 1043 l 211 1085 l 394 1272 l 485 1225 l 290 1043 z "},"Ō":{"ha":918,"x_min":75,"x_max":843,"o":"m 458 -14 q 225 41 308 -14 q 108 205 142 96 q 75 475 75 314 q 109 746 75 635 q 226 915 143 857 q 458 974 310 974 q 692 916 608 974 q 809 747 775 858 q 843 475 843 635 q 810 201 843 310 q 692 40 776 93 q 458 -14 608 -14 m 458 93 q 621 134 565 93 q 697 260 676 175 q 717 475 717 344 q 696 688 717 600 q 619 821 675 775 q 458 867 564 867 q 298 821 353 867 q 222 688 243 775 q 201 475 201 601 q 222 264 201 349 q 297 136 242 179 q 458 93 351 93 m 239 1118 l 239 1208 l 675 1208 l 675 1118 l 239 1118 z "},"Ø":{"ha":918,"x_min":75,"x_max":843,"o":"m 424 307 l 351 361 l 717 1103 l 790 1058 l 424 307 m 225 -158 l 131 -118 l 407 475 l 504 442 l 225 -158 m 458 -14 q 225 41 308 -14 q 108 205 142 96 q 75 475 75 314 q 109 746 75 635 q 226 915 143 857 q 458 974 310 974 q 692 916 608 974 q 809 747 775 858 q 843 475 843 635 q 810 201 843 310 q 692 40 776 93 q 458 -14 608 -14 m 458 93 q 621 134 565 93 q 697 260 676 175 q 717 475 717 344 q 696 688 717 600 q 619 821 675 775 q 458 867 564 867 q 298 821 353 867 q 222 688 243 775 q 201 475 201 601 q 222 264 201 349 q 297 136 242 179 q 458 93 351 93 z "},"Ǿ":{"ha":919,"x_min":75,"x_max":843,"o":"m 424 307 l 351 361 l 717 1103 l 790 1058 l 424 307 m 225 -158 l 131 -118 l 407 475 l 504 442 l 225 -158 m 336 1079 l 293 1153 l 583 1294 l 635 1203 l 336 1079 m 458 -14 q 225 41 308 -14 q 108 205 142 96 q 75 475 75 314 q 109 746 75 635 q 226 915 143 857 q 458 974 310 974 q 692 916 608 974 q 809 747 775 858 q 843 475 843 635 q 810 201 843 310 q 692 40 776 93 q 458 -14 608 -14 m 458 93 q 621 134 565 93 q 697 260 676 175 q 717 475 717 344 q 696 688 717 600 q 619 821 675 775 q 458 867 564 867 q 298 821 353 867 q 222 688 243 775 q 201 475 201 601 q 222 264 201 349 q 297 136 242 179 q 458 93 351 93 z "},"Õ":{"ha":918,"x_min":75,"x_max":843,"o":"m 458 -14 q 225 41 308 -14 q 108 205 142 96 q 75 475 75 314 q 109 746 75 635 q 226 915 143 857 q 458 974 310 974 q 692 916 608 974 q 809 747 775 858 q 843 475 843 635 q 810 201 843 310 q 692 40 776 93 q 458 -14 608 -14 m 458 93 q 621 134 565 93 q 697 260 676 175 q 717 475 717 344 q 696 688 717 600 q 619 821 675 775 q 458 867 564 867 q 298 821 353 867 q 222 688 243 775 q 201 475 201 601 q 222 264 201 349 q 297 136 242 179 q 458 93 351 93 m 571 1106 q 514 1117 546 1106 q 449 1143 482 1128 q 388 1169 415 1158 q 344 1179 360 1179 q 296 1157 326 1179 q 243 1114 265 1135 l 218 1199 q 276 1252 240 1225 q 343 1279 313 1279 q 403 1268 371 1279 q 467 1243 435 1257 q 526 1218 499 1229 q 569 1207 553 1207 q 614 1227 585 1207 q 665 1268 643 1247 l 692 1183 q 638 1132 672 1158 q 571 1106 603 1106 z "},"Œ":{"ha":1281,"x_min":71,"x_max":1218,"o":"m 440 -14 q 211 42 292 -14 q 101 209 131 99 q 71 483 71 319 q 102 760 71 651 q 214 920 133 868 q 440 972 294 972 q 503 971 467 972 q 577 966 540 969 q 642 958 614 963 l 1218 958 l 1218 850 l 757 850 l 757 542 l 1135 542 l 1135 435 l 757 435 l 757 108 l 1218 108 l 1218 -1 l 649 -1 q 581 -8 619 -4 q 504 -12 542 -11 q 440 -14 467 -14 m 458 94 q 492 95 469 94 q 541 97 514 96 q 592 101 568 99 q 635 104 617 103 l 635 853 q 591 856 617 854 q 539 860 565 858 q 490 863 513 861 q 457 864 468 864 q 294 826 350 864 q 218 703 239 788 q 197 481 197 618 q 217 260 197 346 q 292 135 236 175 q 458 94 349 94 z "},"P":{"ha":824,"x_min":113,"x_max":779,"o":"m 113 0 l 113 958 l 465 958 q 642 924 572 958 q 745 822 711 890 q 779 644 779 753 q 745 465 779 538 q 642 353 711 392 q 465 315 572 315 l 235 315 l 235 0 l 113 0 m 235 421 l 464 421 q 610 479 565 421 q 654 644 654 538 q 610 803 654 753 q 464 853 565 853 l 235 853 l 235 421 z "},"Þ":{"ha":833,"x_min":113,"x_max":781,"o":"m 113 0 l 113 965 l 235 965 l 235 813 l 465 813 q 642 778 572 813 q 747 676 713 744 q 781 500 781 607 q 747 317 781 392 q 642 202 713 242 q 465 163 572 163 l 235 163 l 235 0 l 113 0 m 235 278 l 464 278 q 610 337 564 278 q 656 500 656 396 q 610 651 656 603 q 464 699 565 699 l 235 699 l 235 278 z "},"Q":{"ha":917,"x_min":75,"x_max":842,"o":"m 692 -204 l 568 -3 q 518 -10 547 -7 q 458 -14 489 -14 q 225 40 308 -14 q 108 203 142 94 q 75 475 75 313 q 109 746 75 635 q 226 915 143 857 q 458 974 310 974 q 691 916 607 974 q 808 747 775 858 q 842 475 842 635 q 808 200 842 308 q 685 39 775 92 l 803 -151 l 692 -204 m 458 93 q 620 134 565 93 q 696 260 675 175 q 717 475 717 344 q 696 688 717 600 q 619 821 675 775 q 458 867 564 867 q 298 821 353 867 q 222 688 243 775 q 201 475 201 601 q 222 263 201 347 q 297 135 242 178 q 458 93 351 93 z "},"R":{"ha":856,"x_min":113,"x_max":792,"o":"m 113 0 l 113 958 l 471 958 q 644 928 575 958 q 749 832 714 897 q 785 664 785 767 q 743 487 785 558 q 614 385 701 415 l 792 0 l 658 0 l 494 358 l 235 358 l 235 0 l 113 0 m 235 464 l 474 464 q 583 490 542 464 q 641 560 624 515 q 658 663 658 606 q 613 806 658 758 q 471 853 567 853 l 235 853 l 235 464 z "},"Ŕ":{"ha":856,"x_min":113,"x_max":792,"o":"m 113 0 l 113 958 l 471 958 q 644 928 575 958 q 749 832 714 897 q 785 664 785 767 q 743 487 785 558 q 614 385 701 415 l 792 0 l 658 0 l 494 358 l 235 358 l 235 0 l 113 0 m 235 464 l 474 464 q 583 490 542 464 q 641 560 624 515 q 658 663 658 606 q 613 806 658 758 q 471 853 567 853 l 235 853 l 235 464 m 303 1074 l 260 1147 l 550 1289 l 601 1197 l 303 1074 z "},"Ř":{"ha":856,"x_min":113,"x_max":792,"o":"m 113 0 l 113 958 l 471 958 q 644 928 575 958 q 749 832 714 897 q 785 664 785 767 q 743 487 785 558 q 614 385 701 415 l 792 0 l 658 0 l 494 358 l 235 358 l 235 0 l 113 0 m 235 464 l 474 464 q 583 490 542 464 q 641 560 624 515 q 658 663 658 606 q 613 806 658 758 q 471 853 567 853 l 235 853 l 235 464 m 365 1092 l 182 1279 l 308 1279 l 417 1172 l 522 1279 l 649 1279 l 465 1092 l 365 1092 z "},"Ŗ":{"ha":856,"x_min":113,"x_max":792,"o":"m 113 0 l 113 958 l 471 958 q 644 928 575 958 q 749 832 714 897 q 785 664 785 767 q 743 487 785 558 q 614 385 701 415 l 792 0 l 658 0 l 494 358 l 235 358 l 235 0 l 113 0 m 235 464 l 474 464 q 583 490 542 464 q 641 560 624 515 q 658 663 658 606 q 613 806 658 758 q 471 853 567 853 l 235 853 l 235 464 m 336 -404 l 392 -110 l 510 -110 l 439 -404 l 336 -404 z "},"S":{"ha":756,"x_min":64,"x_max":693,"o":"m 382 -12 q 281 -8 338 -12 q 169 5 225 -3 q 72 18 114 13 l 83 118 q 178 108 125 114 q 285 99 232 103 q 375 94 338 94 q 521 138 472 94 q 569 275 569 182 q 550 356 569 325 q 485 403 531 386 q 364 436 440 421 q 196 486 263 457 q 97 568 129 515 q 64 711 64 621 q 103 865 64 807 q 213 949 142 922 q 378 975 283 975 q 474 970 419 975 q 581 959 528 965 q 671 946 633 953 l 663 844 q 568 855 621 850 q 466 864 515 860 q 386 868 417 868 q 238 832 288 868 q 188 721 188 796 q 210 631 188 661 q 282 583 232 600 q 413 547 332 565 q 539 510 486 529 q 626 462 592 490 q 677 390 661 433 q 693 285 693 347 q 655 113 693 178 q 547 17 617 47 q 382 -12 478 -12 z "},"Ś":{"ha":756,"x_min":64,"x_max":693,"o":"m 382 -12 q 281 -8 338 -12 q 169 5 225 -3 q 72 18 114 13 l 83 118 q 178 108 125 114 q 285 99 232 103 q 375 94 338 94 q 521 138 472 94 q 569 275 569 182 q 550 356 569 325 q 485 403 531 386 q 364 436 440 421 q 196 486 263 457 q 97 568 129 515 q 64 711 64 621 q 103 865 64 807 q 213 949 142 922 q 378 975 283 975 q 474 970 419 975 q 581 959 528 965 q 671 946 633 953 l 663 844 q 568 855 621 850 q 466 864 515 860 q 386 868 417 868 q 238 832 288 868 q 188 721 188 796 q 210 631 188 661 q 282 583 232 600 q 413 547 332 565 q 539 510 486 529 q 626 462 592 490 q 677 390 661 433 q 693 285 693 347 q 655 113 693 178 q 547 17 617 47 q 382 -12 478 -12 m 269 1074 l 226 1147 l 517 1289 l 568 1197 l 269 1074 z "},"Š":{"ha":756,"x_min":64,"x_max":693,"o":"m 382 -12 q 281 -8 338 -12 q 169 5 225 -3 q 72 18 114 13 l 83 118 q 178 108 125 114 q 285 99 232 103 q 375 94 338 94 q 521 138 472 94 q 569 275 569 182 q 550 356 569 325 q 485 403 531 386 q 364 436 440 421 q 196 486 263 457 q 97 568 129 515 q 64 711 64 621 q 103 865 64 807 q 213 949 142 922 q 378 975 283 975 q 474 970 419 975 q 581 959 528 965 q 671 946 633 953 l 663 844 q 568 855 621 850 q 466 864 515 860 q 386 868 417 868 q 238 832 288 868 q 188 721 188 796 q 210 631 188 661 q 282 583 232 600 q 413 547 332 565 q 539 510 486 529 q 626 462 592 490 q 677 390 661 433 q 693 285 693 347 q 655 113 693 178 q 547 17 617 47 q 382 -12 478 -12 m 343 1092 l 160 1279 l 286 1279 l 394 1172 l 500 1279 l 626 1279 l 443 1092 l 343 1092 z "},"Ş":{"ha":756,"x_min":64,"x_max":693,"o":"m 382 -12 q 281 -8 338 -12 q 169 5 225 -3 q 72 18 114 13 l 83 118 q 178 108 125 114 q 285 99 232 103 q 375 94 338 94 q 521 138 472 94 q 569 275 569 182 q 550 356 569 325 q 485 403 531 386 q 364 436 440 421 q 196 486 263 457 q 97 568 129 515 q 64 711 64 621 q 103 865 64 807 q 213 949 142 922 q 378 975 283 975 q 474 970 419 975 q 581 959 528 965 q 671 946 633 953 l 663 844 q 568 855 621 850 q 466 864 515 860 q 386 868 417 868 q 238 832 288 868 q 188 721 188 796 q 210 631 188 661 q 282 583 232 600 q 413 547 332 565 q 539 510 486 529 q 626 462 592 490 q 677 390 661 433 q 693 285 693 347 q 655 113 693 178 q 547 17 617 47 q 382 -12 478 -12 m 440 -304 q 371 -301 406 -304 q 317 -293 336 -299 l 321 -224 q 363 -226 332 -225 q 410 -226 393 -226 q 455 -215 439 -226 q 471 -176 471 -203 q 455 -140 471 -150 q 410 -131 439 -131 l 356 -131 l 356 3 l 415 3 l 415 -65 q 534 -87 494 -67 q 574 -176 574 -108 q 537 -274 574 -243 q 440 -304 500 -304 z "},"Ŝ":{"ha":756,"x_min":64,"x_max":693,"o":"m 382 -12 q 281 -8 338 -12 q 169 5 225 -3 q 72 18 114 13 l 83 118 q 178 108 125 114 q 285 99 232 103 q 375 94 338 94 q 521 138 472 94 q 569 275 569 182 q 550 356 569 325 q 485 403 531 386 q 364 436 440 421 q 196 486 263 457 q 97 568 129 515 q 64 711 64 621 q 103 865 64 807 q 213 949 142 922 q 378 975 283 975 q 474 970 419 975 q 581 959 528 965 q 671 946 633 953 l 663 844 q 568 855 621 850 q 466 864 515 860 q 386 868 417 868 q 238 832 288 868 q 188 721 188 796 q 210 631 188 661 q 282 583 232 600 q 413 547 332 565 q 539 510 486 529 q 626 462 592 490 q 677 390 661 433 q 693 285 693 347 q 655 113 693 178 q 547 17 617 47 q 382 -12 478 -12 m 147 1088 l 332 1275 l 432 1275 l 617 1088 l 490 1088 l 383 1196 l 276 1088 l 147 1088 z "},"Ș":{"ha":756,"x_min":64,"x_max":693,"o":"m 286 -396 l 340 -106 l 457 -106 l 388 -396 l 286 -396 m 382 -12 q 281 -8 338 -12 q 169 5 225 -3 q 72 18 114 13 l 83 118 q 178 108 125 114 q 285 99 232 103 q 375 94 338 94 q 521 138 472 94 q 569 275 569 182 q 550 356 569 325 q 485 403 531 386 q 364 436 440 421 q 196 486 263 457 q 97 568 129 515 q 64 711 64 621 q 103 865 64 807 q 213 949 142 922 q 378 975 283 975 q 474 970 419 975 q 581 959 528 965 q 671 946 633 953 l 663 844 q 568 855 621 850 q 466 864 515 860 q 386 868 417 868 q 238 832 288 868 q 188 721 188 796 q 210 631 188 661 q 282 583 232 600 q 413 547 332 565 q 539 510 486 529 q 626 462 592 490 q 677 390 661 433 q 693 285 693 347 q 655 113 693 178 q 547 17 617 47 q 382 -12 478 -12 z "},"T":{"ha":731,"x_min":18,"x_max":713,"o":"m 306 0 l 306 850 l 18 850 l 18 958 l 713 958 l 713 850 l 428 850 l 428 0 l 306 0 z "},"Ŧ":{"ha":733,"x_min":21,"x_max":715,"o":"m 93 406 l 93 506 l 647 506 l 647 406 l 93 406 m 308 0 l 308 850 l 21 850 l 21 958 l 715 958 l 715 850 l 431 850 l 431 0 l 308 0 z "},"Ť":{"ha":731,"x_min":18,"x_max":713,"o":"m 306 0 l 306 850 l 18 850 l 18 958 l 713 958 l 713 850 l 428 850 l 428 0 l 306 0 m 317 1092 l 133 1279 l 260 1279 l 368 1172 l 474 1279 l 600 1279 l 417 1092 l 317 1092 z "},"Ţ":{"ha":731,"x_min":18,"x_max":713,"o":"m 306 0 l 306 850 l 18 850 l 18 958 l 713 958 l 713 850 l 428 850 l 428 0 l 306 0 m 421 -304 q 351 -301 386 -304 q 297 -293 317 -299 l 301 -224 q 343 -226 313 -225 q 390 -226 374 -226 q 435 -215 419 -226 q 451 -176 451 -203 q 435 -140 451 -150 q 390 -131 419 -131 l 336 -131 l 336 3 l 396 3 l 396 -65 q 515 -87 475 -67 q 554 -176 554 -108 q 517 -274 554 -243 q 421 -304 481 -304 z "},"Ț":{"ha":731,"x_min":18,"x_max":713,"o":"m 279 -396 l 335 -106 l 450 -106 l 381 -396 l 279 -396 m 306 0 l 306 850 l 18 850 l 18 958 l 713 958 l 713 850 l 428 850 l 428 0 l 306 0 z "},"U":{"ha":896,"x_min":106,"x_max":790,"o":"m 444 -14 q 262 17 338 -14 q 146 115 186 47 q 106 296 106 183 l 106 958 l 228 958 l 228 292 q 285 140 228 186 q 444 93 342 93 q 610 140 553 93 q 668 292 668 186 l 668 958 l 790 958 l 790 296 q 750 116 790 185 q 633 17 710 47 q 444 -14 556 -14 z "},"Ú":{"ha":896,"x_min":106,"x_max":790,"o":"m 444 -14 q 262 17 338 -14 q 146 115 186 47 q 106 296 106 183 l 106 958 l 228 958 l 228 292 q 285 140 228 186 q 444 93 342 93 q 610 140 553 93 q 668 292 668 186 l 668 958 l 790 958 l 790 296 q 750 116 790 185 q 633 17 710 47 q 444 -14 556 -14 m 317 1074 l 274 1147 l 564 1289 l 615 1197 l 317 1074 z "},"Ŭ":{"ha":896,"x_min":106,"x_max":790,"o":"m 444 -14 q 262 17 338 -14 q 146 115 186 47 q 106 296 106 183 l 106 958 l 228 958 l 228 292 q 285 140 228 186 q 444 93 342 93 q 610 140 553 93 q 668 292 668 186 l 668 958 l 790 958 l 790 296 q 750 116 790 185 q 633 17 710 47 q 444 -14 556 -14 m 450 1085 q 335 1109 383 1085 q 260 1175 288 1133 q 229 1271 232 1217 l 333 1272 q 369 1198 336 1225 q 450 1171 401 1171 q 532 1198 499 1171 q 567 1272 565 1225 l 671 1271 q 640 1175 668 1217 q 565 1109 613 1133 q 450 1085 517 1085 z "},"Û":{"ha":894,"x_min":106,"x_max":790,"o":"m 444 -14 q 262 17 338 -14 q 146 115 186 47 q 106 296 106 183 l 106 958 l 228 958 l 228 292 q 285 140 228 186 q 444 93 342 93 q 610 140 553 93 q 668 292 668 186 l 668 958 l 790 958 l 790 296 q 750 116 790 185 q 633 17 710 47 q 444 -14 556 -14 m 213 1092 l 397 1279 l 497 1279 l 682 1092 l 556 1092 l 449 1200 l 342 1092 l 213 1092 z "},"Ü":{"ha":896,"x_min":106,"x_max":790,"o":"m 444 -14 q 262 17 338 -14 q 146 115 186 47 q 106 296 106 183 l 106 958 l 228 958 l 228 292 q 285 140 228 186 q 444 93 342 93 q 610 140 553 93 q 668 292 668 186 l 668 958 l 790 958 l 790 296 q 750 116 790 185 q 633 17 710 47 q 444 -14 556 -14 m 535 1113 l 535 1244 l 644 1244 l 644 1113 l 535 1113 m 251 1113 l 251 1244 l 361 1244 l 361 1113 l 251 1113 z "},"Ù":{"ha":894,"x_min":106,"x_max":790,"o":"m 444 -14 q 262 17 338 -14 q 146 115 186 47 q 106 296 106 183 l 106 958 l 228 958 l 228 292 q 285 140 228 186 q 444 93 342 93 q 610 140 553 93 q 668 292 668 186 l 668 958 l 790 958 l 790 296 q 750 116 790 185 q 633 17 710 47 q 444 -14 556 -14 m 568 1074 l 269 1197 l 321 1289 l 610 1147 l 568 1074 z "},"Ű":{"ha":896,"x_min":106,"x_max":790,"o":"m 444 -14 q 262 17 338 -14 q 146 115 186 47 q 106 296 106 183 l 106 958 l 228 958 l 228 292 q 285 140 228 186 q 444 93 342 93 q 610 140 553 93 q 668 292 668 186 l 668 958 l 790 958 l 790 296 q 750 116 790 185 q 633 17 710 47 q 444 -14 556 -14 m 568 1042 l 489 1083 l 671 1271 l 763 1225 l 568 1042 m 292 1043 l 213 1085 l 396 1272 l 486 1225 l 292 1043 z "},"Ū":{"ha":896,"x_min":106,"x_max":790,"o":"m 444 -14 q 262 17 338 -14 q 146 115 186 47 q 106 296 106 183 l 106 958 l 228 958 l 228 292 q 285 140 228 186 q 444 93 342 93 q 610 140 553 93 q 668 292 668 186 l 668 958 l 790 958 l 790 296 q 750 116 790 185 q 633 17 710 47 q 444 -14 556 -14 m 232 1118 l 232 1208 l 668 1208 l 668 1118 l 232 1118 z "},"Ų":{"ha":896,"x_min":106,"x_max":790,"o":"m 444 -14 q 262 17 338 -14 q 146 115 186 47 q 106 296 106 183 l 106 958 l 228 958 l 228 292 q 285 140 228 186 q 444 93 342 93 q 610 140 553 93 q 668 292 668 186 l 668 958 l 790 958 l 790 296 q 750 116 790 185 q 633 17 710 47 q 444 -14 556 -14 m 503 -289 q 428 -272 458 -289 q 382 -227 397 -254 q 367 -169 367 -200 q 385 -101 367 -135 q 430 -38 403 -68 q 483 13 457 -8 l 578 1 q 527 -51 550 -25 q 492 -102 504 -78 q 479 -147 479 -126 q 494 -183 479 -168 q 535 -197 508 -197 q 567 -194 547 -197 q 601 -189 588 -190 l 615 -275 q 558 -284 589 -279 q 503 -289 526 -289 z "},"Ů":{"ha":896,"x_min":106,"x_max":790,"o":"m 444 -14 q 262 17 338 -14 q 146 115 186 47 q 106 296 106 183 l 106 958 l 228 958 l 228 292 q 285 140 228 186 q 444 93 342 93 q 610 140 553 93 q 668 292 668 186 l 668 958 l 790 958 l 790 296 q 750 116 790 185 q 633 17 710 47 q 444 -14 556 -14 m 451 1024 q 331 1062 379 1024 q 283 1169 283 1100 q 331 1278 283 1240 q 451 1317 379 1317 q 570 1278 522 1317 q 618 1169 618 1240 q 570 1062 618 1100 q 451 1024 522 1024 m 451 1099 q 513 1117 490 1099 q 535 1169 535 1136 q 513 1222 535 1204 q 451 1240 490 1240 q 390 1222 413 1240 q 368 1169 368 1204 q 390 1117 368 1136 q 451 1099 413 1099 z "},"Ũ":{"ha":896,"x_min":106,"x_max":790,"o":"m 444 -14 q 262 17 338 -14 q 146 115 186 47 q 106 296 106 183 l 106 958 l 228 958 l 228 292 q 285 140 228 186 q 444 93 342 93 q 610 140 553 93 q 668 292 668 186 l 668 958 l 790 958 l 790 296 q 750 116 790 185 q 633 17 710 47 q 444 -14 556 -14 m 563 1106 q 506 1117 538 1106 q 440 1143 474 1128 q 379 1169 407 1158 q 336 1179 351 1179 q 288 1157 318 1179 q 235 1114 257 1135 l 210 1199 q 268 1252 232 1225 q 335 1279 304 1279 q 394 1268 363 1279 q 458 1243 426 1257 q 517 1218 490 1229 q 561 1207 544 1207 q 606 1227 576 1207 q 657 1268 635 1247 l 683 1183 q 629 1132 664 1158 q 563 1106 594 1106 z "},"V":{"ha":811,"x_min":31,"x_max":779,"o":"m 278 0 l 31 958 l 158 958 l 368 111 l 442 111 l 653 958 l 779 958 l 535 0 l 278 0 z "},"W":{"ha":1235,"x_min":40,"x_max":1196,"o":"m 229 0 l 40 958 l 167 958 l 321 110 l 360 110 l 547 951 l 689 951 l 876 110 l 915 110 l 1069 958 l 1196 958 l 1006 0 l 792 0 l 608 849 l 626 849 l 443 0 l 229 0 z "},"Ẃ":{"ha":1235,"x_min":40,"x_max":1196,"o":"m 229 0 l 40 958 l 167 958 l 321 110 l 360 110 l 547 951 l 689 951 l 876 110 l 915 110 l 1069 958 l 1196 958 l 1006 0 l 792 0 l 608 849 l 626 849 l 443 0 l 229 0 m 504 1074 l 461 1147 l 751 1289 l 803 1197 l 504 1074 z "},"Ŵ":{"ha":1235,"x_min":40,"x_max":1196,"o":"m 229 0 l 40 958 l 167 958 l 321 110 l 360 110 l 547 951 l 689 951 l 876 110 l 915 110 l 1069 958 l 1196 958 l 1006 0 l 792 0 l 608 849 l 626 849 l 443 0 l 229 0 m 382 1088 l 567 1275 l 667 1275 l 851 1088 l 725 1088 l 618 1196 l 511 1088 l 382 1088 z "},"Ẅ":{"ha":1235,"x_min":40,"x_max":1196,"o":"m 229 0 l 40 958 l 167 958 l 321 110 l 360 110 l 547 951 l 689 951 l 876 110 l 915 110 l 1069 958 l 1196 958 l 1006 0 l 792 0 l 608 849 l 626 849 l 443 0 l 229 0 m 704 1113 l 704 1244 l 814 1244 l 814 1113 l 704 1113 m 421 1113 l 421 1244 l 531 1244 l 531 1113 l 421 1113 z "},"Ẁ":{"ha":1235,"x_min":40,"x_max":1196,"o":"m 229 0 l 40 958 l 167 958 l 321 110 l 360 110 l 547 951 l 689 951 l 876 110 l 915 110 l 1069 958 l 1196 958 l 1006 0 l 792 0 l 608 849 l 626 849 l 443 0 l 229 0 m 742 1074 l 443 1197 l 494 1289 l 783 1147 l 742 1074 z "},"X":{"ha":778,"x_min":24,"x_max":756,"o":"m 24 0 l 314 468 l 24 958 l 160 958 l 390 560 l 625 958 l 756 958 l 465 475 l 754 0 l 618 0 l 389 386 l 154 0 l 24 0 z "},"Y":{"ha":753,"x_min":13,"x_max":740,"o":"m 315 0 l 315 397 l 13 958 l 149 958 l 375 521 l 604 958 l 740 958 l 438 397 l 438 0 l 315 0 z "},"Ý":{"ha":753,"x_min":13,"x_max":740,"o":"m 315 0 l 315 397 l 13 958 l 149 958 l 375 521 l 604 958 l 740 958 l 438 397 l 438 0 l 315 0 m 275 1074 l 232 1147 l 522 1289 l 574 1197 l 275 1074 z "},"Ŷ":{"ha":753,"x_min":13,"x_max":740,"o":"m 315 0 l 315 397 l 13 958 l 149 958 l 375 521 l 604 958 l 740 958 l 438 397 l 438 0 l 315 0 m 142 1092 l 326 1279 l 426 1279 l 611 1092 l 485 1092 l 378 1200 l 271 1092 l 142 1092 z "},"Ÿ":{"ha":753,"x_min":13,"x_max":740,"o":"m 315 0 l 315 397 l 13 958 l 149 958 l 375 521 l 604 958 l 740 958 l 438 397 l 438 0 l 315 0 m 461 1113 l 461 1244 l 571 1244 l 571 1113 l 461 1113 m 178 1113 l 178 1244 l 288 1244 l 288 1113 l 178 1113 z "},"Ỳ":{"ha":753,"x_min":13,"x_max":740,"o":"m 315 0 l 315 397 l 13 958 l 149 958 l 375 521 l 604 958 l 740 958 l 438 397 l 438 0 l 315 0 m 493 1074 l 194 1197 l 246 1289 l 535 1147 l 493 1074 z "},"Z":{"ha":747,"x_min":58,"x_max":689,"o":"m 58 -1 l 58 132 l 544 822 l 544 851 l 58 851 l 58 958 l 689 958 l 689 825 l 201 135 l 201 107 l 689 107 l 689 -1 l 58 -1 z "},"Ź":{"ha":747,"x_min":58,"x_max":689,"o":"m 58 -1 l 58 132 l 544 822 l 544 851 l 58 851 l 58 958 l 689 958 l 689 825 l 201 135 l 201 107 l 689 107 l 689 -1 l 58 -1 m 254 1074 l 211 1147 l 501 1289 l 553 1197 l 254 1074 z "},"Ž":{"ha":747,"x_min":58,"x_max":689,"o":"m 58 -1 l 58 132 l 544 822 l 544 851 l 58 851 l 58 958 l 689 958 l 689 825 l 201 135 l 201 107 l 689 107 l 689 -1 l 58 -1 m 335 1092 l 151 1279 l 278 1279 l 386 1172 l 492 1279 l 618 1279 l 435 1092 l 335 1092 z "},"Ż":{"ha":747,"x_min":58,"x_max":689,"o":"m 58 -1 l 58 132 l 544 822 l 544 851 l 58 851 l 58 958 l 689 958 l 689 825 l 201 135 l 201 107 l 689 107 l 689 -1 l 58 -1 m 314 1103 l 314 1231 l 431 1231 l 431 1103 l 314 1103 z "},"Ằ":{"ha":828,"x_min":31,"x_max":801,"o":"m 414 1040 q 299 1065 347 1040 q 224 1131 251 1089 q 193 1226 196 1172 l 297 1228 q 333 1153 300 1181 q 414 1126 365 1126 q 496 1153 463 1126 q 531 1228 529 1181 l 635 1226 q 604 1131 632 1172 q 528 1065 576 1089 q 414 1040 481 1040 m 547 1293 l 240 1408 l 286 1507 l 585 1369 l 547 1293 m 31 0 l 289 958 l 543 958 l 801 0 l 679 0 l 613 236 l 218 236 l 151 0 l 31 0 m 242 342 l 589 342 l 450 856 l 381 856 l 242 342 z "},"Ỹ":{"ha":742,"x_min":8,"x_max":736,"o":"m 465 1114 q 418 1124 444 1114 q 364 1146 392 1133 q 312 1168 336 1158 q 271 1178 288 1178 q 222 1159 253 1178 q 169 1122 192 1140 l 143 1196 q 203 1244 167 1219 q 271 1269 240 1269 q 321 1260 294 1269 q 374 1238 347 1250 q 425 1217 401 1226 q 464 1207 449 1207 q 510 1224 481 1207 q 561 1260 540 1242 l 588 1185 q 532 1138 567 1163 q 465 1114 497 1114 m 311 0 l 311 397 l 8 958 l 144 958 l 371 521 l 600 958 l 736 958 l 433 397 l 433 0 l 311 0 z "},"a":{"ha":701,"x_min":53,"x_max":675,"o":"m 253 -14 q 103 40 154 -14 q 53 200 53 94 q 77 313 53 269 q 151 378 101 356 q 271 406 200 400 l 479 426 l 479 483 q 449 579 479 551 q 360 607 418 607 q 276 604 324 607 q 180 597 228 601 q 96 589 132 593 l 90 678 q 172 692 124 685 q 272 703 219 699 q 367 708 324 708 q 499 685 447 708 q 574 612 550 661 q 599 485 599 563 l 599 138 q 622 95 601 108 q 675 78 643 82 l 671 -14 q 614 -10 640 -14 q 567 -1 588 -7 q 529 16 546 6 q 497 40 513 26 q 431 17 471 29 q 344 -5 390 4 q 253 -14 299 -14 m 274 83 q 349 90 310 83 q 422 106 388 96 q 479 124 457 115 l 479 340 l 286 322 q 200 287 226 317 q 174 203 174 257 q 199 115 174 147 q 274 83 225 83 z "},"á":{"ha":701,"x_min":53,"x_max":675,"o":"m 253 -14 q 103 40 154 -14 q 53 200 53 94 q 77 313 53 269 q 151 378 101 356 q 271 406 200 400 l 479 426 l 479 483 q 449 579 479 551 q 360 607 418 607 q 276 604 324 607 q 180 597 228 601 q 96 589 132 593 l 90 678 q 172 692 124 685 q 272 703 219 699 q 367 708 324 708 q 499 685 447 708 q 574 612 550 661 q 599 485 599 563 l 599 138 q 622 95 601 108 q 675 78 643 82 l 671 -14 q 614 -10 640 -14 q 567 -1 588 -7 q 529 16 546 6 q 497 40 513 26 q 431 17 471 29 q 344 -5 390 4 q 253 -14 299 -14 m 274 83 q 349 90 310 83 q 422 106 388 96 q 479 124 457 115 l 479 340 l 286 322 q 200 287 226 317 q 174 203 174 257 q 199 115 174 147 q 274 83 225 83 m 199 817 l 163 893 l 461 1031 l 507 932 l 199 817 z "},"ă":{"ha":701,"x_min":53,"x_max":675,"o":"m 253 -14 q 103 40 154 -14 q 53 200 53 94 q 77 313 53 269 q 151 378 101 356 q 271 406 200 400 l 479 426 l 479 483 q 449 579 479 551 q 360 607 418 607 q 276 604 324 607 q 180 597 228 601 q 96 589 132 593 l 90 678 q 172 692 124 685 q 272 703 219 699 q 367 708 324 708 q 499 685 447 708 q 574 612 550 661 q 599 485 599 563 l 599 138 q 622 95 601 108 q 675 78 643 82 l 671 -14 q 614 -10 640 -14 q 567 -1 588 -7 q 529 16 546 6 q 497 40 513 26 q 431 17 471 29 q 344 -5 390 4 q 253 -14 299 -14 m 274 83 q 349 90 310 83 q 422 106 388 96 q 479 124 457 115 l 479 340 l 286 322 q 200 287 226 317 q 174 203 174 257 q 199 115 174 147 q 274 83 225 83 m 351 818 q 242 844 288 818 q 171 916 196 871 q 143 1014 146 961 l 235 1015 q 268 934 238 965 q 351 903 299 903 q 436 934 406 903 q 468 1015 467 965 l 558 1014 q 531 916 556 961 q 462 844 507 871 q 351 818 417 818 z "},"â":{"ha":701,"x_min":53,"x_max":675,"o":"m 253 -14 q 103 40 154 -14 q 53 200 53 94 q 77 313 53 269 q 151 378 101 356 q 271 406 200 400 l 479 426 l 479 483 q 449 579 479 551 q 360 607 418 607 q 276 604 324 607 q 180 597 228 601 q 96 589 132 593 l 90 678 q 172 692 124 685 q 272 703 219 699 q 367 708 324 708 q 499 685 447 708 q 574 612 550 661 q 599 485 599 563 l 599 138 q 622 95 601 108 q 675 78 643 82 l 671 -14 q 614 -10 640 -14 q 567 -1 588 -7 q 529 16 546 6 q 497 40 513 26 q 431 17 471 29 q 344 -5 390 4 q 253 -14 299 -14 m 274 83 q 349 90 310 83 q 422 106 388 96 q 479 124 457 115 l 479 340 l 286 322 q 200 287 226 317 q 174 203 174 257 q 199 115 174 147 q 274 83 225 83 m 132 818 l 300 1017 l 379 1017 l 551 818 l 439 818 l 342 936 l 246 818 l 132 818 z "},"ä":{"ha":701,"x_min":53,"x_max":675,"o":"m 253 -14 q 103 40 154 -14 q 53 200 53 94 q 77 313 53 269 q 151 378 101 356 q 271 406 200 400 l 479 426 l 479 483 q 449 579 479 551 q 360 607 418 607 q 276 604 324 607 q 180 597 228 601 q 96 589 132 593 l 90 678 q 172 692 124 685 q 272 703 219 699 q 367 708 324 708 q 499 685 447 708 q 574 612 550 661 q 599 485 599 563 l 599 138 q 622 95 601 108 q 675 78 643 82 l 671 -14 q 614 -10 640 -14 q 567 -1 588 -7 q 529 16 546 6 q 497 40 513 26 q 431 17 471 29 q 344 -5 390 4 q 253 -14 299 -14 m 274 83 q 349 90 310 83 q 422 106 388 96 q 479 124 457 115 l 479 340 l 286 322 q 200 287 226 317 q 174 203 174 257 q 199 115 174 147 q 274 83 225 83 m 451 857 l 451 989 l 563 989 l 563 857 l 451 857 m 172 857 l 172 989 l 282 989 l 282 857 l 172 857 z "},"à":{"ha":701,"x_min":53,"x_max":675,"o":"m 253 -14 q 103 40 154 -14 q 53 200 53 94 q 77 313 53 269 q 151 378 101 356 q 271 406 200 400 l 479 426 l 479 483 q 449 579 479 551 q 360 607 418 607 q 276 604 324 607 q 180 597 228 601 q 96 589 132 593 l 90 678 q 172 692 124 685 q 272 703 219 699 q 367 708 324 708 q 499 685 447 708 q 574 612 550 661 q 599 485 599 563 l 599 138 q 622 95 601 108 q 675 78 643 82 l 671 -14 q 614 -10 640 -14 q 567 -1 588 -7 q 529 16 546 6 q 497 40 513 26 q 431 17 471 29 q 344 -5 390 4 q 253 -14 299 -14 m 274 83 q 349 90 310 83 q 422 106 388 96 q 479 124 457 115 l 479 340 l 286 322 q 200 287 226 317 q 174 203 174 257 q 199 115 174 147 q 274 83 225 83 m 472 817 l 165 932 l 211 1031 l 510 893 l 472 817 z "},"ā":{"ha":701,"x_min":53,"x_max":675,"o":"m 253 -14 q 103 40 154 -14 q 53 200 53 94 q 77 313 53 269 q 151 378 101 356 q 271 406 200 400 l 479 426 l 479 483 q 449 579 479 551 q 360 607 418 607 q 276 604 324 607 q 180 597 228 601 q 96 589 132 593 l 90 678 q 172 692 124 685 q 272 703 219 699 q 367 708 324 708 q 499 685 447 708 q 574 612 550 661 q 599 485 599 563 l 599 138 q 622 95 601 108 q 675 78 643 82 l 671 -14 q 614 -10 640 -14 q 567 -1 588 -7 q 529 16 546 6 q 497 40 513 26 q 431 17 471 29 q 344 -5 390 4 q 253 -14 299 -14 m 274 83 q 349 90 310 83 q 422 106 388 96 q 479 124 457 115 l 479 340 l 286 322 q 200 287 226 317 q 174 203 174 257 q 199 115 174 147 q 274 83 225 83 m 154 861 l 154 951 l 542 951 l 542 861 l 154 861 z "},"ą":{"ha":701,"x_min":53,"x_max":675,"o":"m 253 -14 q 103 40 154 -14 q 53 200 53 94 q 77 313 53 269 q 151 378 101 356 q 271 406 200 400 l 479 426 l 479 483 q 449 579 479 551 q 360 607 418 607 q 276 604 324 607 q 180 597 228 601 q 96 589 132 593 l 90 678 q 172 692 124 685 q 272 703 219 699 q 367 708 324 708 q 499 685 447 708 q 574 612 550 661 q 599 485 599 563 l 599 138 q 622 95 601 108 q 675 78 643 82 l 671 -14 q 614 -10 640 -14 q 567 -1 588 -7 q 529 16 546 6 q 497 40 513 26 q 431 17 471 29 q 344 -5 390 4 q 253 -14 299 -14 m 274 83 q 349 90 310 83 q 422 106 388 96 q 479 124 457 115 l 479 340 l 286 322 q 200 287 226 317 q 174 203 174 257 q 199 115 174 147 q 274 83 225 83 m 563 -289 q 488 -272 518 -289 q 442 -227 457 -254 q 426 -169 426 -200 q 444 -101 426 -135 q 490 -38 463 -68 q 543 13 517 -8 l 638 1 q 587 -51 610 -25 q 551 -102 564 -78 q 539 -147 539 -126 q 553 -183 539 -168 q 594 -197 568 -197 q 627 -194 607 -197 q 661 -189 647 -190 l 675 -275 q 617 -284 649 -279 q 563 -289 586 -289 z "},"å":{"ha":701,"x_min":53,"x_max":675,"o":"m 253 -14 q 103 40 154 -14 q 53 200 53 94 q 77 313 53 269 q 151 378 101 356 q 271 406 200 400 l 479 426 l 479 483 q 449 579 479 551 q 360 607 418 607 q 276 604 324 607 q 180 597 228 601 q 96 589 132 593 l 90 678 q 172 692 124 685 q 272 703 219 699 q 367 708 324 708 q 499 685 447 708 q 574 612 550 661 q 599 485 599 563 l 599 138 q 622 95 601 108 q 675 78 643 82 l 671 -14 q 614 -10 640 -14 q 567 -1 588 -7 q 529 16 546 6 q 497 40 513 26 q 431 17 471 29 q 344 -5 390 4 q 253 -14 299 -14 m 274 83 q 349 90 310 83 q 422 106 388 96 q 479 124 457 115 l 479 340 l 286 322 q 200 287 226 317 q 174 203 174 257 q 199 115 174 147 q 274 83 225 83 m 357 750 q 251 791 293 750 q 208 896 208 832 q 251 999 208 957 q 357 1040 293 1040 q 460 999 418 1040 q 503 896 503 957 q 461 792 503 833 q 357 750 419 750 m 357 821 q 408 842 388 821 q 429 896 429 864 q 408 948 429 926 q 357 969 388 969 q 303 948 325 969 q 282 896 282 926 q 303 842 282 864 q 357 821 325 821 z "},"ǻ":{"ha":701,"x_min":53,"x_max":675,"o":"m 253 -14 q 103 40 154 -14 q 53 200 53 94 q 77 313 53 269 q 151 378 101 356 q 271 406 200 400 l 479 426 l 479 483 q 449 579 479 551 q 360 607 418 607 q 276 604 324 607 q 180 597 228 601 q 96 589 132 593 l 90 678 q 172 692 124 685 q 272 703 219 699 q 367 708 324 708 q 499 685 447 708 q 574 612 550 661 q 599 485 599 563 l 599 138 q 622 95 601 108 q 675 78 643 82 l 671 -14 q 614 -10 640 -14 q 567 -1 588 -7 q 529 16 546 6 q 497 40 513 26 q 431 17 471 29 q 344 -5 390 4 q 253 -14 299 -14 m 274 83 q 349 90 310 83 q 422 106 388 96 q 479 124 457 115 l 479 340 l 286 322 q 200 287 226 317 q 174 203 174 257 q 199 115 174 147 q 274 83 225 83 m 346 750 q 240 791 282 750 q 197 896 197 832 q 240 999 197 957 q 346 1040 282 1040 q 449 999 407 1040 q 492 896 492 957 q 450 792 492 833 q 346 750 408 750 m 346 821 q 397 842 376 821 q 418 896 418 864 q 397 948 418 926 q 346 969 376 969 q 292 948 314 969 q 271 896 271 926 q 292 842 271 864 q 346 821 314 821 m 217 1072 l 181 1149 l 479 1286 l 525 1188 l 217 1072 z "},"ã":{"ha":701,"x_min":53,"x_max":675,"o":"m 253 -14 q 103 40 154 -14 q 53 200 53 94 q 77 313 53 269 q 151 378 101 356 q 271 406 200 400 l 479 426 l 479 483 q 449 579 479 551 q 360 607 418 607 q 276 604 324 607 q 180 597 228 601 q 96 589 132 593 l 90 678 q 172 692 124 685 q 272 703 219 699 q 367 708 324 708 q 499 685 447 708 q 574 612 550 661 q 599 485 599 563 l 599 138 q 622 95 601 108 q 675 78 643 82 l 671 -14 q 614 -10 640 -14 q 567 -1 588 -7 q 529 16 546 6 q 497 40 513 26 q 431 17 471 29 q 344 -5 390 4 q 253 -14 299 -14 m 274 83 q 349 90 310 83 q 422 106 388 96 q 479 124 457 115 l 479 340 l 286 322 q 200 287 226 317 q 174 203 174 257 q 199 115 174 147 q 274 83 225 83 m 428 844 q 381 854 407 844 q 326 876 354 864 q 274 899 299 889 q 233 908 250 908 q 185 890 215 908 q 132 853 154 871 l 106 926 q 166 975 129 950 q 233 1000 203 1000 q 283 990 257 1000 q 337 969 310 981 q 388 947 364 957 q 426 938 411 938 q 473 955 443 938 q 524 990 503 972 l 550 915 q 494 869 529 893 q 428 844 460 844 z "},"æ":{"ha":1115,"x_min":53,"x_max":1057,"o":"m 246 -14 q 102 42 151 -14 q 53 200 53 97 q 81 320 53 278 q 165 383 108 363 q 306 411 221 403 l 479 426 l 479 481 q 449 569 479 542 q 364 597 419 597 q 277 595 326 597 q 181 590 228 593 q 99 583 133 588 l 94 686 q 180 697 131 692 q 280 705 229 701 q 371 708 331 708 q 488 685 442 708 q 557 614 535 663 q 649 686 594 664 q 772 708 704 708 q 985 631 913 708 q 1057 385 1057 554 l 1050 299 l 597 299 q 635 144 597 196 q 771 92 674 92 q 858 94 811 92 q 951 99 906 96 q 1029 104 997 101 l 1032 10 q 951 -1 999 4 q 851 -10 903 -7 q 757 -14 800 -14 q 635 5 685 -14 q 553 58 585 24 q 456 20 504 36 q 356 -5 407 4 q 246 -14 304 -14 m 267 86 q 335 92 299 86 q 406 107 372 99 q 464 122 439 115 q 500 133 489 129 q 482 226 488 168 q 476 333 476 283 l 286 318 q 201 287 228 314 q 174 203 174 260 q 198 116 174 146 q 267 86 222 86 m 597 392 l 938 392 q 898 557 938 508 q 772 606 858 606 q 642 556 686 606 q 597 392 597 506 z "},"ǽ":{"ha":1115,"x_min":53,"x_max":1057,"o":"m 246 -14 q 102 42 151 -14 q 53 200 53 97 q 81 320 53 278 q 165 383 108 363 q 306 411 221 403 l 479 426 l 479 481 q 449 569 479 542 q 364 597 419 597 q 277 595 326 597 q 181 590 228 593 q 99 583 133 588 l 94 686 q 180 697 131 692 q 280 705 229 701 q 371 708 331 708 q 488 685 442 708 q 557 614 535 663 q 649 686 594 664 q 772 708 704 708 q 985 631 913 708 q 1057 385 1057 554 l 1050 299 l 597 299 q 635 144 597 196 q 771 92 674 92 q 858 94 811 92 q 951 99 906 96 q 1029 104 997 101 l 1032 10 q 951 -1 999 4 q 851 -10 903 -7 q 757 -14 800 -14 q 635 5 685 -14 q 553 58 585 24 q 456 20 504 36 q 356 -5 407 4 q 246 -14 304 -14 m 267 86 q 335 92 299 86 q 406 107 372 99 q 464 122 439 115 q 500 133 489 129 q 482 226 488 168 q 476 333 476 283 l 286 318 q 201 287 228 314 q 174 203 174 260 q 198 116 174 146 q 267 86 222 86 m 597 392 l 938 392 q 898 557 938 508 q 772 606 858 606 q 642 556 686 606 q 597 392 597 506 m 436 817 l 400 893 l 699 1031 l 744 932 l 436 817 z "},"b":{"ha":735,"x_min":96,"x_max":668,"o":"m 336 -14 q 262 -12 306 -14 q 174 -6 218 -10 q 96 1 129 -1 l 96 994 l 214 994 l 214 663 q 303 693 247 678 q 411 708 360 708 q 563 673 507 708 q 644 560 619 638 q 668 358 668 482 q 638 138 668 219 q 536 22 608 57 q 336 -14 464 -14 m 335 92 q 471 119 426 92 q 531 206 515 147 q 546 358 546 265 q 533 499 546 444 q 486 578 519 553 q 396 604 453 604 q 297 591 347 604 q 214 567 246 578 l 214 99 q 280 94 243 96 q 335 92 317 92 z "},"c":{"ha":608,"x_min":68,"x_max":554,"o":"m 357 -14 q 183 23 246 -14 q 94 142 119 60 q 68 358 68 224 q 97 563 68 485 q 191 674 126 640 q 358 708 256 708 q 418 705 383 708 q 490 697 453 701 q 553 688 526 692 l 549 590 q 493 596 524 593 q 433 601 463 599 q 383 603 403 603 q 265 578 307 603 q 206 501 222 554 q 189 358 189 449 q 203 201 189 260 q 260 117 218 143 q 383 92 301 92 q 433 94 403 92 q 495 99 464 96 q 551 103 526 101 l 554 7 q 490 -3 526 1 q 417 -10 453 -7 q 357 -14 382 -14 z "},"ć":{"ha":608,"x_min":68,"x_max":554,"o":"m 357 -14 q 183 23 246 -14 q 94 142 119 60 q 68 358 68 224 q 97 563 68 485 q 191 674 126 640 q 358 708 256 708 q 418 705 383 708 q 490 697 453 701 q 553 688 526 692 l 549 590 q 493 596 524 593 q 433 601 463 599 q 383 603 403 603 q 265 578 307 603 q 206 501 222 554 q 189 358 189 449 q 203 201 189 260 q 260 117 218 143 q 383 92 301 92 q 433 94 403 92 q 495 99 464 96 q 551 103 526 101 l 554 7 q 490 -3 526 1 q 417 -10 453 -7 q 357 -14 382 -14 m 208 817 l 172 893 l 471 1031 l 517 932 l 208 817 z "},"č":{"ha":608,"x_min":68,"x_max":554,"o":"m 357 -14 q 183 23 246 -14 q 94 142 119 60 q 68 358 68 224 q 97 563 68 485 q 191 674 126 640 q 358 708 256 708 q 418 705 383 708 q 490 697 453 701 q 553 688 526 692 l 549 590 q 493 596 524 593 q 433 601 463 599 q 383 603 403 603 q 265 578 307 603 q 206 501 222 554 q 189 358 189 449 q 203 201 189 260 q 260 117 218 143 q 383 92 301 92 q 433 94 403 92 q 495 99 464 96 q 551 103 526 101 l 554 7 q 490 -3 526 1 q 417 -10 453 -7 q 357 -14 382 -14 m 292 818 l 122 1017 l 236 1017 l 333 897 l 429 1017 l 543 1017 l 371 818 l 292 818 z "},"ç":{"ha":608,"x_min":68,"x_max":554,"o":"m 357 -14 q 183 23 246 -14 q 94 142 119 60 q 68 358 68 224 q 97 563 68 485 q 191 674 126 640 q 358 708 256 708 q 418 705 383 708 q 490 697 453 701 q 553 688 526 692 l 549 590 q 493 596 524 593 q 433 601 463 599 q 383 603 403 603 q 265 578 307 603 q 206 501 222 554 q 189 358 189 449 q 203 201 189 260 q 260 117 218 143 q 383 92 301 92 q 433 94 403 92 q 495 99 464 96 q 551 103 526 101 l 554 7 q 490 -3 526 1 q 417 -10 453 -7 q 357 -14 382 -14 m 372 -304 q 303 -301 338 -304 q 249 -293 268 -299 l 253 -224 q 294 -226 264 -225 q 342 -226 325 -226 q 387 -215 371 -226 q 403 -176 403 -203 q 387 -140 403 -150 q 342 -131 371 -131 l 288 -131 l 288 3 l 347 3 l 347 -65 q 466 -87 426 -67 q 506 -176 506 -108 q 469 -274 506 -243 q 372 -304 432 -304 z "},"ĉ":{"ha":608,"x_min":68,"x_max":554,"o":"m 357 -14 q 183 23 246 -14 q 94 142 119 60 q 68 358 68 224 q 97 563 68 485 q 191 674 126 640 q 358 708 256 708 q 418 705 383 708 q 490 697 453 701 q 553 688 526 692 l 549 590 q 493 596 524 593 q 433 601 463 599 q 383 603 403 603 q 265 578 307 603 q 206 501 222 554 q 189 358 189 449 q 203 201 189 260 q 260 117 218 143 q 383 92 301 92 q 433 94 403 92 q 495 99 464 96 q 551 103 526 101 l 554 7 q 490 -3 526 1 q 417 -10 453 -7 q 357 -14 382 -14 m 113 818 l 281 1017 l 360 1017 l 532 818 l 419 818 l 322 936 l 226 818 l 113 818 z "},"ċ":{"ha":608,"x_min":68,"x_max":554,"o":"m 357 -14 q 183 23 246 -14 q 94 142 119 60 q 68 358 68 224 q 97 563 68 485 q 191 674 126 640 q 358 708 256 708 q 418 705 383 708 q 490 697 453 701 q 553 688 526 692 l 549 590 q 493 596 524 593 q 433 601 463 599 q 383 603 403 603 q 265 578 307 603 q 206 501 222 554 q 189 358 189 449 q 203 201 189 260 q 260 117 218 143 q 383 92 301 92 q 433 94 403 92 q 495 99 464 96 q 551 103 526 101 l 554 7 q 490 -3 526 1 q 417 -10 453 -7 q 357 -14 382 -14 m 290 840 l 290 968 l 407 968 l 407 840 l 290 840 z "},"d":{"ha":739,"x_min":65,"x_max":642,"o":"m 318 -14 q 238 -5 275 -14 q 169 27 200 4 q 114 90 138 50 q 78 192 90 131 q 65 342 65 254 q 94 547 65 465 q 188 668 124 628 q 358 708 253 708 q 447 703 397 708 q 524 692 496 697 l 524 994 l 642 994 l 642 0 l 525 0 l 525 44 q 468 19 503 33 q 394 -4 433 6 q 318 -14 356 -14 m 336 92 q 406 99 371 92 q 472 118 442 107 q 524 139 503 129 l 524 592 q 479 598 507 594 q 422 603 451 601 q 367 606 392 606 q 260 576 299 606 q 204 488 221 547 q 188 342 188 429 q 199 213 188 263 q 232 138 211 164 q 280 101 253 111 q 336 92 307 92 z "},"ð":{"ha":761,"x_min":56,"x_max":693,"o":"m 368 -12 q 138 67 219 -12 q 56 299 56 146 q 131 517 56 433 q 349 600 206 600 q 426 592 385 600 q 508 573 468 583 q 572 550 547 563 q 544 667 568 611 q 469 769 519 722 q 335 855 418 815 q 128 924 251 894 l 150 1008 q 447 911 326 976 q 631 742 568 846 q 693 489 693 639 q 660 199 693 310 q 556 38 626 89 q 368 -12 485 -12 m 368 92 q 485 125 440 92 q 551 236 529 158 q 572 449 572 314 q 510 470 547 460 q 433 488 472 481 q 356 496 393 496 q 257 469 297 496 q 197 399 217 443 q 176 299 176 354 q 224 146 176 200 q 368 92 271 92 m 219 714 l 169 783 l 536 1031 l 586 960 l 219 714 z "},"ď":{"ha":817,"x_min":65,"x_max":897,"o":"m 725 658 l 781 947 l 897 947 l 826 658 l 725 658 m 318 -14 q 238 -5 275 -14 q 169 27 200 4 q 114 90 138 50 q 78 192 90 131 q 65 342 65 254 q 94 547 65 465 q 188 668 124 628 q 358 708 253 708 q 447 703 397 708 q 524 692 496 697 l 524 994 l 642 994 l 642 0 l 525 0 l 525 44 q 468 19 503 33 q 394 -4 433 6 q 318 -14 356 -14 m 336 92 q 406 99 371 92 q 472 118 442 107 q 524 139 503 129 l 524 592 q 479 598 507 594 q 422 603 451 601 q 367 606 392 606 q 260 576 299 606 q 204 488 221 547 q 188 342 188 429 q 199 213 188 263 q 232 138 211 164 q 280 101 253 111 q 336 92 307 92 z "},"đ":{"ha":739,"x_min":65,"x_max":671,"o":"m 263 858 l 263 956 l 671 956 l 671 858 l 263 858 m 318 -14 q 238 -5 275 -14 q 169 27 200 4 q 114 90 138 50 q 78 192 90 131 q 65 342 65 254 q 94 547 65 465 q 188 668 124 628 q 358 708 253 708 q 447 703 397 708 q 524 692 496 697 l 524 994 l 642 994 l 642 0 l 525 0 l 525 44 q 468 19 503 33 q 394 -4 433 6 q 318 -14 356 -14 m 336 92 q 406 99 371 92 q 472 118 442 107 q 524 139 503 129 l 524 592 q 479 598 507 594 q 422 603 451 601 q 367 606 392 606 q 260 576 299 606 q 204 488 221 547 q 188 342 188 429 q 199 213 188 263 q 232 138 211 164 q 280 101 253 111 q 336 92 307 92 z "},"e":{"ha":704,"x_min":65,"x_max":646,"o":"m 347 -14 q 181 26 242 -14 q 92 146 119 67 q 65 343 65 225 q 101 554 65 474 q 203 672 138 635 q 361 708 269 708 q 574 631 503 708 q 646 385 646 554 l 640 299 l 186 299 q 225 142 188 196 q 361 89 263 89 q 447 91 400 89 q 541 96 494 93 q 619 101 588 99 l 622 10 q 540 -1 589 4 q 441 -10 492 -7 q 347 -14 390 -14 m 186 392 l 526 392 q 488 563 526 514 q 361 613 449 613 q 231 561 276 613 q 186 392 186 510 z "},"é":{"ha":704,"x_min":65,"x_max":646,"o":"m 347 -14 q 181 26 242 -14 q 92 146 119 67 q 65 343 65 225 q 101 554 65 474 q 203 672 138 635 q 361 708 269 708 q 574 631 503 708 q 646 385 646 554 l 640 299 l 186 299 q 225 142 188 196 q 361 89 263 89 q 447 91 400 89 q 541 96 494 93 q 619 101 588 99 l 622 10 q 540 -1 589 4 q 441 -10 492 -7 q 347 -14 390 -14 m 186 392 l 526 392 q 488 563 526 514 q 361 613 449 613 q 231 561 276 613 q 186 392 186 510 m 236 817 l 200 893 l 499 1031 l 544 932 l 236 817 z "},"ĕ":{"ha":704,"x_min":65,"x_max":646,"o":"m 347 -14 q 181 26 242 -14 q 92 146 119 67 q 65 343 65 225 q 101 554 65 474 q 203 672 138 635 q 361 708 269 708 q 574 631 503 708 q 646 385 646 554 l 640 299 l 186 299 q 225 142 188 196 q 361 89 263 89 q 447 91 400 89 q 541 96 494 93 q 619 101 588 99 l 622 10 q 540 -1 589 4 q 441 -10 492 -7 q 347 -14 390 -14 m 186 392 l 526 392 q 488 563 526 514 q 361 613 449 613 q 231 561 276 613 q 186 392 186 510 m 357 811 q 247 838 293 811 q 176 909 201 864 q 149 1007 151 954 l 240 1008 q 274 927 243 958 q 357 896 304 896 q 442 927 411 896 q 474 1008 472 958 l 564 1007 q 537 909 561 954 q 467 838 513 864 q 357 811 422 811 z "},"ě":{"ha":704,"x_min":65,"x_max":646,"o":"m 347 -14 q 181 26 242 -14 q 92 146 119 67 q 65 343 65 225 q 101 554 65 474 q 203 672 138 635 q 361 708 269 708 q 574 631 503 708 q 646 385 646 554 l 640 299 l 186 299 q 225 142 188 196 q 361 89 263 89 q 447 91 400 89 q 541 96 494 93 q 619 101 588 99 l 622 10 q 540 -1 589 4 q 441 -10 492 -7 q 347 -14 390 -14 m 186 392 l 526 392 q 488 563 526 514 q 361 613 449 613 q 231 561 276 613 q 186 392 186 510 m 313 818 l 143 1017 l 257 1017 l 354 897 l 450 1017 l 564 1017 l 392 818 l 313 818 z "},"ê":{"ha":704,"x_min":65,"x_max":646,"o":"m 347 -14 q 181 26 242 -14 q 92 146 119 67 q 65 343 65 225 q 101 554 65 474 q 203 672 138 635 q 361 708 269 708 q 574 631 503 708 q 646 385 646 554 l 640 299 l 186 299 q 225 142 188 196 q 361 89 263 89 q 447 91 400 89 q 541 96 494 93 q 619 101 588 99 l 622 10 q 540 -1 589 4 q 441 -10 492 -7 q 347 -14 390 -14 m 186 392 l 526 392 q 488 563 526 514 q 361 613 449 613 q 231 561 276 613 q 186 392 186 510 m 154 818 l 322 1017 l 401 1017 l 574 818 l 461 818 l 364 936 l 268 818 l 154 818 z "},"ë":{"ha":704,"x_min":65,"x_max":646,"o":"m 347 -14 q 181 26 242 -14 q 92 146 119 67 q 65 343 65 225 q 101 554 65 474 q 203 672 138 635 q 361 708 269 708 q 574 631 503 708 q 646 385 646 554 l 640 299 l 186 299 q 225 142 188 196 q 361 89 263 89 q 447 91 400 89 q 541 96 494 93 q 619 101 588 99 l 622 10 q 540 -1 589 4 q 441 -10 492 -7 q 347 -14 390 -14 m 186 392 l 526 392 q 488 563 526 514 q 361 613 449 613 q 231 561 276 613 q 186 392 186 510 m 472 857 l 472 989 l 583 989 l 583 857 l 472 857 m 193 857 l 193 989 l 303 989 l 303 857 l 193 857 z "},"ė":{"ha":704,"x_min":65,"x_max":646,"o":"m 347 -14 q 181 26 242 -14 q 92 146 119 67 q 65 343 65 225 q 101 554 65 474 q 203 672 138 635 q 361 708 269 708 q 574 631 503 708 q 646 385 646 554 l 640 299 l 186 299 q 225 142 188 196 q 361 89 263 89 q 447 91 400 89 q 541 96 494 93 q 619 101 588 99 l 622 10 q 540 -1 589 4 q 441 -10 492 -7 q 347 -14 390 -14 m 186 392 l 526 392 q 488 563 526 514 q 361 613 449 613 q 231 561 276 613 q 186 392 186 510 m 297 840 l 297 968 l 414 968 l 414 840 l 297 840 z "},"è":{"ha":704,"x_min":65,"x_max":646,"o":"m 347 -14 q 181 26 242 -14 q 92 146 119 67 q 65 343 65 225 q 101 554 65 474 q 203 672 138 635 q 361 708 269 708 q 574 631 503 708 q 646 385 646 554 l 640 299 l 186 299 q 225 142 188 196 q 361 89 263 89 q 447 91 400 89 q 541 96 494 93 q 619 101 588 99 l 622 10 q 540 -1 589 4 q 441 -10 492 -7 q 347 -14 390 -14 m 186 392 l 526 392 q 488 563 526 514 q 361 613 449 613 q 231 561 276 613 q 186 392 186 510 m 471 818 l 164 933 l 210 1032 l 508 894 l 471 818 z "},"ē":{"ha":704,"x_min":65,"x_max":646,"o":"m 347 -14 q 181 26 242 -14 q 92 146 119 67 q 65 343 65 225 q 101 554 65 474 q 203 672 138 635 q 361 708 269 708 q 574 631 503 708 q 646 385 646 554 l 640 299 l 186 299 q 225 142 188 196 q 361 89 263 89 q 447 91 400 89 q 541 96 494 93 q 619 101 588 99 l 622 10 q 540 -1 589 4 q 441 -10 492 -7 q 347 -14 390 -14 m 186 392 l 526 392 q 488 563 526 514 q 361 613 449 613 q 231 561 276 613 q 186 392 186 510 m 169 861 l 169 951 l 557 951 l 557 861 l 169 861 z "},"ę":{"ha":704,"x_min":65,"x_max":646,"o":"m 347 -14 q 181 26 242 -14 q 92 146 119 67 q 65 343 65 225 q 101 554 65 474 q 203 672 138 635 q 361 708 269 708 q 574 631 503 708 q 646 385 646 554 l 640 299 l 186 299 q 225 142 188 196 q 361 89 263 89 q 447 91 400 89 q 541 96 494 93 q 619 101 588 99 l 622 10 q 540 -1 589 4 q 441 -10 492 -7 q 347 -14 390 -14 m 186 392 l 526 392 q 488 563 526 514 q 361 613 449 613 q 231 561 276 613 q 186 392 186 510 m 507 -285 q 432 -267 463 -285 q 386 -223 401 -250 q 371 -165 371 -196 q 389 -97 371 -131 q 434 -34 407 -64 q 488 17 461 -4 l 582 6 q 531 -47 554 -21 q 496 -98 508 -74 q 483 -143 483 -122 q 498 -178 483 -164 q 539 -193 513 -193 q 572 -190 551 -193 q 606 -185 592 -186 l 619 -271 q 562 -280 593 -275 q 507 -285 531 -285 z "},"f":{"ha":463,"x_min":40,"x_max":460,"o":"m 125 0 l 125 593 l 40 593 l 40 694 l 125 694 l 125 753 q 144 908 125 853 q 204 986 163 964 q 315 1008 246 1008 q 363 1007 333 1008 q 420 1003 392 1006 q 460 997 449 1000 l 458 900 q 399 902 433 901 q 343 903 365 903 q 284 890 306 903 q 253 844 263 878 q 244 753 244 811 l 244 694 l 440 694 l 440 593 l 244 593 l 244 0 l 125 0 z "},"g":{"ha":718,"x_min":65,"x_max":693,"o":"m 369 -325 q 194 -307 261 -325 q 97 -243 128 -289 q 65 -118 65 -197 q 78 -49 65 -78 q 114 3 90 -21 q 174 54 138 28 q 145 94 156 68 q 135 151 135 119 q 151 201 135 167 q 183 261 168 235 q 130 299 154 275 q 90 365 106 324 q 75 471 75 407 q 148 653 75 599 q 339 708 221 708 q 418 703 376 708 q 483 692 460 697 l 693 696 l 693 600 l 565 603 q 597 552 585 583 q 610 471 610 521 q 579 328 610 379 q 488 256 549 276 q 336 235 428 235 q 303 237 326 235 q 269 240 281 239 q 254 198 263 222 q 246 165 246 174 q 256 126 246 139 q 301 108 265 113 q 414 104 338 104 q 572 88 513 104 q 658 27 632 71 q 683 -100 683 -17 q 601 -272 683 -219 q 369 -325 518 -325 m 369 -228 q 518 -199 471 -228 q 565 -107 565 -171 q 549 -35 565 -58 q 497 -5 533 -12 q 400 3 461 3 q 365 3 386 3 q 320 5 343 4 q 278 7 297 6 q 253 8 260 8 q 196 -44 211 -21 q 181 -107 181 -68 q 197 -176 181 -150 q 254 -215 213 -203 q 369 -228 296 -228 m 339 328 q 457 360 422 328 q 492 471 492 393 q 457 582 492 549 q 339 615 422 615 q 227 582 261 615 q 193 471 193 549 q 227 360 193 393 q 339 328 261 328 z "},"ğ":{"ha":718,"x_min":65,"x_max":693,"o":"m 369 -325 q 194 -307 261 -325 q 97 -243 128 -289 q 65 -118 65 -197 q 78 -49 65 -78 q 114 3 90 -21 q 174 54 138 28 q 145 94 156 68 q 135 151 135 119 q 151 201 135 167 q 183 261 168 235 q 130 299 154 275 q 90 365 106 324 q 75 471 75 407 q 148 653 75 599 q 339 708 221 708 q 418 703 376 708 q 483 692 460 697 l 693 696 l 693 600 l 565 603 q 597 552 585 583 q 610 471 610 521 q 579 328 610 379 q 488 256 549 276 q 336 235 428 235 q 303 237 326 235 q 269 240 281 239 q 254 198 263 222 q 246 165 246 174 q 256 126 246 139 q 301 108 265 113 q 414 104 338 104 q 572 88 513 104 q 658 27 632 71 q 683 -100 683 -17 q 601 -272 683 -219 q 369 -325 518 -325 m 369 -228 q 518 -199 471 -228 q 565 -107 565 -171 q 549 -35 565 -58 q 497 -5 533 -12 q 400 3 461 3 q 365 3 386 3 q 320 5 343 4 q 278 7 297 6 q 253 8 260 8 q 196 -44 211 -21 q 181 -107 181 -68 q 197 -176 181 -150 q 254 -215 213 -203 q 369 -228 296 -228 m 339 328 q 457 360 422 328 q 492 471 492 393 q 457 582 492 549 q 339 615 422 615 q 227 582 261 615 q 193 471 193 549 q 227 360 193 393 q 339 328 261 328 m 365 811 q 256 838 301 811 q 185 909 210 864 q 157 1007 160 954 l 249 1008 q 282 927 251 958 q 365 896 313 896 q 450 927 419 896 q 482 1008 481 958 l 572 1007 q 545 909 569 954 q 476 838 521 864 q 365 811 431 811 z "},"ĝ":{"ha":718,"x_min":65,"x_max":693,"o":"m 369 -325 q 194 -307 261 -325 q 97 -243 128 -289 q 65 -118 65 -197 q 78 -49 65 -78 q 114 3 90 -21 q 174 54 138 28 q 145 94 156 68 q 135 151 135 119 q 151 201 135 167 q 183 261 168 235 q 130 299 154 275 q 90 365 106 324 q 75 471 75 407 q 148 653 75 599 q 339 708 221 708 q 418 703 376 708 q 483 692 460 697 l 693 696 l 693 600 l 565 603 q 597 552 585 583 q 610 471 610 521 q 579 328 610 379 q 488 256 549 276 q 336 235 428 235 q 303 237 326 235 q 269 240 281 239 q 254 198 263 222 q 246 165 246 174 q 256 126 246 139 q 301 108 265 113 q 414 104 338 104 q 572 88 513 104 q 658 27 632 71 q 683 -100 683 -17 q 601 -272 683 -219 q 369 -325 518 -325 m 369 -228 q 518 -199 471 -228 q 565 -107 565 -171 q 549 -35 565 -58 q 497 -5 533 -12 q 400 3 461 3 q 365 3 386 3 q 320 5 343 4 q 278 7 297 6 q 253 8 260 8 q 196 -44 211 -21 q 181 -107 181 -68 q 197 -176 181 -150 q 254 -215 213 -203 q 369 -228 296 -228 m 339 328 q 457 360 422 328 q 492 471 492 393 q 457 582 492 549 q 339 615 422 615 q 227 582 261 615 q 193 471 193 549 q 227 360 193 393 q 339 328 261 328 m 157 818 l 325 1017 l 404 1017 l 576 818 l 464 818 l 367 936 l 271 818 l 157 818 z "},"ģ":{"ha":718,"x_min":65,"x_max":693,"o":"m 264 817 l 333 1106 l 435 1106 l 379 817 l 264 817 m 369 -325 q 194 -307 261 -325 q 97 -243 128 -289 q 65 -118 65 -197 q 78 -49 65 -78 q 114 3 90 -21 q 174 54 138 28 q 145 94 156 68 q 135 151 135 119 q 151 201 135 167 q 183 261 168 235 q 130 299 154 275 q 90 365 106 324 q 75 471 75 407 q 148 653 75 599 q 339 708 221 708 q 418 703 376 708 q 483 692 460 697 l 693 696 l 693 600 l 565 603 q 597 552 585 583 q 610 471 610 521 q 579 328 610 379 q 488 256 549 276 q 336 235 428 235 q 303 237 326 235 q 269 240 281 239 q 254 198 263 222 q 246 165 246 174 q 256 126 246 139 q 301 108 265 113 q 414 104 338 104 q 572 88 513 104 q 658 27 632 71 q 683 -100 683 -17 q 601 -272 683 -219 q 369 -325 518 -325 m 369 -228 q 518 -199 471 -228 q 565 -107 565 -171 q 549 -35 565 -58 q 497 -5 533 -12 q 400 3 461 3 q 365 3 386 3 q 320 5 343 4 q 278 7 297 6 q 253 8 260 8 q 196 -44 211 -21 q 181 -107 181 -68 q 197 -176 181 -150 q 254 -215 213 -203 q 369 -228 296 -228 m 339 328 q 457 360 422 328 q 492 471 492 393 q 457 582 492 549 q 339 615 422 615 q 227 582 261 615 q 193 471 193 549 q 227 360 193 393 q 339 328 261 328 z "},"ġ":{"ha":718,"x_min":65,"x_max":693,"o":"m 369 -325 q 194 -307 261 -325 q 97 -243 128 -289 q 65 -118 65 -197 q 78 -49 65 -78 q 114 3 90 -21 q 174 54 138 28 q 145 94 156 68 q 135 151 135 119 q 151 201 135 167 q 183 261 168 235 q 130 299 154 275 q 90 365 106 324 q 75 471 75 407 q 148 653 75 599 q 339 708 221 708 q 418 703 376 708 q 483 692 460 697 l 693 696 l 693 600 l 565 603 q 597 552 585 583 q 610 471 610 521 q 579 328 610 379 q 488 256 549 276 q 336 235 428 235 q 303 237 326 235 q 269 240 281 239 q 254 198 263 222 q 246 165 246 174 q 256 126 246 139 q 301 108 265 113 q 414 104 338 104 q 572 88 513 104 q 658 27 632 71 q 683 -100 683 -17 q 601 -272 683 -219 q 369 -325 518 -325 m 369 -228 q 518 -199 471 -228 q 565 -107 565 -171 q 549 -35 565 -58 q 497 -5 533 -12 q 400 3 461 3 q 365 3 386 3 q 320 5 343 4 q 278 7 297 6 q 253 8 260 8 q 196 -44 211 -21 q 181 -107 181 -68 q 197 -176 181 -150 q 254 -215 213 -203 q 369 -228 296 -228 m 339 328 q 457 360 422 328 q 492 471 492 393 q 457 582 492 549 q 339 615 422 615 q 227 582 261 615 q 193 471 193 549 q 227 360 193 393 q 339 328 261 328 m 306 840 l 306 968 l 422 968 l 422 840 l 306 840 z "},"h":{"ha":750,"x_min":97,"x_max":660,"o":"m 97 0 l 97 994 l 214 994 l 214 658 q 310 692 250 675 q 424 708 369 708 q 571 674 519 708 q 641 565 622 640 q 660 368 660 490 l 660 0 l 542 0 l 542 363 q 531 503 542 450 q 492 579 521 556 q 400 603 463 603 q 298 590 350 603 q 214 564 246 576 l 214 0 l 97 0 z "},"ħ":{"ha":750,"x_min":13,"x_max":660,"o":"m 13 799 l 13 897 l 422 897 l 422 799 l 13 799 m 97 0 l 97 994 l 214 994 l 214 658 q 310 692 250 675 q 424 708 369 708 q 571 674 519 708 q 641 565 622 640 q 660 368 660 490 l 660 0 l 542 0 l 542 363 q 531 503 542 450 q 492 579 521 556 q 400 603 463 603 q 298 590 350 603 q 214 564 246 576 l 214 0 l 97 0 z "},"ĥ":{"ha":750,"x_min":97,"x_max":660,"o":"m 97 0 l 97 994 l 214 994 l 214 658 q 310 692 250 675 q 424 708 369 708 q 571 674 519 708 q 641 565 622 640 q 660 368 660 490 l 660 0 l 542 0 l 542 363 q 531 503 542 450 q 492 579 521 556 q 400 603 463 603 q 298 590 350 603 q 214 564 246 576 l 214 0 l 97 0 m 164 1069 l 332 1268 l 411 1268 l 583 1069 l 471 1069 l 374 1188 l 278 1069 l 164 1069 z "},"i":{"ha":311,"x_min":97,"x_max":214,"o":"m 97 0 l 97 694 l 214 694 l 214 0 l 97 0 m 97 842 l 97 971 l 214 971 l 214 842 l 97 842 z "},"ı":{"ha":318,"x_min":100,"x_max":218,"o":"m 100 0 l 100 694 l 218 694 l 218 0 l 100 0 z "},"í":{"ha":318,"x_min":50,"x_max":394,"o":"m 100 0 l 100 694 l 218 694 l 218 0 l 100 0 m 86 817 l 50 893 l 349 1031 l 394 932 l 86 817 z "},"ĭ":{"ha":311,"x_min":-51,"x_max":364,"o":"m 100 0 l 100 694 l 218 694 l 218 0 l 100 0 m 157 811 q 47 838 93 811 q -24 909 1 864 q -51 1007 -49 954 l 40 1008 q 74 927 43 958 q 157 896 104 896 q 242 927 211 896 q 274 1008 272 958 l 364 1007 q 337 909 361 954 q 267 838 313 864 q 157 811 222 811 z "},"î":{"ha":311,"x_min":-58,"x_max":363,"o":"m 100 0 l 100 694 l 218 694 l 218 0 l 100 0 m -57 818 l 111 1017 l 190 1017 l 363 818 l 250 818 l 153 936 l 57 818 l -57 818 z "},"ï":{"ha":311,"x_min":-15,"x_max":375,"o":"m 100 0 l 100 694 l 218 694 l 218 0 l 100 0 m 264 857 l 264 989 l 375 989 l 375 857 l 264 857 m -15 857 l -15 989 l 94 989 l 94 857 l -15 857 z "},"ì":{"ha":311,"x_min":-78,"x_max":267,"o":"m 100 0 l 100 694 l 218 694 l 218 0 l 100 0 m 229 817 l -78 932 l -32 1031 l 267 893 l 229 817 z "},"ī":{"ha":311,"x_min":-39,"x_max":349,"o":"m 100 0 l 100 694 l 218 694 l 218 0 l 100 0 m -39 861 l -39 951 l 349 951 l 349 861 l -39 861 z "},"į":{"ha":311,"x_min":3,"x_max":251,"o":"m 139 -289 q 64 -272 94 -289 q 18 -227 33 -254 q 3 -169 3 -200 q 21 -101 3 -135 q 66 -38 39 -68 q 119 13 93 -8 l 214 1 q 163 -51 186 -25 q 128 -102 140 -78 q 115 -147 115 -126 q 130 -183 115 -168 q 171 -197 144 -197 q 203 -194 183 -197 q 238 -189 224 -190 l 251 -275 q 194 -284 225 -279 q 139 -289 163 -289 m 97 0 l 97 694 l 214 694 l 214 0 l 97 0 m 97 842 l 97 971 l 214 971 l 214 842 l 97 842 z "},"ĩ":{"ha":311,"x_min":-64,"x_max":381,"o":"m 100 0 l 100 694 l 218 694 l 218 0 l 100 0 m 258 844 q 211 854 238 844 q 157 876 185 864 q 105 899 129 889 q 64 908 81 908 q 15 890 46 908 q -37 853 -15 871 l -64 926 q -3 975 -40 950 q 64 1000 33 1000 q 114 990 88 1000 q 167 969 140 981 q 218 947 194 957 q 257 938 242 938 q 303 955 274 938 q 354 990 333 972 l 381 915 q 325 869 360 893 q 258 844 290 844 z "},"j":{"ha":311,"x_min":-68,"x_max":215,"o":"m -22 -310 l -68 -218 q 17 -164 -15 -187 q 66 -116 49 -140 q 90 -59 83 -92 q 97 24 97 -26 l 97 694 l 215 694 l 215 22 q 205 -91 215 -43 q 168 -175 194 -139 q 96 -242 142 -211 q -22 -310 50 -274 m 97 842 l 97 971 l 215 971 l 215 842 l 97 842 z "},"ȷ":{"ha":311,"x_min":-68,"x_max":215,"o":"m -22 -310 l -68 -218 q 37 -148 1 -178 q 85 -79 72 -118 q 97 24 97 -40 l 97 694 l 215 694 l 215 22 q 205 -91 215 -43 q 168 -175 194 -139 q 96 -242 142 -211 q -22 -310 50 -274 z "},"ĵ":{"ha":311,"x_min":-68,"x_max":364,"o":"m -22 -310 l -68 -218 q 37 -148 1 -178 q 85 -79 72 -118 q 97 24 97 -40 l 97 694 l 215 694 l 215 22 q 205 -91 215 -43 q 168 -175 194 -139 q 96 -242 142 -211 q -22 -310 50 -274 m -56 818 l 113 1017 l 192 1017 l 364 818 l 251 818 l 154 936 l 58 818 l -56 818 z "},"k":{"ha":674,"x_min":97,"x_max":650,"o":"m 97 0 l 97 994 l 214 994 l 214 414 l 318 417 l 506 694 l 639 694 l 422 374 l 650 0 l 517 0 l 321 314 l 214 308 l 214 0 l 97 0 z "},"ķ":{"ha":674,"x_min":97,"x_max":650,"o":"m 136 -396 l 192 -106 l 308 -106 l 238 -396 l 136 -396 m 97 0 l 97 994 l 214 994 l 214 414 l 318 417 l 506 694 l 639 694 l 422 374 l 650 0 l 517 0 l 321 314 l 214 308 l 214 0 l 97 0 z "},"l":{"ha":326,"x_min":104,"x_max":222,"o":"m 104 0 l 104 994 l 222 994 l 222 0 l 104 0 z "},"ĺ":{"ha":326,"x_min":58,"x_max":403,"o":"m 104 0 l 104 994 l 222 994 l 222 0 l 104 0 m 94 1099 l 58 1175 l 357 1313 l 403 1214 l 94 1099 z "},"ľ":{"ha":397,"x_min":104,"x_max":479,"o":"m 307 658 l 363 947 l 479 947 l 408 658 l 307 658 m 104 0 l 104 994 l 222 994 l 222 0 l 104 0 z "},"ļ":{"ha":324,"x_min":43,"x_max":222,"o":"m 104 0 l 104 994 l 222 994 l 222 0 l 104 0 m 43 -404 l 99 -110 l 217 -110 l 146 -404 l 43 -404 z "},"ł":{"ha":436,"x_min":13,"x_max":422,"o":"m 64 313 l 13 397 l 371 643 l 422 558 l 64 313 m 154 0 l 154 994 l 272 994 l 272 0 l 154 0 z "},"m":{"ha":1163,"x_min":97,"x_max":1074,"o":"m 97 0 l 97 694 l 214 694 l 214 647 q 304 688 247 667 q 413 708 361 708 q 524 692 482 708 q 592 639 565 675 q 660 670 619 654 q 746 697 700 686 q 836 708 792 708 q 983 676 932 708 q 1053 567 1033 643 q 1074 367 1074 492 l 1074 0 l 956 0 l 956 361 q 945 502 956 449 q 906 579 935 556 q 817 603 876 603 q 711 587 763 603 q 632 556 660 571 q 644 467 640 519 q 647 360 647 415 l 647 0 l 531 0 l 531 356 q 521 501 531 447 q 481 579 511 556 q 390 603 451 603 q 291 587 340 603 q 214 556 242 571 l 214 0 l 97 0 z "},"n":{"ha":750,"x_min":97,"x_max":661,"o":"m 97 0 l 97 694 l 214 694 l 214 647 q 273 675 238 661 q 348 699 308 689 q 424 708 388 708 q 571 674 519 708 q 642 565 622 640 q 661 367 661 490 l 661 0 l 543 0 l 543 363 q 533 503 543 450 q 492 579 522 556 q 400 603 463 603 q 331 595 367 603 q 265 576 296 588 q 214 554 235 565 l 214 0 l 97 0 z "},"ń":{"ha":750,"x_min":97,"x_max":661,"o":"m 97 0 l 97 694 l 214 694 l 214 647 q 273 675 238 661 q 348 699 308 689 q 424 708 388 708 q 571 674 519 708 q 642 565 622 640 q 661 367 661 490 l 661 0 l 543 0 l 543 363 q 533 503 543 450 q 492 579 522 556 q 400 603 463 603 q 331 595 367 603 q 265 576 296 588 q 214 554 235 565 l 214 0 l 97 0 m 254 817 l 218 893 l 517 1031 l 563 932 l 254 817 z "},"ň":{"ha":750,"x_min":97,"x_max":661,"o":"m 97 0 l 97 694 l 214 694 l 214 647 q 273 675 238 661 q 348 699 308 689 q 424 708 388 708 q 571 674 519 708 q 642 565 622 640 q 661 367 661 490 l 661 0 l 543 0 l 543 363 q 533 503 543 450 q 492 579 522 556 q 400 603 463 603 q 331 595 367 603 q 265 576 296 588 q 214 554 235 565 l 214 0 l 97 0 m 333 818 l 164 1017 l 278 1017 l 375 897 l 471 1017 l 585 1017 l 413 818 l 333 818 z "},"ņ":{"ha":750,"x_min":97,"x_max":661,"o":"m 171 -396 l 226 -106 l 343 -106 l 272 -396 l 171 -396 m 97 0 l 97 694 l 214 694 l 214 647 q 273 675 238 661 q 348 699 308 689 q 424 708 388 708 q 571 674 519 708 q 642 565 622 640 q 661 367 661 490 l 661 0 l 543 0 l 543 363 q 533 503 543 450 q 492 579 522 556 q 400 603 463 603 q 331 595 367 603 q 265 576 296 588 q 214 554 235 565 l 214 0 l 97 0 z "},"ŋ":{"ha":750,"x_min":96,"x_max":661,"o":"m 432 -329 l 382 -231 q 484 -161 450 -190 q 531 -95 518 -132 q 543 1 543 -58 l 543 358 q 533 493 543 439 q 493 574 522 547 q 407 601 464 601 q 339 594 375 601 q 270 575 303 586 q 214 554 238 564 l 214 0 l 96 0 l 96 694 l 214 694 l 214 650 q 276 677 240 664 q 353 699 313 690 q 428 708 393 708 q 572 672 521 708 q 642 558 622 635 q 661 361 661 481 l 661 3 q 651 -112 661 -65 q 617 -194 642 -158 q 548 -261 593 -229 q 432 -329 503 -293 z "},"ñ":{"ha":750,"x_min":97,"x_max":661,"o":"m 97 0 l 97 694 l 214 694 l 214 647 q 273 675 238 661 q 348 699 308 689 q 424 708 388 708 q 571 674 519 708 q 642 565 622 640 q 661 367 661 490 l 661 0 l 543 0 l 543 363 q 533 503 543 450 q 492 579 522 556 q 400 603 463 603 q 331 595 367 603 q 265 576 296 588 q 214 554 235 565 l 214 0 l 97 0 m 486 844 q 439 854 465 844 q 385 876 413 864 q 333 899 357 889 q 292 908 308 908 q 243 890 274 908 q 190 853 213 871 l 164 926 q 224 975 188 950 q 292 1000 261 1000 q 342 990 315 1000 q 395 969 368 981 q 446 947 422 957 q 485 938 469 938 q 531 955 501 938 q 582 990 561 972 l 608 915 q 553 869 588 893 q 486 844 518 844 z "},"o":{"ha":738,"x_min":67,"x_max":671,"o":"m 368 -14 q 185 26 251 -14 q 93 148 119 67 q 67 356 67 229 q 96 553 67 475 q 192 670 125 632 q 368 708 258 708 q 546 670 479 708 q 642 553 613 632 q 671 356 671 475 q 644 148 671 229 q 551 26 617 67 q 368 -14 486 -14 m 368 88 q 485 115 446 88 q 536 201 524 142 q 549 356 549 261 q 533 504 549 449 q 478 583 517 560 q 368 607 439 607 q 259 583 299 607 q 203 504 219 560 q 188 356 188 449 q 200 201 188 261 q 251 115 213 142 q 368 88 290 88 z "},"ó":{"ha":738,"x_min":67,"x_max":671,"o":"m 368 -14 q 185 26 251 -14 q 93 148 119 67 q 67 356 67 229 q 96 553 67 475 q 192 670 125 632 q 368 708 258 708 q 546 670 479 708 q 642 553 613 632 q 671 356 671 475 q 644 148 671 229 q 551 26 617 67 q 368 -14 486 -14 m 368 88 q 485 115 446 88 q 536 201 524 142 q 549 356 549 261 q 533 504 549 449 q 478 583 517 560 q 368 607 439 607 q 259 583 299 607 q 203 504 219 560 q 188 356 188 449 q 200 201 188 261 q 251 115 213 142 q 368 88 290 88 m 246 817 l 210 893 l 508 1031 l 554 932 l 246 817 z "},"ŏ":{"ha":738,"x_min":67,"x_max":671,"o":"m 368 -14 q 185 26 251 -14 q 93 148 119 67 q 67 356 67 229 q 96 553 67 475 q 192 670 125 632 q 368 708 258 708 q 546 670 479 708 q 642 553 613 632 q 671 356 671 475 q 644 148 671 229 q 551 26 617 67 q 368 -14 486 -14 m 368 88 q 485 115 446 88 q 536 201 524 142 q 549 356 549 261 q 533 504 549 449 q 478 583 517 560 q 368 607 439 607 q 259 583 299 607 q 203 504 219 560 q 188 356 188 449 q 200 201 188 261 q 251 115 213 142 q 368 88 290 88 m 372 811 q 263 838 308 811 q 192 909 217 864 q 164 1007 167 954 l 256 1008 q 289 927 258 958 q 372 896 319 896 q 457 927 426 896 q 489 1008 488 958 l 579 1007 q 552 909 576 954 q 483 838 528 864 q 372 811 438 811 z "},"ô":{"ha":738,"x_min":67,"x_max":671,"o":"m 368 -14 q 185 26 251 -14 q 93 148 119 67 q 67 356 67 229 q 96 553 67 475 q 192 670 125 632 q 368 708 258 708 q 546 670 479 708 q 642 553 613 632 q 671 356 671 475 q 644 148 671 229 q 551 26 617 67 q 368 -14 486 -14 m 368 88 q 485 115 446 88 q 536 201 524 142 q 549 356 549 261 q 533 504 549 449 q 478 583 517 560 q 368 607 439 607 q 259 583 299 607 q 203 504 219 560 q 188 356 188 449 q 200 201 188 261 q 251 115 213 142 q 368 88 290 88 m 156 818 l 324 1017 l 403 1017 l 575 818 l 463 818 l 365 936 l 269 818 l 156 818 z "},"ö":{"ha":738,"x_min":67,"x_max":671,"o":"m 368 -14 q 185 26 251 -14 q 93 148 119 67 q 67 356 67 229 q 96 553 67 475 q 192 670 125 632 q 368 708 258 708 q 546 670 479 708 q 642 553 613 632 q 671 356 671 475 q 644 148 671 229 q 551 26 617 67 q 368 -14 486 -14 m 368 88 q 485 115 446 88 q 536 201 524 142 q 549 356 549 261 q 533 504 549 449 q 478 583 517 560 q 368 607 439 607 q 259 583 299 607 q 203 504 219 560 q 188 356 188 449 q 200 201 188 261 q 251 115 213 142 q 368 88 290 88 m 479 857 l 479 989 l 590 989 l 590 857 l 479 857 m 200 857 l 200 989 l 310 989 l 310 857 l 200 857 z "},"ò":{"ha":738,"x_min":67,"x_max":671,"o":"m 368 -14 q 185 26 251 -14 q 93 148 119 67 q 67 356 67 229 q 96 553 67 475 q 192 670 125 632 q 368 708 258 708 q 546 670 479 708 q 642 553 613 632 q 671 356 671 475 q 644 148 671 229 q 551 26 617 67 q 368 -14 486 -14 m 368 88 q 485 115 446 88 q 536 201 524 142 q 549 356 549 261 q 533 504 549 449 q 478 583 517 560 q 368 607 439 607 q 259 583 299 607 q 203 504 219 560 q 188 356 188 449 q 200 201 188 261 q 251 115 213 142 q 368 88 290 88 m 501 817 l 194 932 l 240 1031 l 539 893 l 501 817 z "},"ő":{"ha":738,"x_min":67,"x_max":743,"o":"m 368 -14 q 185 26 251 -14 q 93 148 119 67 q 67 356 67 229 q 96 553 67 475 q 192 670 125 632 q 368 708 258 708 q 546 670 479 708 q 642 553 613 632 q 671 356 671 475 q 644 148 671 229 q 551 26 617 67 q 368 -14 486 -14 m 368 88 q 485 115 446 88 q 536 201 524 142 q 549 356 549 261 q 533 504 549 449 q 478 583 517 560 q 368 607 439 607 q 259 583 299 607 q 203 504 219 560 q 188 356 188 449 q 200 201 188 261 q 251 115 213 142 q 368 88 290 88 m 544 806 l 464 863 l 656 1061 l 744 1001 l 544 806 m 274 806 l 193 863 l 385 1060 l 474 1001 l 274 806 z "},"ō":{"ha":738,"x_min":67,"x_max":671,"o":"m 368 -14 q 185 26 251 -14 q 93 148 119 67 q 67 356 67 229 q 96 553 67 475 q 192 670 125 632 q 368 708 258 708 q 546 670 479 708 q 642 553 613 632 q 671 356 671 475 q 644 148 671 229 q 551 26 617 67 q 368 -14 486 -14 m 368 88 q 485 115 446 88 q 536 201 524 142 q 549 356 549 261 q 533 504 549 449 q 478 583 517 560 q 368 607 439 607 q 259 583 299 607 q 203 504 219 560 q 188 356 188 449 q 200 201 188 261 q 251 115 213 142 q 368 88 290 88 m 178 875 l 178 965 l 565 965 l 565 875 l 178 875 z "},"ø":{"ha":738,"x_min":67,"x_max":671,"o":"m 228 -114 l 144 -89 l 522 839 l 607 811 l 228 -114 m 213 -151 l 128 -124 l 508 803 l 593 778 l 213 -151 m 368 -14 q 185 26 251 -14 q 93 148 119 67 q 67 356 67 229 q 96 553 67 475 q 192 670 125 632 q 368 708 258 708 q 546 670 479 708 q 642 553 613 632 q 671 356 671 475 q 644 148 671 229 q 551 26 617 67 q 368 -14 486 -14 m 368 88 q 485 115 446 88 q 536 201 524 142 q 549 356 549 261 q 533 504 549 449 q 478 583 517 560 q 368 607 439 607 q 259 583 299 607 q 203 504 219 560 q 188 356 188 449 q 200 201 188 261 q 251 115 213 142 q 368 88 290 88 z "},"ǿ":{"ha":738,"x_min":67,"x_max":671,"o":"m 228 -114 l 144 -89 l 522 839 l 607 811 l 228 -114 m 213 -151 l 128 -124 l 508 803 l 593 778 l 213 -151 m 236 822 l 200 900 l 499 1038 l 544 938 l 236 822 m 368 -14 q 185 26 251 -14 q 93 148 119 67 q 67 356 67 229 q 96 553 67 475 q 192 670 125 632 q 368 708 258 708 q 546 670 479 708 q 642 553 613 632 q 671 356 671 475 q 644 148 671 229 q 551 26 617 67 q 368 -14 486 -14 m 368 88 q 485 115 446 88 q 536 201 524 142 q 549 356 549 261 q 533 504 549 449 q 478 583 517 560 q 368 607 439 607 q 259 583 299 607 q 203 504 219 560 q 188 356 188 449 q 200 201 188 261 q 251 115 213 142 q 368 88 290 88 z "},"õ":{"ha":738,"x_min":67,"x_max":671,"o":"m 368 -14 q 185 26 251 -14 q 93 148 119 67 q 67 356 67 229 q 96 553 67 475 q 192 670 125 632 q 368 708 258 708 q 546 670 479 708 q 642 553 613 632 q 671 356 671 475 q 644 148 671 229 q 551 26 617 67 q 368 -14 486 -14 m 368 88 q 485 115 446 88 q 536 201 524 142 q 549 356 549 261 q 533 504 549 449 q 478 583 517 560 q 368 607 439 607 q 259 583 299 607 q 203 504 219 560 q 188 356 188 449 q 200 201 188 261 q 251 115 213 142 q 368 88 290 88 m 465 844 q 418 854 444 844 q 364 876 392 864 q 312 899 336 889 q 271 908 288 908 q 222 890 253 908 q 169 853 192 871 l 143 926 q 203 975 167 950 q 271 1000 240 1000 q 321 990 294 1000 q 374 969 347 981 q 425 947 401 957 q 464 938 449 938 q 510 955 481 938 q 561 990 540 972 l 588 915 q 532 869 567 893 q 465 844 497 844 z "},"œ":{"ha":1189,"x_min":67,"x_max":1131,"o":"m 369 -14 q 186 26 253 -14 q 93 148 119 67 q 67 356 67 229 q 96 554 67 475 q 192 671 125 633 q 369 708 260 708 q 519 677 460 708 q 611 569 579 646 q 708 678 647 647 q 844 708 768 708 q 1058 631 986 708 q 1131 385 1131 554 l 1124 299 l 671 299 q 709 144 671 196 q 844 92 747 92 q 931 94 883 92 q 1025 99 979 96 q 1103 104 1071 101 l 1106 10 q 1024 -1 1072 4 q 924 -10 975 -7 q 831 -14 874 -14 q 691 16 744 -14 q 607 107 638 46 q 519 15 576 43 q 369 -14 463 -14 m 369 92 q 485 120 447 92 q 536 208 524 149 q 549 354 549 267 q 506 544 549 486 q 369 603 464 603 q 260 579 300 603 q 204 501 221 556 q 188 356 188 447 q 201 205 188 264 q 253 119 214 146 q 369 92 293 92 m 669 392 l 1011 392 q 971 557 1011 508 q 844 606 931 606 q 715 556 760 606 q 669 392 669 506 z "},"p":{"ha":736,"x_min":97,"x_max":671,"o":"m 97 -306 l 97 694 l 214 694 l 214 646 q 269 674 236 660 q 341 699 303 689 q 415 708 379 708 q 610 624 549 708 q 671 356 671 539 q 640 138 671 219 q 541 22 608 57 q 367 -14 474 -14 q 281 -8 325 -14 q 214 1 238 -3 l 214 -306 l 97 -306 m 357 89 q 472 116 431 89 q 531 202 514 143 q 549 356 549 261 q 508 548 549 492 q 396 604 468 604 q 330 596 364 604 q 265 576 296 588 q 214 553 235 565 l 214 101 q 277 94 236 99 q 357 89 318 89 z "},"þ":{"ha":736,"x_min":97,"x_max":669,"o":"m 97 -306 l 97 994 l 214 994 l 214 663 q 305 693 249 678 q 413 708 361 708 q 564 674 507 708 q 645 561 621 639 q 669 357 669 483 q 640 140 669 221 q 542 22 611 58 q 353 -14 472 -14 q 283 -10 324 -14 q 214 -4 242 -7 l 214 -306 l 97 -306 m 343 89 q 474 118 431 89 q 533 206 518 147 q 547 357 547 265 q 534 499 547 444 q 488 578 521 553 q 397 604 454 604 q 297 591 349 604 q 214 567 246 578 l 214 97 q 281 92 243 94 q 343 89 319 89 z "},"q":{"ha":735,"x_min":65,"x_max":639,"o":"m 519 -306 l 519 31 q 435 1 489 17 q 329 -14 381 -14 q 176 23 233 -14 q 92 138 118 60 q 65 336 65 215 q 97 556 65 474 q 202 673 129 638 q 397 708 275 708 q 467 706 425 708 q 556 701 510 704 q 639 694 603 697 l 639 -306 l 519 -306 m 344 92 q 444 104 394 92 q 519 129 493 117 l 519 600 q 458 605 494 603 q 399 607 422 607 q 267 578 313 607 q 203 489 221 549 q 186 336 186 429 q 222 152 186 213 q 344 92 258 92 z "},"r":{"ha":483,"x_min":97,"x_max":461,"o":"m 97 0 l 97 694 l 214 694 l 214 603 q 280 642 240 621 q 367 683 319 664 q 461 710 414 703 l 461 592 q 368 567 415 582 q 281 533 321 551 q 214 501 240 515 l 214 0 l 97 0 z "},"ŕ":{"ha":483,"x_min":89,"x_max":461,"o":"m 97 0 l 97 694 l 214 694 l 214 603 q 280 642 240 621 q 367 683 319 664 q 461 710 414 703 l 461 592 q 368 567 415 582 q 281 533 321 551 q 214 501 240 515 l 214 0 l 97 0 m 125 817 l 89 893 l 388 1031 l 433 932 l 125 817 z "},"ř":{"ha":483,"x_min":33,"x_max":461,"o":"m 97 0 l 97 694 l 214 694 l 214 603 q 280 642 240 621 q 367 683 319 664 q 461 710 414 703 l 461 592 q 368 567 415 582 q 281 533 321 551 q 214 501 240 515 l 214 0 l 97 0 m 203 818 l 33 1017 l 147 1017 l 244 897 l 340 1017 l 454 1017 l 282 818 l 203 818 z "},"ŗ":{"ha":483,"x_min":43,"x_max":461,"o":"m 43 -396 l 99 -106 l 214 -106 l 144 -396 l 43 -396 m 97 0 l 97 694 l 214 694 l 214 603 q 280 642 240 621 q 367 683 319 664 q 461 710 414 703 l 461 592 q 368 567 415 582 q 281 533 321 551 q 214 501 240 515 l 214 0 l 97 0 z "},"s":{"ha":649,"x_min":61,"x_max":592,"o":"m 318 -14 q 238 -10 285 -14 q 147 1 192 -6 q 68 13 103 7 l 75 113 q 153 103 110 108 q 239 94 197 97 q 307 90 281 90 q 397 100 361 90 q 452 133 433 110 q 471 201 471 157 q 456 253 471 235 q 403 283 442 271 q 292 306 365 296 q 162 338 214 318 q 85 394 110 357 q 61 501 61 432 q 97 626 61 581 q 192 690 133 671 q 314 708 250 708 q 401 704 354 708 q 493 694 449 700 q 569 682 538 688 l 567 582 q 488 592 533 588 q 399 601 443 597 q 321 604 354 604 q 249 596 281 604 q 198 566 217 588 q 179 507 179 544 q 193 460 179 478 q 244 430 207 442 q 354 406 282 418 q 492 371 440 392 q 568 312 544 350 q 592 206 592 274 q 519 34 592 82 q 318 -14 446 -14 z "},"ś":{"ha":649,"x_min":61,"x_max":592,"o":"m 318 -14 q 238 -10 285 -14 q 147 1 192 -6 q 68 13 103 7 l 75 113 q 153 103 110 108 q 239 94 197 97 q 307 90 281 90 q 397 100 361 90 q 452 133 433 110 q 471 201 471 157 q 456 253 471 235 q 403 283 442 271 q 292 306 365 296 q 162 338 214 318 q 85 394 110 357 q 61 501 61 432 q 97 626 61 581 q 192 690 133 671 q 314 708 250 708 q 401 704 354 708 q 493 694 449 700 q 569 682 538 688 l 567 582 q 488 592 533 588 q 399 601 443 597 q 321 604 354 604 q 249 596 281 604 q 198 566 217 588 q 179 507 179 544 q 193 460 179 478 q 244 430 207 442 q 354 406 282 418 q 492 371 440 392 q 568 312 544 350 q 592 206 592 274 q 519 34 592 82 q 318 -14 446 -14 m 193 817 l 157 893 l 456 1031 l 501 932 l 193 817 z "},"š":{"ha":649,"x_min":61,"x_max":592,"o":"m 318 -14 q 238 -10 285 -14 q 147 1 192 -6 q 68 13 103 7 l 75 113 q 153 103 110 108 q 239 94 197 97 q 307 90 281 90 q 397 100 361 90 q 452 133 433 110 q 471 201 471 157 q 456 253 471 235 q 403 283 442 271 q 292 306 365 296 q 162 338 214 318 q 85 394 110 357 q 61 501 61 432 q 97 626 61 581 q 192 690 133 671 q 314 708 250 708 q 401 704 354 708 q 493 694 449 700 q 569 682 538 688 l 567 582 q 488 592 533 588 q 399 601 443 597 q 321 604 354 604 q 249 596 281 604 q 198 566 217 588 q 179 507 179 544 q 193 460 179 478 q 244 430 207 442 q 354 406 282 418 q 492 371 440 392 q 568 312 544 350 q 592 206 592 274 q 519 34 592 82 q 318 -14 446 -14 m 297 818 l 128 1017 l 242 1017 l 339 897 l 435 1017 l 549 1017 l 376 818 l 297 818 z "},"ş":{"ha":649,"x_min":61,"x_max":592,"o":"m 318 -14 q 238 -10 285 -14 q 147 1 192 -6 q 68 13 103 7 l 75 113 q 153 103 110 108 q 239 94 197 97 q 307 90 281 90 q 397 100 361 90 q 452 133 433 110 q 471 201 471 157 q 456 253 471 235 q 403 283 442 271 q 292 306 365 296 q 162 338 214 318 q 85 394 110 357 q 61 501 61 432 q 97 626 61 581 q 192 690 133 671 q 314 708 250 708 q 401 704 354 708 q 493 694 449 700 q 569 682 538 688 l 567 582 q 488 592 533 588 q 399 601 443 597 q 321 604 354 604 q 249 596 281 604 q 198 566 217 588 q 179 507 179 544 q 193 460 179 478 q 244 430 207 442 q 354 406 282 418 q 492 371 440 392 q 568 312 544 350 q 592 206 592 274 q 519 34 592 82 q 318 -14 446 -14 m 367 -304 q 297 -301 332 -304 q 243 -293 263 -299 l 247 -224 q 289 -226 258 -225 q 336 -226 319 -226 q 381 -215 365 -226 q 397 -176 397 -203 q 381 -140 397 -150 q 336 -131 365 -131 l 282 -131 l 282 3 l 342 3 l 342 -65 q 460 -87 421 -67 q 500 -176 500 -108 q 463 -274 500 -243 q 367 -304 426 -304 z "},"ŝ":{"ha":649,"x_min":61,"x_max":592,"o":"m 318 -14 q 238 -10 285 -14 q 147 1 192 -6 q 68 13 103 7 l 75 113 q 153 103 110 108 q 239 94 197 97 q 307 90 281 90 q 397 100 361 90 q 452 133 433 110 q 471 201 471 157 q 456 253 471 235 q 403 283 442 271 q 292 306 365 296 q 162 338 214 318 q 85 394 110 357 q 61 501 61 432 q 97 626 61 581 q 192 690 133 671 q 314 708 250 708 q 401 704 354 708 q 493 694 449 700 q 569 682 538 688 l 567 582 q 488 592 533 588 q 399 601 443 597 q 321 604 354 604 q 249 596 281 604 q 198 566 217 588 q 179 507 179 544 q 193 460 179 478 q 244 430 207 442 q 354 406 282 418 q 492 371 440 392 q 568 312 544 350 q 592 206 592 274 q 519 34 592 82 q 318 -14 446 -14 m 117 818 l 285 1017 l 364 1017 l 536 818 l 424 818 l 326 936 l 231 818 l 117 818 z "},"ș":{"ha":649,"x_min":61,"x_max":592,"o":"m 147 -396 l 201 -106 l 318 -106 l 247 -396 l 147 -396 m 318 -14 q 238 -10 285 -14 q 147 1 192 -6 q 68 13 103 7 l 75 113 q 153 103 110 108 q 239 94 197 97 q 307 90 281 90 q 397 100 361 90 q 452 133 433 110 q 471 201 471 157 q 456 253 471 235 q 403 283 442 271 q 292 306 365 296 q 162 338 214 318 q 85 394 110 357 q 61 501 61 432 q 97 626 61 581 q 192 690 133 671 q 314 708 250 708 q 401 704 354 708 q 493 694 449 700 q 569 682 538 688 l 567 582 q 488 592 533 588 q 399 601 443 597 q 321 604 354 604 q 249 596 281 604 q 198 566 217 588 q 179 507 179 544 q 193 460 179 478 q 244 430 207 442 q 354 406 282 418 q 492 371 440 392 q 568 312 544 350 q 592 206 592 274 q 519 34 592 82 q 318 -14 446 -14 z "},"ß":{"ha":808,"x_min":97,"x_max":763,"o":"m 485 -14 q 388 -6 443 -14 q 296 7 333 1 l 301 104 q 359 98 326 101 q 422 92 392 94 q 471 90 453 90 q 605 126 569 90 q 640 229 640 161 q 628 290 640 265 q 584 335 617 314 q 490 385 551 356 q 401 434 433 411 q 354 484 368 457 q 340 549 340 511 q 367 631 340 601 q 446 683 394 660 q 517 731 500 707 q 533 796 533 756 q 500 878 533 854 q 379 903 467 903 q 283 888 319 903 q 231 839 247 874 q 214 738 214 804 l 214 0 l 97 0 l 97 749 q 126 903 97 847 q 217 984 156 960 q 379 1008 279 1008 q 538 987 476 1008 q 628 922 600 965 q 657 806 657 878 q 644 722 657 756 q 608 668 632 689 q 544 629 583 647 q 478 593 494 606 q 461 560 461 581 q 485 521 461 539 q 583 467 508 503 q 689 406 650 435 q 745 340 728 376 q 763 246 763 303 q 735 94 763 151 q 647 12 707 38 q 485 -14 586 -14 z "},"t":{"ha":489,"x_min":35,"x_max":471,"o":"m 326 -15 q 211 7 254 -15 q 149 84 168 29 q 131 239 131 139 l 131 593 l 35 593 l 35 694 l 131 694 l 131 903 l 249 903 l 249 694 l 461 694 l 461 593 l 249 593 l 249 272 q 255 162 249 201 q 281 106 261 122 q 344 90 301 90 q 380 92 358 90 q 424 95 401 93 q 464 99 447 97 l 471 0 q 398 -10 440 -4 q 326 -15 356 -15 z "},"ŧ":{"ha":494,"x_min":35,"x_max":471,"o":"m 61 346 l 61 433 l 431 433 l 431 346 l 61 346 m 326 -15 q 211 7 254 -15 q 149 84 168 29 q 131 239 131 139 l 131 593 l 35 593 l 35 694 l 131 694 l 131 903 l 249 903 l 249 694 l 461 694 l 461 593 l 249 593 l 249 272 q 255 162 249 201 q 281 106 261 122 q 344 90 301 90 q 380 92 358 90 q 424 95 401 93 q 464 99 447 97 l 471 0 q 398 -10 440 -4 q 326 -15 356 -15 z "},"ť":{"ha":611,"x_min":35,"x_max":625,"o":"m 510 644 l 511 971 l 625 971 l 621 644 l 510 644 m 326 -15 q 211 7 254 -15 q 149 84 168 29 q 131 239 131 139 l 131 593 l 35 593 l 35 694 l 131 694 l 131 903 l 249 903 l 249 694 l 461 694 l 461 593 l 249 593 l 249 272 q 255 162 249 201 q 281 106 261 122 q 344 90 301 90 q 380 92 358 90 q 424 95 401 93 q 464 99 447 97 l 471 0 q 398 -10 440 -4 q 326 -15 356 -15 z "},"ţ":{"ha":489,"x_min":35,"x_max":471,"o":"m 326 -15 q 211 7 254 -15 q 149 84 168 29 q 131 239 131 139 l 131 593 l 35 593 l 35 694 l 131 694 l 131 903 l 249 903 l 249 694 l 461 694 l 461 593 l 249 593 l 249 272 q 255 162 249 201 q 281 106 261 122 q 344 90 301 90 q 380 92 358 90 q 424 95 401 93 q 464 99 447 97 l 471 0 q 398 -10 440 -4 q 326 -15 356 -15 m 318 -304 q 249 -301 283 -304 q 194 -293 214 -299 l 199 -224 q 240 -226 210 -225 q 288 -226 271 -226 q 333 -215 317 -226 q 349 -176 349 -203 q 333 -140 349 -150 q 288 -131 317 -131 l 233 -131 l 233 3 l 293 3 l 293 -65 q 412 -87 372 -67 q 451 -176 451 -108 q 415 -274 451 -243 q 318 -304 378 -304 z "},"ț":{"ha":489,"x_min":35,"x_max":471,"o":"m 132 -396 l 188 -106 l 303 -106 l 233 -396 l 132 -396 m 326 -15 q 211 7 254 -15 q 149 84 168 29 q 131 239 131 139 l 131 593 l 35 593 l 35 694 l 131 694 l 131 903 l 249 903 l 249 694 l 461 694 l 461 593 l 249 593 l 249 272 q 255 162 249 201 q 281 106 261 122 q 344 90 301 90 q 380 92 358 90 q 424 95 401 93 q 464 99 447 97 l 471 0 q 398 -10 440 -4 q 326 -15 356 -15 z "},"u":{"ha":742,"x_min":90,"x_max":646,"o":"m 310 -14 q 173 22 221 -14 q 108 135 125 58 q 90 332 90 213 l 90 694 l 207 694 l 207 333 q 216 192 207 244 q 255 115 225 139 q 343 92 285 92 q 450 108 401 92 q 528 140 499 124 l 528 694 l 646 694 l 646 0 l 528 0 l 528 47 q 432 4 483 22 q 310 -14 381 -14 z "},"ú":{"ha":742,"x_min":90,"x_max":646,"o":"m 310 -14 q 173 22 221 -14 q 108 135 125 58 q 90 332 90 213 l 90 694 l 207 694 l 207 333 q 216 192 207 244 q 255 115 225 139 q 343 92 285 92 q 450 108 401 92 q 528 140 499 124 l 528 694 l 646 694 l 646 0 l 528 0 l 528 47 q 432 4 483 22 q 310 -14 381 -14 m 250 817 l 214 893 l 513 1031 l 558 932 l 250 817 z "},"ŭ":{"ha":742,"x_min":90,"x_max":646,"o":"m 310 -14 q 173 22 221 -14 q 108 135 125 58 q 90 332 90 213 l 90 694 l 207 694 l 207 333 q 216 192 207 244 q 255 115 225 139 q 343 92 285 92 q 450 108 401 92 q 528 140 499 124 l 528 694 l 646 694 l 646 0 l 528 0 l 528 47 q 432 4 483 22 q 310 -14 381 -14 m 365 811 q 256 838 301 811 q 185 909 210 864 q 157 1007 160 954 l 249 1008 q 282 927 251 958 q 365 896 313 896 q 450 927 419 896 q 482 1008 481 958 l 572 1007 q 545 909 569 954 q 476 838 521 864 q 365 811 431 811 z "},"û":{"ha":742,"x_min":90,"x_max":646,"o":"m 310 -14 q 173 22 221 -14 q 108 135 125 58 q 90 332 90 213 l 90 694 l 207 694 l 207 333 q 216 192 207 244 q 255 115 225 139 q 343 92 285 92 q 450 108 401 92 q 528 140 499 124 l 528 694 l 646 694 l 646 0 l 528 0 l 528 47 q 432 4 483 22 q 310 -14 381 -14 m 146 818 l 314 1017 l 393 1017 l 565 818 l 453 818 l 356 936 l 260 818 l 146 818 z "},"ü":{"ha":742,"x_min":90,"x_max":646,"o":"m 310 -14 q 173 22 221 -14 q 108 135 125 58 q 90 332 90 213 l 90 694 l 207 694 l 207 333 q 216 192 207 244 q 255 115 225 139 q 343 92 285 92 q 450 108 401 92 q 528 140 499 124 l 528 694 l 646 694 l 646 0 l 528 0 l 528 47 q 432 4 483 22 q 310 -14 381 -14 m 489 857 l 489 989 l 600 989 l 600 857 l 489 857 m 210 857 l 210 989 l 319 989 l 319 857 l 210 857 z "},"ù":{"ha":742,"x_min":90,"x_max":646,"o":"m 310 -14 q 173 22 221 -14 q 108 135 125 58 q 90 332 90 213 l 90 694 l 207 694 l 207 333 q 216 192 207 244 q 255 115 225 139 q 343 92 285 92 q 450 108 401 92 q 528 140 499 124 l 528 694 l 646 694 l 646 0 l 528 0 l 528 47 q 432 4 483 22 q 310 -14 381 -14 m 463 817 l 156 932 l 201 1031 l 500 893 l 463 817 z "},"ű":{"ha":742,"x_min":90,"x_max":765,"o":"m 310 -14 q 173 22 221 -14 q 108 135 125 58 q 90 332 90 213 l 90 694 l 207 694 l 207 333 q 216 192 207 244 q 255 115 225 139 q 343 92 285 92 q 450 108 401 92 q 528 140 499 124 l 528 694 l 646 694 l 646 0 l 528 0 l 528 47 q 432 4 483 22 q 310 -14 381 -14 m 567 806 l 486 863 l 678 1061 l 767 1001 l 567 806 m 296 806 l 215 863 l 407 1060 l 496 1001 l 296 806 z "},"ū":{"ha":742,"x_min":90,"x_max":646,"o":"m 310 -14 q 173 22 221 -14 q 108 135 125 58 q 90 332 90 213 l 90 694 l 207 694 l 207 333 q 216 192 207 244 q 255 115 225 139 q 343 92 285 92 q 450 108 401 92 q 528 140 499 124 l 528 694 l 646 694 l 646 0 l 528 0 l 528 47 q 432 4 483 22 q 310 -14 381 -14 m 175 861 l 175 951 l 563 951 l 563 861 l 175 861 z "},"ẫ":{"ha":701,"x_min":53,"x_max":675,"o":"m 253 -14 q 103 40 154 -14 q 53 200 53 94 q 77 313 53 269 q 151 378 101 356 q 271 406 200 400 l 479 426 l 479 483 q 449 579 479 551 q 360 607 418 607 q 276 604 324 607 q 180 597 228 601 q 96 589 132 593 l 90 678 q 172 692 124 685 q 272 703 219 699 q 367 708 324 708 q 499 685 447 708 q 574 612 550 661 q 599 485 599 563 l 599 138 q 622 95 601 108 q 675 78 643 82 l 671 -14 q 614 -10 640 -14 q 567 -1 588 -7 q 529 16 546 6 q 497 40 513 26 q 431 17 471 29 q 344 -5 390 4 q 253 -14 299 -14 m 274 83 q 349 90 310 83 q 422 106 388 96 q 479 124 457 115 l 479 340 l 286 322 q 200 287 226 317 q 174 203 174 257 q 199 115 174 147 q 274 83 225 83 m 121 779 l 289 978 l 368 978 l 540 779 l 428 779 l 331 897 l 235 779 l 121 779 m 419 1025 q 372 1035 399 1025 q 318 1057 346 1044 q 266 1079 290 1069 q 225 1089 242 1089 q 176 1070 207 1089 q 124 1033 146 1051 l 97 1107 q 158 1156 121 1131 q 225 1181 194 1181 q 275 1171 249 1181 q 328 1149 301 1161 q 379 1128 356 1138 q 418 1118 403 1118 q 465 1135 435 1118 q 515 1171 494 1153 l 542 1096 q 486 1049 521 1074 q 419 1025 451 1025 z "},"ễ":{"ha":706,"x_min":65,"x_max":646,"o":"m 150 779 l 318 978 l 397 978 l 569 779 l 457 779 l 360 897 l 264 779 l 150 779 m 451 1025 q 404 1035 431 1025 q 350 1057 378 1044 q 298 1079 322 1069 q 257 1089 274 1089 q 208 1070 239 1089 q 156 1033 178 1051 l 129 1107 q 190 1156 153 1131 q 257 1181 226 1181 q 307 1171 281 1181 q 360 1149 333 1161 q 411 1128 388 1138 q 450 1118 435 1118 q 497 1135 467 1118 q 547 1171 526 1153 l 574 1096 q 518 1049 553 1074 q 451 1025 483 1025 m 347 -14 q 181 26 242 -14 q 92 146 119 67 q 65 343 65 225 q 101 554 65 474 q 203 672 138 635 q 361 708 269 708 q 574 631 503 708 q 646 385 646 554 l 640 299 l 186 299 q 225 142 188 196 q 361 89 263 89 q 447 91 400 89 q 541 96 494 93 q 619 101 588 99 l 622 10 q 540 -1 589 4 q 441 -10 492 -7 q 347 -14 390 -14 m 186 392 l 526 392 q 488 563 526 514 q 361 613 449 613 q 231 561 276 613 q 186 392 186 510 z "},"ỗ":{"ha":738,"x_min":67,"x_max":671,"o":"m 368 -14 q 185 26 251 -14 q 93 148 119 67 q 67 356 67 229 q 96 553 67 475 q 192 670 125 632 q 368 708 258 708 q 546 670 479 708 q 642 553 613 632 q 671 356 671 475 q 644 148 671 229 q 551 26 617 67 q 368 -14 486 -14 m 368 88 q 485 115 446 88 q 536 201 524 142 q 549 356 549 261 q 533 504 549 449 q 478 583 517 560 q 368 607 439 607 q 259 583 299 607 q 203 504 219 560 q 188 356 188 449 q 200 201 188 261 q 251 115 213 142 q 368 88 290 88 m 151 779 l 319 978 l 399 978 l 571 779 l 458 779 l 361 897 l 265 779 l 151 779 m 444 1025 q 397 1035 424 1025 q 343 1057 371 1044 q 291 1079 315 1069 q 250 1089 267 1089 q 201 1070 232 1089 q 149 1033 171 1051 l 122 1107 q 183 1156 146 1131 q 250 1181 219 1181 q 300 1171 274 1181 q 353 1149 326 1161 q 404 1128 381 1138 q 443 1118 428 1118 q 490 1135 460 1118 q 540 1171 519 1153 l 567 1096 q 511 1049 546 1074 q 444 1025 476 1025 z "},"ỹ":{"ha":676,"x_min":33,"x_max":646,"o":"m 432 844 q 385 854 411 844 q 331 876 358 864 q 278 899 303 889 q 238 908 254 908 q 189 890 219 908 q 136 853 158 871 l 110 926 q 170 975 133 950 q 238 1000 207 1000 q 288 990 261 1000 q 341 969 314 981 q 392 947 368 957 q 431 938 415 938 q 477 955 447 938 q 528 990 507 972 l 554 915 q 499 869 533 893 q 432 844 464 844 m 244 -306 l 335 0 l 225 0 l 33 694 l 153 694 l 317 101 l 363 101 l 526 694 l 646 694 l 365 -306 l 244 -306 z "},"ų":{"ha":742,"x_min":90,"x_max":675,"o":"m 563 -290 q 488 -273 518 -290 q 442 -228 457 -256 q 426 -171 426 -201 q 444 -103 426 -136 q 490 -40 463 -69 q 543 11 517 -10 l 638 0 q 587 -53 610 -26 q 551 -103 564 -79 q 539 -149 539 -128 q 553 -184 539 -169 q 594 -199 568 -199 q 627 -195 607 -199 q 661 -190 647 -192 l 675 -276 q 617 -285 649 -281 q 563 -290 586 -290 m 310 -14 q 173 22 221 -14 q 108 135 125 58 q 90 332 90 213 l 90 694 l 207 694 l 207 333 q 216 192 207 244 q 255 115 225 139 q 343 92 285 92 q 450 108 401 92 q 528 140 499 124 l 528 694 l 646 694 l 646 0 l 528 0 l 528 47 q 432 4 483 22 q 310 -14 381 -14 z "},"ů":{"ha":742,"x_min":90,"x_max":646,"o":"m 310 -14 q 173 22 221 -14 q 108 135 125 58 q 90 332 90 213 l 90 694 l 207 694 l 207 333 q 216 192 207 244 q 255 115 225 139 q 343 92 285 92 q 450 108 401 92 q 528 140 499 124 l 528 694 l 646 694 l 646 0 l 528 0 l 528 47 q 432 4 483 22 q 310 -14 381 -14 m 372 750 q 266 791 308 750 q 224 896 224 832 q 266 999 224 957 q 372 1040 308 1040 q 476 999 433 1040 q 518 896 518 957 q 476 792 518 833 q 372 750 435 750 m 372 821 q 424 842 403 821 q 444 896 444 864 q 424 948 444 926 q 372 969 403 969 q 319 948 340 969 q 297 896 297 926 q 319 842 297 864 q 372 821 340 821 z "},"ũ":{"ha":742,"x_min":90,"x_max":646,"o":"m 310 -14 q 173 22 221 -14 q 108 135 125 58 q 90 332 90 213 l 90 694 l 207 694 l 207 333 q 216 192 207 244 q 255 115 225 139 q 343 92 285 92 q 450 108 401 92 q 528 140 499 124 l 528 694 l 646 694 l 646 0 l 528 0 l 528 47 q 432 4 483 22 q 310 -14 381 -14 m 469 844 q 422 854 449 844 q 368 876 396 864 q 316 899 340 889 q 275 908 292 908 q 226 890 257 908 q 174 853 196 871 l 147 926 q 208 975 171 950 q 275 1000 244 1000 q 325 990 299 1000 q 378 969 351 981 q 429 947 406 957 q 468 938 453 938 q 515 955 485 938 q 565 990 544 972 l 592 915 q 536 869 571 893 q 469 844 501 844 z "},"v":{"ha":674,"x_min":32,"x_max":643,"o":"m 222 0 l 32 694 l 160 694 l 313 101 l 363 101 l 521 694 l 643 694 l 453 0 l 222 0 z "},"w":{"ha":1063,"x_min":42,"x_max":1021,"o":"m 201 0 l 42 694 l 163 694 l 292 101 l 315 101 l 471 681 l 592 681 l 749 101 l 772 101 l 901 694 l 1021 694 l 861 0 l 668 0 l 531 525 l 393 0 l 201 0 z "},"ẃ":{"ha":1063,"x_min":42,"x_max":1021,"o":"m 201 0 l 42 694 l 163 694 l 292 101 l 315 101 l 471 681 l 592 681 l 749 101 l 772 101 l 901 694 l 1021 694 l 861 0 l 668 0 l 531 525 l 393 0 l 201 0 m 418 817 l 382 893 l 681 1031 l 726 932 l 418 817 z "},"ŵ":{"ha":1063,"x_min":42,"x_max":1021,"o":"m 201 0 l 42 694 l 163 694 l 292 101 l 315 101 l 471 681 l 592 681 l 749 101 l 772 101 l 901 694 l 1021 694 l 861 0 l 668 0 l 531 525 l 393 0 l 201 0 m 324 818 l 492 1017 l 571 1017 l 743 818 l 631 818 l 533 936 l 438 818 l 324 818 z "},"ẅ":{"ha":1063,"x_min":42,"x_max":1021,"o":"m 201 0 l 42 694 l 163 694 l 292 101 l 315 101 l 471 681 l 592 681 l 749 101 l 772 101 l 901 694 l 1021 694 l 861 0 l 668 0 l 531 525 l 393 0 l 201 0 m 646 857 l 646 989 l 757 989 l 757 857 l 646 857 m 367 857 l 367 989 l 476 989 l 476 857 l 367 857 z "},"ẁ":{"ha":1063,"x_min":42,"x_max":1021,"o":"m 201 0 l 42 694 l 163 694 l 292 101 l 315 101 l 471 681 l 592 681 l 749 101 l 772 101 l 901 694 l 1021 694 l 861 0 l 668 0 l 531 525 l 393 0 l 201 0 m 639 817 l 332 932 l 378 1031 l 676 893 l 639 817 z "},"x":{"ha":635,"x_min":29,"x_max":607,"o":"m 29 0 l 240 347 l 29 694 l 158 694 l 318 429 l 479 694 l 607 694 l 393 350 l 607 0 l 476 0 l 315 264 l 157 0 l 29 0 z "},"y":{"ha":676,"x_min":33,"x_max":646,"o":"m 244 -306 l 335 0 l 225 0 l 33 694 l 153 694 l 317 101 l 363 101 l 526 694 l 646 694 l 365 -306 l 244 -306 z "},"ý":{"ha":676,"x_min":33,"x_max":646,"o":"m 244 -306 l 335 0 l 225 0 l 33 694 l 153 694 l 317 101 l 363 101 l 526 694 l 646 694 l 365 -306 l 244 -306 m 246 817 l 210 893 l 508 1031 l 554 932 l 246 817 z "},"ŷ":{"ha":676,"x_min":33,"x_max":646,"o":"m 244 -306 l 335 0 l 225 0 l 33 694 l 153 694 l 317 101 l 363 101 l 526 694 l 646 694 l 365 -306 l 244 -306 m 133 818 l 301 1017 l 381 1017 l 553 818 l 440 818 l 343 936 l 247 818 l 133 818 z "},"ÿ":{"ha":676,"x_min":33,"x_max":646,"o":"m 244 -306 l 335 0 l 225 0 l 33 694 l 153 694 l 317 101 l 363 101 l 526 694 l 646 694 l 365 -306 l 244 -306 m 451 857 l 451 989 l 563 989 l 563 857 l 451 857 m 172 857 l 172 989 l 282 989 l 282 857 l 172 857 z "},"ỳ":{"ha":676,"x_min":33,"x_max":646,"o":"m 244 -306 l 335 0 l 225 0 l 33 694 l 153 694 l 317 101 l 363 101 l 526 694 l 646 694 l 365 -306 l 244 -306 m 454 817 l 147 932 l 193 1031 l 492 893 l 454 817 z "},"z":{"ha":635,"x_min":57,"x_max":578,"o":"m 57 0 l 57 106 l 431 589 l 57 589 l 57 694 l 578 694 l 578 590 l 204 107 l 578 107 l 578 0 l 57 0 z "},"ź":{"ha":635,"x_min":57,"x_max":578,"o":"m 57 0 l 57 106 l 431 589 l 57 589 l 57 694 l 578 694 l 578 590 l 204 107 l 578 107 l 578 0 l 57 0 m 192 817 l 156 893 l 454 1031 l 500 932 l 192 817 z "},"ž":{"ha":635,"x_min":57,"x_max":578,"o":"m 57 0 l 57 106 l 431 589 l 57 589 l 57 694 l 578 694 l 578 590 l 204 107 l 578 107 l 578 0 l 57 0 m 281 818 l 111 1017 l 225 1017 l 322 897 l 418 1017 l 532 1017 l 360 818 l 281 818 z "},"ż":{"ha":635,"x_min":57,"x_max":578,"o":"m 57 0 l 57 106 l 431 589 l 57 589 l 57 694 l 578 694 l 578 590 l 204 107 l 578 107 l 578 0 l 57 0 m 258 840 l 258 968 l 375 968 l 375 840 l 258 840 z "},"ª":{"ha":536,"x_min":71,"x_max":464,"o":"m 457 494 q 393 503 421 496 q 349 524 365 510 q 326 564 332 539 l 326 781 q 310 822 326 811 q 260 832 294 833 q 185 828 233 832 q 101 822 138 825 l 96 893 q 181 909 135 903 q 269 915 228 915 q 387 885 349 915 q 425 776 425 854 l 425 590 q 442 576 432 581 q 464 568 453 571 l 457 494 m 189 494 q 103 530 136 494 q 71 622 71 565 q 207 744 71 736 l 354 753 l 356 686 l 224 676 q 182 664 194 675 q 169 625 169 653 q 217 574 169 574 q 291 583 251 574 q 358 604 331 593 l 360 547 q 281 509 328 524 q 189 494 235 494 z "},"º":{"ha":528,"x_min":71,"x_max":457,"o":"m 265 494 q 119 547 168 494 q 71 708 71 599 q 119 866 71 817 q 265 915 168 915 q 409 866 361 915 q 457 708 457 817 q 409 547 457 599 q 265 494 361 494 m 265 585 q 334 614 315 585 q 353 707 353 643 q 334 799 353 772 q 265 825 315 825 q 194 799 215 825 q 174 707 174 772 q 194 614 174 643 q 265 585 215 585 z "},"π":{"ha":776,"x_min":31,"x_max":736,"o":"m 724 -6 q 577 13 628 -6 q 508 78 526 31 q 489 214 490 125 l 489 626 l 603 628 l 603 222 q 613 142 603 169 q 649 105 622 115 q 724 94 675 94 l 724 -6 m 133 0 l 178 624 l 289 624 l 250 0 l 133 0 m 31 574 l 31 674 q 80 683 49 679 q 150 691 111 688 q 229 694 189 694 l 554 694 q 626 698 592 694 q 690 706 661 701 q 736 714 719 710 l 736 614 q 660 597 715 604 q 522 596 604 590 l 504 592 l 242 592 l 210 583 q 115 588 167 593 q 31 574 63 582 z "},"ء":{"ha":763,"x_min":56,"x_max":707,"o":"m 232 21 q 149 146 176 83 q 122 281 122 208 q 148 409 122 350 q 219 511 174 468 q 324 578 264 554 q 453 601 383 601 q 553 588 504 601 q 642 549 601 574 l 578 458 q 454 494 522 494 q 344 467 392 494 q 268 391 296 439 q 240 281 240 343 q 260 185 240 231 q 321 92 279 139 l 232 21 m 56 0 l 56 107 l 707 107 l 707 0 l 56 0 z "},"ا":{"ha":382,"x_min":132,"x_max":250,"o":"m 132 0 l 132 994 l 250 994 l 250 0 l 132 0 z "},"ﺎ":{"ha":418,"x_min":132,"x_max":446,"o":"m 250 0 l 250 107 l 418 107 l 418 0 l 250 0 m 132 0 l 132 994 l 250 994 l 250 0 l 132 0 m 418 0 l 418 107 q 441 93 436 107 q 446 54 446 79 q 441 15 446 31 q 418 0 436 0 z "},"أ":{"ha":382,"x_min":50,"x_max":332,"o":"m 132 0 l 132 994 l 250 994 l 250 0 l 132 0 m 124 1089 q 89 1144 101 1117 q 76 1200 76 1171 q 97 1274 76 1242 q 153 1326 118 1307 q 228 1344 188 1344 q 273 1338 250 1344 q 313 1321 296 1332 l 275 1254 q 253 1263 264 1261 q 232 1265 243 1265 q 181 1247 200 1265 q 163 1200 163 1229 q 170 1167 163 1183 q 193 1131 178 1150 l 124 1089 m 50 1088 l 50 1165 l 332 1165 l 332 1088 l 50 1088 z "},"ﺄ":{"ha":418,"x_min":50,"x_max":446,"o":"m 250 0 l 250 107 l 418 107 l 418 0 l 250 0 m 132 0 l 132 994 l 250 994 l 250 0 l 132 0 m 418 0 l 418 107 q 441 93 436 107 q 446 54 446 79 q 441 15 446 31 q 418 0 436 0 m 124 1089 q 89 1144 101 1117 q 76 1200 76 1171 q 97 1274 76 1242 q 153 1326 118 1307 q 228 1344 188 1344 q 273 1338 250 1344 q 313 1321 296 1332 l 275 1254 q 253 1263 264 1261 q 232 1265 243 1265 q 181 1247 200 1265 q 163 1200 163 1229 q 170 1167 163 1183 q 193 1131 178 1150 l 124 1089 m 50 1088 l 50 1165 l 332 1165 l 332 1088 l 50 1088 z "},"إ":{"ha":382,"x_min":50,"x_max":332,"o":"m 132 0 l 132 994 l 250 994 l 250 0 l 132 0 m 124 -379 q 89 -324 101 -351 q 76 -268 76 -297 q 97 -194 76 -226 q 153 -142 118 -161 q 228 -124 188 -124 q 273 -130 250 -124 q 313 -147 296 -136 l 275 -214 q 253 -205 264 -207 q 232 -203 243 -203 q 181 -221 200 -203 q 163 -268 163 -239 q 170 -301 163 -285 q 193 -337 178 -318 l 124 -379 m 50 -381 l 50 -303 l 332 -303 l 332 -381 l 50 -381 z "},"ﺈ":{"ha":418,"x_min":50,"x_max":446,"o":"m 250 0 l 250 107 l 418 107 l 418 0 l 250 0 m 132 0 l 132 994 l 250 994 l 250 0 l 132 0 m 418 0 l 418 107 q 441 93 436 107 q 446 54 446 79 q 441 15 446 31 q 418 0 436 0 m 124 -379 q 89 -324 101 -351 q 76 -268 76 -297 q 97 -194 76 -226 q 153 -142 118 -161 q 228 -124 188 -124 q 273 -130 250 -124 q 313 -147 296 -136 l 275 -214 q 253 -205 264 -207 q 232 -203 243 -203 q 181 -221 200 -203 q 163 -268 163 -239 q 170 -301 163 -285 q 193 -337 178 -318 l 124 -379 m 50 -381 l 50 -303 l 332 -303 l 332 -381 l 50 -381 z "},"آ":{"ha":382,"x_min":13,"x_max":360,"o":"m 132 0 l 132 994 l 250 994 l 250 0 l 132 0 m 60 1085 l 13 1122 l 75 1210 l 151 1210 q 190 1185 165 1193 q 236 1176 214 1176 q 283 1184 261 1176 q 319 1207 304 1192 l 360 1174 q 326 1133 346 1151 q 279 1103 306 1114 q 219 1092 253 1092 q 159 1102 189 1092 q 108 1132 129 1113 l 60 1085 z "},"ﺂ":{"ha":418,"x_min":13,"x_max":446,"o":"m 250 0 l 250 107 l 418 107 l 418 0 l 250 0 m 132 0 l 132 994 l 250 994 l 250 0 l 132 0 m 418 0 l 418 107 q 441 93 436 107 q 446 54 446 79 q 441 15 446 31 q 418 0 436 0 m 60 1085 l 13 1122 l 75 1210 l 151 1210 q 190 1185 165 1193 q 236 1176 214 1176 q 283 1184 261 1176 q 319 1207 304 1192 l 360 1174 q 326 1133 346 1151 q 279 1103 306 1114 q 219 1092 253 1092 q 159 1102 189 1092 q 108 1132 129 1113 l 60 1085 z "},"ٱ":{"ha":382,"x_min":24,"x_max":358,"o":"m 132 0 l 132 994 l 250 994 l 250 0 l 132 0 m 64 1158 q 83 1232 64 1200 q 137 1281 103 1264 q 211 1299 171 1299 q 285 1281 251 1299 q 338 1232 318 1264 q 358 1158 358 1200 l 281 1158 q 261 1207 281 1188 q 211 1226 242 1226 q 160 1207 181 1226 q 140 1158 140 1188 l 64 1158 m 22 1086 l 22 1158 l 358 1158 l 358 1086 l 22 1086 z "},"ﭑ":{"ha":418,"x_min":24,"x_max":446,"o":"m 250 0 l 250 107 l 418 107 l 418 0 l 250 0 m 132 0 l 132 994 l 250 994 l 250 0 l 132 0 m 418 0 l 418 107 q 441 93 436 107 q 446 54 446 79 q 441 15 446 31 q 418 0 436 0 m 64 1158 q 83 1232 64 1200 q 137 1281 103 1264 q 211 1299 171 1299 q 285 1281 251 1299 q 338 1232 318 1264 q 358 1158 358 1200 l 281 1158 q 261 1207 281 1188 q 211 1226 242 1226 q 160 1207 181 1226 q 140 1158 140 1188 l 64 1158 m 22 1086 l 22 1158 l 358 1158 l 358 1086 l 22 1086 z "},"ٮ":{"ha":1107,"x_min":56,"x_max":997,"o":"m 474 0 q 160 74 265 0 q 56 303 56 149 q 60 374 56 336 q 72 449 65 413 q 85 513 79 486 q 92 550 90 540 l 207 528 q 195 468 203 507 q 181 386 188 429 q 175 303 175 343 q 204 190 175 233 q 299 126 233 146 q 475 107 365 107 l 879 107 l 879 694 l 997 694 l 997 0 l 474 0 z "},"ب":{"ha":1107,"x_min":56,"x_max":997,"o":"m 474 0 q 160 74 265 0 q 56 303 56 149 q 60 374 56 336 q 72 449 65 413 q 85 513 79 486 q 92 550 90 540 l 207 528 q 195 468 203 507 q 181 386 188 429 q 175 303 175 343 q 204 190 175 233 q 299 126 233 146 q 475 107 365 107 l 879 107 l 879 694 l 997 694 l 997 0 l 474 0 m 469 -257 l 469 -128 l 589 -128 l 589 -257 l 469 -257 z "},"ﺐ":{"ha":1147,"x_min":56,"x_max":1175,"o":"m 997 0 l 997 107 l 1147 107 l 1147 0 l 997 0 m 474 0 q 160 74 265 0 q 56 303 56 149 q 60 374 56 336 q 72 449 65 413 q 85 513 79 486 q 92 550 90 540 l 207 528 q 195 468 203 507 q 181 386 188 429 q 175 303 175 343 q 204 190 175 233 q 299 126 233 146 q 475 107 365 107 l 879 107 l 879 694 l 997 694 l 997 0 l 474 0 m 1147 0 l 1147 107 q 1170 93 1165 107 q 1175 54 1175 79 q 1170 15 1175 31 q 1147 0 1165 0 m 469 -257 l 469 -128 l 589 -128 l 589 -257 l 469 -257 z "},"ﺒ":{"ha":418,"x_min":-28,"x_max":446,"o":"m 268 0 l 268 107 l 418 107 l 418 0 l 268 0 m 0 0 l 0 107 l 207 107 l 150 60 l 150 694 l 268 694 l 268 0 l 0 0 m 0 0 q -23 15 -18 0 q -28 54 -28 31 q -23 93 -28 79 q 0 107 -18 107 l 0 0 m 418 0 l 418 107 q 441 93 436 107 q 446 54 446 79 q 441 15 446 31 q 418 0 436 0 m 150 -257 l 150 -128 l 269 -128 l 269 -257 l 150 -257 z "},"ﺑ":{"ha":379,"x_min":-28,"x_max":268,"o":"m 0 0 l 0 107 l 207 107 l 150 60 l 150 694 l 268 694 l 268 0 l 0 0 m 0 0 q -23 15 -18 0 q -28 54 -28 31 q -23 93 -28 79 q 0 107 -18 107 l 0 0 m 150 -257 l 150 -128 l 269 -128 l 269 -257 l 150 -257 z "},"پ":{"ha":1107,"x_min":56,"x_max":997,"o":"m 475 -312 l 583 -312 l 583 -433 l 475 -433 l 475 -312 m 369 -125 l 488 -125 l 488 -256 l 369 -256 l 369 -125 m 568 -125 l 686 -125 l 686 -256 l 568 -256 l 568 -125 m 474 0 q 160 74 265 0 q 56 303 56 149 q 60 374 56 336 q 72 449 65 413 q 85 513 79 486 q 92 550 90 540 l 207 528 q 195 468 203 507 q 181 386 188 429 q 175 303 175 343 q 204 190 175 233 q 299 126 233 146 q 475 107 365 107 l 879 107 l 879 694 l 997 694 l 997 0 l 474 0 z "},"ﭗ":{"ha":1147,"x_min":56,"x_max":1175,"o":"m 475 -312 l 583 -312 l 583 -433 l 475 -433 l 475 -312 m 369 -125 l 488 -125 l 488 -256 l 369 -256 l 369 -125 m 568 -125 l 686 -125 l 686 -256 l 568 -256 l 568 -125 m 997 0 l 997 107 l 1147 107 l 1147 0 l 997 0 m 474 0 q 160 74 265 0 q 56 303 56 149 q 60 374 56 336 q 72 449 65 413 q 85 513 79 486 q 92 550 90 540 l 207 528 q 195 468 203 507 q 181 386 188 429 q 175 303 175 343 q 204 190 175 233 q 299 126 233 146 q 475 107 365 107 l 879 107 l 879 694 l 997 694 l 997 0 l 474 0 m 1147 0 l 1147 107 q 1170 93 1165 107 q 1175 54 1175 79 q 1170 15 1175 31 q 1147 0 1165 0 z "},"ﭙ":{"ha":425,"x_min":-28,"x_max":460,"o":"m 160 -274 l 268 -274 l 268 -394 l 160 -394 l 160 -274 m 54 -86 l 172 -86 l 172 -215 l 54 -215 l 54 -86 m 254 -86 l 372 -86 l 372 -215 l 254 -215 l 254 -86 m 279 0 l 279 107 l 432 107 l 432 0 l 279 0 m 432 0 l 432 107 q 455 93 450 107 q 460 54 460 79 q 455 15 460 31 q 432 0 450 0 m 0 0 l 0 107 l 218 107 l 160 60 l 160 694 l 279 694 l 279 0 l 0 0 m 0 0 q -23 15 -18 0 q -28 54 -28 31 q -23 93 -28 79 q 0 107 -18 107 l 0 0 z "},"ﭘ":{"ha":390,"x_min":-28,"x_max":371,"o":"m 158 -312 l 267 -312 l 267 -433 l 158 -433 l 158 -312 m 54 -125 l 172 -125 l 172 -256 l 54 -256 l 54 -125 m 253 -125 l 371 -125 l 371 -256 l 253 -256 l 253 -125 m 0 0 l 0 107 l 218 107 l 160 60 l 160 694 l 279 694 l 279 0 l 0 0 m 0 0 q -23 15 -18 0 q -28 54 -28 31 q -23 93 -28 79 q 0 107 -18 107 l 0 0 z "},"ﯩ":{"ha":418,"x_min":-28,"x_max":446,"o":"m 268 0 l 268 107 l 418 107 l 418 0 l 268 0 m 0 0 l 0 107 l 207 107 l 150 60 l 150 694 l 268 694 l 268 0 l 0 0 m 0 0 q -23 15 -18 0 q -28 54 -28 31 q -23 93 -28 79 q 0 107 -18 107 l 0 0 m 418 0 l 418 107 q 441 93 436 107 q 446 54 446 79 q 441 15 446 31 q 418 0 436 0 z "},"ﯨ":{"ha":379,"x_min":-28,"x_max":268,"o":"m 0 0 l 0 107 l 207 107 l 150 60 l 150 694 l 268 694 l 268 0 l 0 0 m 0 0 q -23 15 -18 0 q -28 54 -28 31 q -23 93 -28 79 q 0 107 -18 107 l 0 0 z "},"ت":{"ha":1097,"x_min":56,"x_max":997,"o":"m 474 0 q 160 74 265 0 q 56 303 56 149 q 60 374 56 336 q 72 449 65 413 q 85 513 79 486 q 92 550 90 540 l 207 528 q 195 468 203 507 q 181 386 188 429 q 175 303 175 343 q 204 190 175 233 q 299 126 233 146 q 475 107 365 107 l 879 107 l 879 694 l 997 694 l 997 0 l 474 0 m 372 679 l 372 808 l 492 808 l 492 679 l 372 679 m 563 679 l 563 808 l 682 808 l 682 679 l 563 679 z "},"ﺖ":{"ha":1135,"x_min":56,"x_max":1175,"o":"m 997 0 l 997 107 l 1147 107 l 1147 0 l 997 0 m 474 0 q 160 74 265 0 q 56 303 56 149 q 60 374 56 336 q 72 449 65 413 q 85 513 79 486 q 92 550 90 540 l 207 528 q 195 468 203 507 q 181 386 188 429 q 175 303 175 343 q 204 190 175 233 q 299 126 233 146 q 475 107 365 107 l 879 107 l 879 694 l 997 694 l 997 0 l 474 0 m 1147 0 l 1147 107 q 1170 93 1165 107 q 1175 54 1175 79 q 1170 15 1175 31 q 1147 0 1165 0 m 372 679 l 372 808 l 492 808 l 492 679 l 372 679 m 563 679 l 563 808 l 682 808 l 682 679 l 563 679 z "},"ﺘ":{"ha":408,"x_min":-28,"x_max":460,"o":"m 279 0 l 279 107 l 432 107 l 432 0 l 279 0 m 432 0 l 432 107 q 455 93 450 107 q 460 54 460 79 q 455 15 460 31 q 432 0 450 0 m 0 0 l 0 107 l 218 107 l 160 60 l 160 694 l 279 694 l 279 0 l 0 0 m 0 0 q -23 15 -18 0 q -28 54 -28 31 q -23 93 -28 79 q 0 107 -18 107 l 0 0 m 56 814 l 56 943 l 175 943 l 175 814 l 56 814 m 246 814 l 246 943 l 365 943 l 365 814 l 246 814 z "},"ﺗ":{"ha":371,"x_min":-28,"x_max":365,"o":"m 0 0 l 0 107 l 218 107 l 160 60 l 160 694 l 279 694 l 279 0 l 0 0 m 0 0 q -23 15 -18 0 q -28 54 -28 31 q -23 93 -28 79 q 0 107 -18 107 l 0 0 m 56 814 l 56 943 l 175 943 l 175 814 l 56 814 m 246 814 l 246 943 l 365 943 l 365 814 l 246 814 z "},"ث":{"ha":1107,"x_min":56,"x_max":997,"o":"m 474 0 q 160 74 265 0 q 56 303 56 149 q 60 374 56 336 q 72 449 65 413 q 85 513 79 486 q 92 550 90 540 l 207 528 q 195 468 203 507 q 181 386 188 429 q 175 303 175 343 q 204 190 175 233 q 299 126 233 146 q 475 107 365 107 l 879 107 l 879 694 l 997 694 l 997 0 l 474 0 m 472 878 l 472 999 l 581 999 l 581 878 l 472 878 m 368 690 l 368 819 l 486 819 l 486 690 l 368 690 m 567 690 l 567 819 l 685 819 l 685 690 l 567 690 z "},"ﺚ":{"ha":1147,"x_min":56,"x_max":1175,"o":"m 997 0 l 997 107 l 1147 107 l 1147 0 l 997 0 m 474 0 q 160 74 265 0 q 56 303 56 149 q 60 374 56 336 q 72 449 65 413 q 85 513 79 486 q 92 550 90 540 l 207 528 q 195 468 203 507 q 181 386 188 429 q 175 303 175 343 q 204 190 175 233 q 299 126 233 146 q 475 107 365 107 l 879 107 l 879 694 l 997 694 l 997 0 l 474 0 m 1147 0 l 1147 107 q 1170 93 1165 107 q 1175 54 1175 79 q 1170 15 1175 31 q 1147 0 1165 0 m 472 878 l 472 999 l 581 999 l 581 878 l 472 878 m 368 690 l 368 819 l 486 819 l 486 690 l 368 690 m 567 690 l 567 819 l 685 819 l 685 690 l 567 690 z "},"ﺜ":{"ha":432,"x_min":-28,"x_max":460,"o":"m 279 0 l 279 107 l 432 107 l 432 0 l 279 0 m 432 0 l 432 107 q 455 93 450 107 q 460 54 460 79 q 455 15 460 31 q 432 0 450 0 m 0 0 l 0 107 l 218 107 l 160 60 l 160 694 l 279 694 l 279 0 l 0 0 m 0 0 q -23 15 -18 0 q -28 54 -28 31 q -23 93 -28 79 q 0 107 -18 107 l 0 0 m 164 1007 l 164 1128 l 272 1128 l 272 1007 l 164 1007 m 60 819 l 60 949 l 178 949 l 178 819 l 60 819 m 258 819 l 258 949 l 376 949 l 376 819 l 258 819 z "},"ﺛ":{"ha":390,"x_min":-28,"x_max":378,"o":"m 0 0 l 0 107 l 218 107 l 160 60 l 160 694 l 279 694 l 279 0 l 0 0 m 0 0 q -23 15 -18 0 q -28 54 -28 31 q -23 93 -28 79 q 0 107 -18 107 l 0 0 m 164 1007 l 164 1128 l 272 1128 l 272 1007 l 164 1007 m 60 819 l 60 949 l 178 949 l 178 819 l 60 819 m 258 819 l 258 949 l 376 949 l 376 819 l 258 819 z "},"ٹ":{"ha":1107,"x_min":56,"x_max":997,"o":"m 474 0 q 160 74 265 0 q 56 303 56 149 q 60 374 56 336 q 72 449 65 413 q 85 513 79 486 q 92 550 90 540 l 207 528 q 195 468 203 507 q 181 386 188 429 q 175 303 175 343 q 204 190 175 233 q 299 126 233 146 q 475 107 365 107 l 879 107 l 879 694 l 997 694 l 997 0 l 474 0 m 399 767 q 418 840 399 808 q 472 889 438 871 q 546 907 506 907 q 619 889 586 907 q 673 840 653 871 q 693 767 693 808 l 615 767 q 596 815 615 796 q 546 835 576 835 q 488 815 515 835 q 461 767 461 796 l 399 767 m 357 694 l 357 767 l 693 767 l 693 694 l 357 694 m 399 767 l 399 964 l 475 964 l 475 767 l 399 767 z "},"ﭧ":{"ha":1147,"x_min":56,"x_max":1175,"o":"m 997 0 l 997 107 l 1147 107 l 1147 0 l 997 0 m 474 0 q 160 74 265 0 q 56 303 56 149 q 60 374 56 336 q 72 449 65 413 q 85 513 79 486 q 92 550 90 540 l 207 528 q 195 468 203 507 q 181 386 188 429 q 175 303 175 343 q 204 190 175 233 q 299 126 233 146 q 475 107 365 107 l 879 107 l 879 694 l 997 694 l 997 0 l 474 0 m 1147 0 l 1147 107 q 1170 93 1165 107 q 1175 54 1175 79 q 1170 15 1175 31 q 1147 0 1165 0 m 399 767 q 418 840 399 808 q 472 889 438 871 q 546 907 506 907 q 619 889 586 907 q 673 840 653 871 q 693 767 693 808 l 615 767 q 596 815 615 796 q 546 835 576 835 q 488 815 515 835 q 461 767 461 796 l 399 767 m 357 694 l 357 767 l 693 767 l 693 694 l 357 694 m 399 767 l 399 964 l 475 964 l 475 767 l 399 767 z "},"ﭩ":{"ha":418,"x_min":-28,"x_max":446,"o":"m 268 0 l 268 107 l 418 107 l 418 0 l 268 0 m 0 0 l 0 107 l 207 107 l 150 60 l 150 694 l 268 694 l 268 0 l 0 0 m 0 0 q -23 15 -18 0 q -28 54 -28 31 q -23 93 -28 79 q 0 107 -18 107 l 0 0 m 418 0 l 418 107 q 441 93 436 107 q 446 54 446 79 q 441 15 446 31 q 418 0 436 0 m 82 892 q 101 965 82 933 q 155 1014 121 996 q 229 1032 189 1032 q 303 1014 269 1032 q 356 965 336 996 q 376 892 376 933 l 299 892 q 279 940 299 921 q 229 960 260 960 q 172 940 199 960 q 144 892 144 921 l 82 892 m 40 819 l 40 892 l 376 892 l 376 819 l 40 819 m 82 892 l 82 1089 l 158 1089 l 158 892 l 82 892 z "},"ﭨ":{"ha":383,"x_min":-28,"x_max":378,"o":"m 0 0 l 0 107 l 218 107 l 160 60 l 160 694 l 279 694 l 279 0 l 0 0 m 0 0 q -23 15 -18 0 q -28 54 -28 31 q -23 93 -28 79 q 0 107 -18 107 l 0 0 m 83 894 q 103 967 83 936 q 156 1017 122 999 q 231 1035 190 1035 q 304 1017 271 1035 q 358 967 338 999 q 378 894 378 936 l 300 894 q 281 943 300 924 q 231 963 261 963 q 173 943 200 963 q 146 894 146 924 l 83 894 m 42 822 l 42 894 l 378 894 l 378 822 l 42 822 m 83 894 l 83 1092 l 160 1092 l 160 894 l 83 894 z "},"ج":{"ha":811,"x_min":56,"x_max":728,"o":"m 476 -233 l 476 -121 l 574 -121 l 574 -233 l 476 -233 m 390 -443 q 212 -411 288 -443 q 96 -317 136 -379 q 56 -167 56 -254 q 96 -18 56 -79 q 212 75 136 43 q 392 107 288 107 l 611 107 l 611 407 q 554 542 611 497 q 383 586 497 586 q 281 580 347 586 q 139 563 214 574 l 126 660 q 251 684 183 674 q 383 694 319 694 q 567 661 489 694 q 686 564 644 628 q 728 407 728 500 l 728 0 l 392 0 q 227 -42 279 0 q 175 -168 175 -85 q 227 -293 175 -250 q 390 -336 279 -336 q 447 -333 415 -336 q 522 -325 478 -331 l 540 -426 q 468 -438 507 -433 q 390 -443 429 -443 z "},"ﺞ":{"ha":878,"x_min":56,"x_max":906,"o":"m 476 -232 l 476 -121 l 574 -121 l 574 -232 l 476 -232 m 728 0 l 728 107 l 878 107 l 878 0 l 728 0 m 878 0 l 878 107 q 901 93 896 107 q 906 54 906 79 q 901 15 906 31 q 878 0 896 0 m 390 -443 q 212 -411 288 -443 q 96 -317 136 -379 q 56 -167 56 -254 q 96 -18 56 -79 q 212 75 136 43 q 392 107 288 107 l 611 107 l 611 407 q 554 542 611 497 q 383 586 497 586 q 281 580 347 586 q 139 563 214 574 l 126 660 q 251 684 183 674 q 383 694 319 694 q 567 661 489 694 q 686 564 644 628 q 728 407 728 500 l 728 0 l 392 0 q 227 -42 279 0 q 175 -168 175 -85 q 227 -293 175 -250 q 390 -336 279 -336 q 447 -333 415 -336 q 522 -325 478 -331 l 540 -426 q 468 -438 507 -433 q 390 -443 429 -443 z "},"ﺠ":{"ha":842,"x_min":-28,"x_max":869,"o":"m 692 0 l 692 107 l 842 107 l 842 0 l 692 0 m 0 0 l 0 107 l 610 107 l 574 75 l 574 407 q 517 542 574 497 q 347 586 461 586 q 245 580 311 586 q 106 564 179 574 l 92 660 q 216 684 149 674 q 347 694 283 694 q 531 661 453 694 q 650 564 608 628 q 692 407 692 500 l 692 0 l 0 0 m 0 0 q -23 15 -18 0 q -28 54 -28 31 q -23 93 -28 79 q 0 107 -18 107 l 0 0 m 842 0 l 842 107 q 865 93 860 107 q 869 54 869 79 q 865 15 869 31 q 842 0 860 0 m 290 -257 l 290 -128 l 410 -128 l 410 -257 l 290 -257 z "},"ﺟ":{"ha":775,"x_min":-28,"x_max":692,"o":"m 0 0 l 0 107 l 610 107 l 574 75 l 574 407 q 517 542 574 497 q 347 586 461 586 q 245 580 311 586 q 106 564 179 574 l 92 660 q 216 684 149 674 q 347 694 283 694 q 531 661 453 694 q 650 564 608 628 q 692 407 692 500 l 692 0 l 0 0 m 0 0 q -23 15 -18 0 q -28 54 -28 31 q -23 93 -28 79 q 0 107 -18 107 l 0 0 m 290 -257 l 290 -128 l 410 -128 l 410 -257 l 290 -257 z "},"چ":{"ha":811,"x_min":56,"x_max":728,"o":"m 467 -190 l 532 -190 l 532 -265 l 467 -265 l 467 -190 m 525 -74 l 597 -74 l 597 -154 l 525 -154 l 525 -74 m 401 -74 l 475 -74 l 475 -154 l 401 -154 l 401 -74 m 390 -443 q 212 -411 288 -443 q 96 -317 136 -379 q 56 -167 56 -254 q 96 -18 56 -79 q 212 75 136 43 q 392 107 288 107 l 611 107 l 611 407 q 554 542 611 497 q 383 586 497 586 q 281 580 347 586 q 139 563 214 574 l 126 660 q 251 684 183 674 q 383 694 319 694 q 567 661 489 694 q 686 564 644 628 q 728 407 728 500 l 728 0 l 392 0 q 227 -42 279 0 q 175 -168 175 -85 q 227 -293 175 -250 q 390 -336 279 -336 q 447 -333 415 -336 q 522 -325 478 -331 l 540 -426 q 468 -438 507 -433 q 390 -443 429 -443 z "},"ﭻ":{"ha":878,"x_min":56,"x_max":906,"o":"m 467 -190 l 532 -190 l 532 -265 l 467 -265 l 467 -190 m 525 -74 l 597 -74 l 597 -154 l 525 -154 l 525 -74 m 401 -74 l 475 -74 l 475 -154 l 401 -154 l 401 -74 m 728 0 l 728 107 l 878 107 l 878 0 l 728 0 m 878 0 l 878 107 q 901 93 896 107 q 906 54 906 79 q 901 15 906 31 q 878 0 896 0 m 390 -443 q 212 -411 288 -443 q 96 -317 136 -379 q 56 -167 56 -254 q 96 -18 56 -79 q 212 75 136 43 q 392 107 288 107 l 611 107 l 611 407 q 554 542 611 497 q 383 586 497 586 q 281 580 347 586 q 139 563 214 574 l 126 660 q 251 684 183 674 q 383 694 319 694 q 567 661 489 694 q 686 564 644 628 q 728 407 728 500 l 728 0 l 392 0 q 227 -42 279 0 q 175 -168 175 -85 q 227 -293 175 -250 q 390 -336 279 -336 q 447 -333 415 -336 q 522 -325 478 -331 l 540 -426 q 468 -438 507 -433 q 390 -443 429 -443 z "},"ﭽ":{"ha":842,"x_min":-28,"x_max":869,"o":"m 296 -312 l 404 -312 l 404 -433 l 296 -433 l 296 -312 m 192 -125 l 310 -125 l 310 -256 l 192 -256 l 192 -125 m 390 -125 l 508 -125 l 508 -256 l 390 -256 l 390 -125 m 692 0 l 692 107 l 842 107 l 842 0 l 692 0 m 0 0 l 0 107 l 610 107 l 574 75 l 574 407 q 517 542 574 497 q 347 586 461 586 q 245 580 311 586 q 106 564 179 574 l 92 660 q 216 684 149 674 q 347 694 283 694 q 531 661 453 694 q 650 564 608 628 q 692 407 692 500 l 692 0 l 0 0 m 0 0 q -23 15 -18 0 q -28 54 -28 31 q -23 93 -28 79 q 0 107 -18 107 l 0 0 m 842 0 l 842 107 q 865 93 860 107 q 869 54 869 79 q 865 15 869 31 q 842 0 860 0 z "},"ﭼ":{"ha":775,"x_min":-28,"x_max":692,"o":"m 296 -312 l 404 -312 l 404 -433 l 296 -433 l 296 -312 m 192 -125 l 310 -125 l 310 -256 l 192 -256 l 192 -125 m 390 -125 l 508 -125 l 508 -256 l 390 -256 l 390 -125 m 0 0 l 0 107 l 610 107 l 574 75 l 574 407 q 517 542 574 497 q 347 586 461 586 q 245 580 311 586 q 106 564 179 574 l 92 660 q 216 684 149 674 q 347 694 283 694 q 531 661 453 694 q 650 564 608 628 q 692 407 692 500 l 692 0 l 0 0 m 0 0 q -23 15 -18 0 q -28 54 -28 31 q -23 93 -28 79 q 0 107 -18 107 l 0 0 z "},"ح":{"ha":811,"x_min":56,"x_max":728,"o":"m 597 -318 l 615 -414 q 495 -435 550 -428 q 390 -443 440 -443 q 212 -411 288 -443 q 96 -317 136 -379 q 56 -167 56 -254 q 96 -18 56 -79 q 212 75 136 43 q 392 107 288 107 l 611 107 l 611 0 l 392 0 q 227 -42 279 0 q 175 -168 175 -85 q 227 -293 175 -250 q 390 -336 279 -336 q 475 -332 425 -336 q 597 -318 525 -328 m 139 563 l 126 660 q 251 684 183 674 q 383 694 319 694 q 567 661 489 694 q 686 564 644 628 q 728 407 728 500 l 728 0 l 611 0 l 611 407 q 554 542 611 497 q 383 586 497 586 q 281 580 347 586 q 139 563 214 574 z "},"ﺢ":{"ha":878,"x_min":56,"x_max":906,"o":"m 728 0 l 728 107 l 878 107 l 878 0 l 728 0 m 597 -318 l 615 -414 q 495 -435 550 -428 q 390 -443 440 -443 q 212 -411 288 -443 q 96 -317 136 -379 q 56 -167 56 -254 q 96 -18 56 -79 q 212 75 136 43 q 392 107 288 107 l 611 107 l 611 0 l 392 0 q 227 -42 279 0 q 175 -168 175 -85 q 227 -293 175 -250 q 390 -336 279 -336 q 475 -332 425 -336 q 597 -318 525 -328 m 139 563 l 126 660 q 251 684 183 674 q 383 694 319 694 q 567 661 489 694 q 686 564 644 628 q 728 407 728 500 l 728 0 l 611 0 l 611 407 q 554 542 611 497 q 383 586 497 586 q 281 580 347 586 q 139 563 214 574 m 878 0 l 878 107 q 901 93 896 107 q 906 54 906 79 q 901 15 906 31 q 878 0 896 0 z "},"ﺤ":{"ha":842,"x_min":-28,"x_max":869,"o":"m 692 0 l 692 107 l 842 107 l 842 0 l 692 0 m 0 0 l 0 107 l 610 107 l 574 75 l 574 407 q 517 542 574 497 q 347 586 461 586 q 245 580 311 586 q 106 564 179 574 l 92 660 q 216 684 149 674 q 347 694 283 694 q 531 661 453 694 q 650 564 608 628 q 692 407 692 500 l 692 0 l 0 0 m 0 0 q -23 15 -18 0 q -28 54 -28 31 q -23 93 -28 79 q 0 107 -18 107 l 0 0 m 842 0 l 842 107 q 865 93 860 107 q 869 54 869 79 q 865 15 869 31 q 842 0 860 0 z "},"ﺣ":{"ha":775,"x_min":-28,"x_max":692,"o":"m 0 0 l 0 107 l 610 107 l 574 75 l 574 407 q 517 542 574 497 q 347 586 461 586 q 245 580 311 586 q 106 564 179 574 l 92 660 q 216 684 149 674 q 347 694 283 694 q 531 661 453 694 q 650 564 608 628 q 692 407 692 500 l 692 0 l 0 0 m 0 0 q -23 15 -18 0 q -28 54 -28 31 q -23 93 -28 79 q 0 107 -18 107 l 0 0 z "},"خ":{"ha":811,"x_min":56,"x_max":728,"o":"m 597 -318 l 615 -414 q 495 -435 550 -428 q 390 -443 440 -443 q 212 -411 288 -443 q 96 -317 136 -379 q 56 -167 56 -254 q 96 -18 56 -79 q 212 75 136 43 q 392 107 288 107 l 611 107 l 611 0 l 392 0 q 227 -42 279 0 q 175 -168 175 -85 q 227 -293 175 -250 q 390 -336 279 -336 q 475 -332 425 -336 q 597 -318 525 -328 m 139 563 l 126 660 q 251 684 183 674 q 383 694 319 694 q 567 661 489 694 q 686 564 644 628 q 728 407 728 500 l 728 0 l 611 0 l 611 407 q 554 542 611 497 q 383 586 497 586 q 281 580 347 586 q 139 563 214 574 m 324 797 l 324 926 l 443 926 l 443 797 l 324 797 z "},"ﺦ":{"ha":878,"x_min":56,"x_max":906,"o":"m 728 0 l 728 107 l 878 107 l 878 0 l 728 0 m 597 -318 l 615 -414 q 495 -435 550 -428 q 390 -443 440 -443 q 212 -411 288 -443 q 96 -317 136 -379 q 56 -167 56 -254 q 96 -18 56 -79 q 212 75 136 43 q 392 107 288 107 l 611 107 l 611 0 l 392 0 q 227 -42 279 0 q 175 -168 175 -85 q 227 -293 175 -250 q 390 -336 279 -336 q 475 -332 425 -336 q 597 -318 525 -328 m 139 563 l 126 660 q 251 684 183 674 q 383 694 319 694 q 567 661 489 694 q 686 564 644 628 q 728 407 728 500 l 728 0 l 611 0 l 611 407 q 554 542 611 497 q 383 586 497 586 q 281 580 347 586 q 139 563 214 574 m 878 0 l 878 107 q 901 93 896 107 q 906 54 906 79 q 901 15 906 31 q 878 0 896 0 m 324 797 l 324 926 l 443 926 l 443 797 l 324 797 z "},"ﺨ":{"ha":842,"x_min":-28,"x_max":869,"o":"m 692 0 l 692 107 l 842 107 l 842 0 l 692 0 m 0 0 l 0 107 l 610 107 l 574 75 l 574 407 q 517 542 574 497 q 347 586 461 586 q 245 580 311 586 q 106 564 179 574 l 92 660 q 216 684 149 674 q 347 694 283 694 q 531 661 453 694 q 650 564 608 628 q 692 407 692 500 l 692 0 l 0 0 m 0 0 q -23 15 -18 0 q -28 54 -28 31 q -23 93 -28 79 q 0 107 -18 107 l 0 0 m 842 0 l 842 107 q 865 93 860 107 q 869 54 869 79 q 865 15 869 31 q 842 0 860 0 m 288 792 l 288 921 l 407 921 l 407 792 l 288 792 z "},"ﺧ":{"ha":775,"x_min":-28,"x_max":692,"o":"m 0 0 l 0 107 l 610 107 l 574 75 l 574 407 q 517 542 574 497 q 347 586 461 586 q 245 580 311 586 q 106 564 179 574 l 92 660 q 216 684 149 674 q 347 694 283 694 q 531 661 453 694 q 650 564 608 628 q 692 407 692 500 l 692 0 l 0 0 m 0 0 q -23 15 -18 0 q -28 54 -28 31 q -23 93 -28 79 q 0 107 -18 107 l 0 0 m 288 792 l 288 921 l 407 921 l 407 792 l 288 792 z "},"د":{"ha":674,"x_min":56,"x_max":597,"o":"m 56 0 l 56 107 l 572 107 l 478 24 l 478 317 q 455 478 478 419 q 379 563 432 538 q 238 588 326 588 l 125 588 l 125 694 l 238 694 q 432 659 351 694 q 555 541 513 624 q 597 317 597 458 l 597 0 l 56 0 z "},"ﺪ":{"ha":746,"x_min":56,"x_max":774,"o":"m 597 0 l 597 107 l 746 107 l 746 0 l 597 0 m 56 0 l 56 107 l 572 107 l 478 24 l 478 317 q 455 478 478 419 q 379 563 432 538 q 238 588 326 588 l 125 588 l 125 694 l 238 694 q 432 659 351 694 q 555 541 513 624 q 597 317 597 458 l 597 0 l 56 0 m 746 0 l 746 107 q 769 93 764 107 q 774 54 774 79 q 769 15 774 31 q 746 0 764 0 z "},"ذ":{"ha":674,"x_min":56,"x_max":597,"o":"m 56 0 l 56 107 l 572 107 l 478 24 l 478 317 q 455 478 478 419 q 379 563 432 538 q 238 588 326 588 l 125 588 l 125 694 l 238 694 q 432 659 351 694 q 555 541 513 624 q 597 317 597 458 l 597 0 l 56 0 m 157 819 l 157 949 l 276 949 l 276 819 l 157 819 z "},"ﺬ":{"ha":746,"x_min":56,"x_max":774,"o":"m 597 0 l 597 107 l 746 107 l 746 0 l 597 0 m 56 0 l 56 107 l 572 107 l 478 24 l 478 317 q 455 478 478 419 q 379 563 432 538 q 238 588 326 588 l 125 588 l 125 694 l 238 694 q 432 659 351 694 q 555 541 513 624 q 597 317 597 458 l 597 0 l 56 0 m 746 0 l 746 107 q 769 93 764 107 q 774 54 774 79 q 769 15 774 31 q 746 0 764 0 m 157 819 l 157 949 l 276 949 l 276 819 l 157 819 z "},"ڈ":{"ha":674,"x_min":56,"x_max":597,"o":"m 56 0 l 56 107 l 572 107 l 478 24 l 478 317 q 455 478 478 419 q 379 563 432 538 q 238 588 326 588 l 125 588 l 125 694 l 238 694 q 432 659 351 694 q 555 541 513 624 q 597 317 597 458 l 597 0 l 56 0 m 165 894 q 185 967 165 936 q 238 1017 204 999 q 313 1035 272 1035 q 386 1017 353 1035 q 440 967 419 999 q 460 894 460 936 l 382 894 q 363 943 382 924 q 313 963 343 963 q 255 943 282 963 q 228 894 228 924 l 165 894 m 124 822 l 124 894 l 460 894 l 460 822 l 124 822 m 165 894 l 165 1092 l 242 1092 l 242 894 l 165 894 z "},"ﮉ":{"ha":746,"x_min":56,"x_max":774,"o":"m 597 0 l 597 107 l 746 107 l 746 0 l 597 0 m 56 0 l 56 107 l 572 107 l 478 24 l 478 317 q 455 478 478 419 q 379 563 432 538 q 238 588 326 588 l 125 588 l 125 694 l 238 694 q 432 659 351 694 q 555 541 513 624 q 597 317 597 458 l 597 0 l 56 0 m 746 0 l 746 107 q 769 93 764 107 q 774 54 774 79 q 769 15 774 31 q 746 0 764 0 m 165 894 q 185 967 165 936 q 238 1017 204 999 q 313 1035 272 1035 q 386 1017 353 1035 q 440 967 419 999 q 460 894 460 936 l 382 894 q 363 943 382 924 q 313 963 343 963 q 255 943 282 963 q 228 894 228 924 l 165 894 m 124 822 l 124 894 l 460 894 l 460 822 l 124 822 m 165 894 l 165 1092 l 242 1092 l 242 894 l 165 894 z "},"ر":{"ha":376,"x_min":-60,"x_max":279,"o":"m 18 -312 q -20 -310 0 -312 q -60 -307 -40 -308 l -49 -200 q -12 -203 -29 -201 q 18 -206 6 -206 q 121 -157 82 -206 q 160 -22 160 -108 l 160 694 l 279 694 l 279 -22 q 246 -174 279 -108 q 153 -276 213 -240 q 18 -312 94 -312 z "},"ﺮ":{"ha":428,"x_min":-60,"x_max":456,"o":"m 250 0 l 250 107 l 428 107 l 428 0 l 250 0 m 18 -312 q -20 -310 0 -312 q -60 -307 -40 -308 l -49 -200 q -12 -203 -29 -201 q 18 -206 6 -206 q 121 -157 82 -206 q 160 -22 160 -108 l 160 694 l 279 694 l 279 -22 q 246 -174 279 -108 q 153 -276 213 -240 q 18 -312 94 -312 m 428 0 l 428 107 q 451 93 446 107 q 456 54 456 79 q 451 15 456 31 q 428 0 446 0 z "},"ز":{"ha":376,"x_min":-60,"x_max":279,"o":"m 18 -312 q -20 -310 0 -312 q -60 -307 -40 -308 l -49 -200 q -12 -203 -29 -201 q 18 -206 6 -206 q 121 -157 82 -206 q 160 -22 160 -108 l 160 694 l 279 694 l 279 -22 q 246 -174 279 -108 q 153 -276 213 -240 q 18 -312 94 -312 m 160 819 l 160 949 l 279 949 l 279 819 l 160 819 z "},"ﺰ":{"ha":428,"x_min":-60,"x_max":456,"o":"m 250 0 l 250 107 l 428 107 l 428 0 l 250 0 m 18 -312 q -20 -310 0 -312 q -60 -307 -40 -308 l -49 -200 q -12 -203 -29 -201 q 18 -206 6 -206 q 121 -157 82 -206 q 160 -22 160 -108 l 160 694 l 279 694 l 279 -22 q 246 -174 279 -108 q 153 -276 213 -240 q 18 -312 94 -312 m 428 0 l 428 107 q 451 93 446 107 q 456 54 456 79 q 451 15 456 31 q 428 0 446 0 m 160 819 l 160 949 l 279 949 l 279 819 l 160 819 z "},"ڑ":{"ha":376,"x_min":-60,"x_max":386,"o":"m 18 -312 q -20 -310 0 -312 q -60 -307 -40 -308 l -49 -200 q -12 -203 -29 -201 q 18 -206 6 -206 q 121 -157 82 -206 q 160 -22 160 -108 l 160 694 l 279 694 l 279 -22 q 246 -174 279 -108 q 153 -276 213 -240 q 18 -312 94 -312 m 92 894 q 111 967 92 936 q 165 1017 131 999 q 239 1035 199 1035 q 313 1017 279 1035 q 366 967 346 999 q 386 894 386 936 l 308 894 q 289 943 308 924 q 239 963 269 963 q 181 943 208 963 q 154 894 154 924 l 92 894 m 50 822 l 50 894 l 386 894 l 386 822 l 50 822 m 92 894 l 92 1092 l 168 1092 l 168 894 l 92 894 z "},"ﮍ":{"ha":431,"x_min":-58,"x_max":458,"o":"m 251 0 l 251 107 l 429 107 l 429 0 l 251 0 m 19 -312 q -19 -310 1 -312 q -58 -307 -39 -308 l -47 -200 q -10 -203 -28 -201 q 19 -206 7 -206 q 122 -157 83 -206 q 161 -22 161 -108 l 161 694 l 281 694 l 281 -22 q 247 -174 281 -108 q 155 -276 214 -240 q 19 -312 96 -312 m 429 0 l 429 107 q 452 93 447 107 q 457 54 457 79 q 452 15 457 31 q 429 0 447 0 m 94 894 q 114 967 94 936 q 167 1017 133 999 q 242 1035 201 1035 q 315 1017 282 1035 q 369 967 349 999 q 389 894 389 936 l 311 894 q 292 943 311 924 q 242 963 272 963 q 184 943 211 963 q 157 894 157 924 l 94 894 m 53 822 l 53 894 l 389 894 l 389 822 l 53 822 m 94 894 l 94 1092 l 171 1092 l 171 894 l 94 894 z "},"ژ":{"ha":376,"x_min":-60,"x_max":378,"o":"m 18 -312 q -20 -310 0 -312 q -60 -307 -40 -308 l -49 -200 q -12 -203 -29 -201 q 18 -206 6 -206 q 121 -157 82 -206 q 160 -22 160 -108 l 160 694 l 279 694 l 279 -22 q 246 -174 279 -108 q 153 -276 213 -240 q 18 -312 94 -312 m 165 1007 l 165 1128 l 274 1128 l 274 1007 l 165 1007 m 61 819 l 61 949 l 179 949 l 179 819 l 61 819 m 260 819 l 260 949 l 378 949 l 378 819 l 260 819 z "},"ﮋ":{"ha":428,"x_min":-60,"x_max":456,"o":"m 250 0 l 250 107 l 428 107 l 428 0 l 250 0 m 18 -312 q -20 -310 0 -312 q -60 -307 -40 -308 l -49 -200 q -12 -203 -29 -201 q 18 -206 6 -206 q 121 -157 82 -206 q 160 -22 160 -108 l 160 694 l 279 694 l 279 -22 q 246 -174 279 -108 q 153 -276 213 -240 q 18 -312 94 -312 m 428 0 l 428 107 q 451 93 446 107 q 456 54 456 79 q 451 15 456 31 q 428 0 446 0 m 165 1007 l 165 1128 l 274 1128 l 274 1007 l 165 1007 m 61 819 l 61 949 l 179 949 l 179 819 l 61 819 m 260 819 l 260 949 l 378 949 l 378 819 l 260 819 z "},"س":{"ha":1696,"x_min":56,"x_max":1597,"o":"m 450 -344 q 249 -303 339 -344 q 108 -190 160 -262 q 56 -24 56 -117 q 60 53 56 6 q 73 160 65 101 q 90 278 81 218 q 108 393 100 339 l 225 375 q 199 199 210 281 q 181 61 188 118 q 175 -24 175 4 q 209 -134 175 -86 q 306 -210 243 -182 q 450 -237 368 -237 q 590 -212 532 -237 q 679 -140 649 -186 q 710 -32 710 -93 l 710 556 l 828 556 l 828 -32 q 777 -199 828 -129 q 641 -307 726 -269 q 450 -344 556 -344 m 828 0 l 828 107 l 978 107 q 1050 121 1025 107 q 1085 176 1075 135 q 1094 299 1094 218 l 1094 625 l 1213 625 l 1213 299 q 1188 123 1213 189 q 1113 28 1164 57 q 978 0 1061 0 l 828 0 m 1279 0 q 1184 19 1231 0 q 1094 76 1138 38 l 1171 157 q 1228 119 1203 131 q 1279 107 1254 107 l 1529 107 l 1479 57 l 1479 386 q 1474 456 1479 410 q 1459 559 1468 501 q 1439 675 1450 617 l 1556 694 q 1575 586 1565 646 q 1591 472 1585 526 q 1597 386 1597 418 l 1597 0 l 1279 0 z "},"ﺲ":{"ha":1747,"x_min":56,"x_max":1775,"o":"m 1597 0 l 1597 107 l 1747 107 l 1747 0 l 1597 0 m 450 -344 q 249 -303 339 -344 q 108 -190 160 -262 q 56 -24 56 -117 q 60 53 56 6 q 73 160 65 101 q 90 278 81 218 q 108 393 100 339 l 225 375 q 199 199 210 281 q 181 61 188 118 q 175 -24 175 4 q 209 -134 175 -86 q 306 -210 243 -182 q 450 -237 368 -237 q 590 -212 532 -237 q 679 -140 649 -186 q 710 -32 710 -93 l 710 556 l 828 556 l 828 -32 q 777 -199 828 -129 q 641 -307 726 -269 q 450 -344 556 -344 m 828 0 l 828 107 l 978 107 q 1050 121 1025 107 q 1085 176 1075 135 q 1094 299 1094 218 l 1094 625 l 1213 625 l 1213 299 q 1188 123 1213 189 q 1113 28 1164 57 q 978 0 1061 0 l 828 0 m 1279 0 q 1184 19 1231 0 q 1094 76 1138 38 l 1171 157 q 1228 119 1203 131 q 1279 107 1254 107 l 1529 107 l 1479 57 l 1479 386 q 1474 456 1479 410 q 1459 559 1468 501 q 1439 675 1450 617 l 1556 694 q 1575 586 1565 646 q 1591 472 1585 526 q 1597 386 1597 418 l 1597 0 l 1279 0 m 1747 0 l 1747 107 q 1770 93 1765 107 q 1775 54 1775 79 q 1770 15 1775 31 q 1747 0 1765 0 z "},"ﺴ":{"ha":1211,"x_min":-28,"x_max":1239,"o":"m 1061 0 l 1061 107 l 1211 107 l 1211 0 l 1061 0 m 743 0 q 647 19 694 0 q 558 76 600 38 l 635 157 q 692 119 667 131 q 743 107 717 107 l 992 107 l 942 57 l 942 386 q 937 456 942 410 q 923 559 932 501 q 901 675 914 617 l 1018 694 q 1038 586 1028 646 q 1054 472 1047 526 q 1061 386 1061 418 l 1061 0 l 743 0 m 0 0 l 0 107 l 203 107 l 174 78 l 174 556 l 290 556 l 290 0 l 0 0 m 290 0 l 290 107 l 442 107 q 513 121 489 107 q 547 176 538 135 q 557 299 557 218 l 557 625 l 675 625 l 675 299 q 651 123 675 189 q 576 28 628 57 q 442 0 525 0 l 290 0 m 0 0 q -23 15 -18 0 q -28 54 -28 31 q -23 93 -28 79 q 0 107 -18 107 l 0 0 m 1211 0 l 1211 107 q 1234 93 1229 107 q 1239 54 1239 79 q 1234 15 1239 31 q 1211 0 1229 0 z "},"ﺳ":{"ha":1164,"x_min":-28,"x_max":1061,"o":"m 743 0 q 647 19 694 0 q 558 76 600 38 l 635 157 q 692 119 667 131 q 743 107 717 107 l 992 107 l 942 57 l 942 386 q 937 456 942 410 q 923 559 932 501 q 901 675 914 617 l 1018 694 q 1038 586 1028 646 q 1054 472 1047 526 q 1061 386 1061 418 l 1061 0 l 743 0 m 0 0 l 0 107 l 203 107 l 174 78 l 174 556 l 290 556 l 290 0 l 0 0 m 290 0 l 290 107 l 442 107 q 513 121 489 107 q 547 176 538 135 q 557 299 557 218 l 557 625 l 675 625 l 675 299 q 651 123 675 189 q 576 28 628 57 q 442 0 525 0 l 290 0 m 0 0 q -23 15 -18 0 q -28 54 -28 31 q -23 93 -28 79 q 0 107 -18 107 l 0 0 z "},"ش":{"ha":1696,"x_min":56,"x_max":1597,"o":"m 450 -344 q 249 -303 339 -344 q 108 -190 160 -262 q 56 -24 56 -117 q 60 53 56 6 q 73 160 65 101 q 90 278 81 218 q 108 393 100 339 l 225 375 q 199 199 210 281 q 181 61 188 118 q 175 -24 175 4 q 209 -134 175 -86 q 306 -210 243 -182 q 450 -237 368 -237 q 590 -212 532 -237 q 679 -140 649 -186 q 710 -32 710 -93 l 710 556 l 828 556 l 828 -32 q 777 -199 828 -129 q 641 -307 726 -269 q 450 -344 556 -344 m 828 0 l 828 107 l 978 107 q 1050 121 1025 107 q 1085 176 1075 135 q 1094 299 1094 218 l 1094 625 l 1213 625 l 1213 299 q 1188 123 1213 189 q 1113 28 1164 57 q 978 0 1061 0 l 828 0 m 1279 0 q 1184 19 1231 0 q 1094 76 1138 38 l 1171 157 q 1228 119 1203 131 q 1279 107 1254 107 l 1529 107 l 1479 57 l 1479 386 q 1474 456 1479 410 q 1459 559 1468 501 q 1439 675 1450 617 l 1556 694 q 1575 586 1565 646 q 1591 472 1585 526 q 1597 386 1597 418 l 1597 0 l 1279 0 m 1097 1007 l 1097 1128 l 1206 1128 l 1206 1007 l 1097 1007 m 993 819 l 993 949 l 1111 949 l 1111 819 l 993 819 m 1192 819 l 1192 949 l 1310 949 l 1310 819 l 1192 819 z "},"ﺶ":{"ha":1747,"x_min":56,"x_max":1775,"o":"m 1597 0 l 1597 107 l 1747 107 l 1747 0 l 1597 0 m 450 -344 q 249 -303 339 -344 q 108 -190 160 -262 q 56 -24 56 -117 q 60 53 56 6 q 73 160 65 101 q 90 278 81 218 q 108 393 100 339 l 225 375 q 199 199 210 281 q 181 61 188 118 q 175 -24 175 4 q 209 -134 175 -86 q 306 -210 243 -182 q 450 -237 368 -237 q 590 -212 532 -237 q 679 -140 649 -186 q 710 -32 710 -93 l 710 556 l 828 556 l 828 -32 q 777 -199 828 -129 q 641 -307 726 -269 q 450 -344 556 -344 m 828 0 l 828 107 l 978 107 q 1050 121 1025 107 q 1085 176 1075 135 q 1094 299 1094 218 l 1094 625 l 1213 625 l 1213 299 q 1188 123 1213 189 q 1113 28 1164 57 q 978 0 1061 0 l 828 0 m 1279 0 q 1184 19 1231 0 q 1094 76 1138 38 l 1171 157 q 1228 119 1203 131 q 1279 107 1254 107 l 1529 107 l 1479 57 l 1479 386 q 1474 456 1479 410 q 1459 559 1468 501 q 1439 675 1450 617 l 1556 694 q 1575 586 1565 646 q 1591 472 1585 526 q 1597 386 1597 418 l 1597 0 l 1279 0 m 1747 0 l 1747 107 q 1770 93 1765 107 q 1775 54 1775 79 q 1770 15 1775 31 q 1747 0 1765 0 m 1097 1007 l 1097 1128 l 1206 1128 l 1206 1007 l 1097 1007 m 993 819 l 993 949 l 1111 949 l 1111 819 l 993 819 m 1192 819 l 1192 949 l 1310 949 l 1310 819 l 1192 819 z "},"ﺸ":{"ha":1211,"x_min":-28,"x_max":1239,"o":"m 1061 0 l 1061 107 l 1211 107 l 1211 0 l 1061 0 m 743 0 q 647 19 694 0 q 558 76 600 38 l 635 157 q 692 119 667 131 q 743 107 717 107 l 992 107 l 942 57 l 942 386 q 937 456 942 410 q 923 559 932 501 q 901 675 914 617 l 1018 694 q 1038 586 1028 646 q 1054 472 1047 526 q 1061 386 1061 418 l 1061 0 l 743 0 m 0 0 l 0 107 l 203 107 l 174 78 l 174 556 l 290 556 l 290 0 l 0 0 m 290 0 l 290 107 l 442 107 q 513 121 489 107 q 547 176 538 135 q 557 299 557 218 l 557 625 l 675 625 l 675 299 q 651 123 675 189 q 576 28 628 57 q 442 0 525 0 l 290 0 m 0 0 q -23 15 -18 0 q -28 54 -28 31 q -23 93 -28 79 q 0 107 -18 107 l 0 0 m 1211 0 l 1211 107 q 1234 93 1229 107 q 1239 54 1239 79 q 1234 15 1239 31 q 1211 0 1229 0 m 561 1007 l 561 1128 l 669 1128 l 669 1007 l 561 1007 m 457 819 l 457 949 l 575 949 l 575 819 l 457 819 m 656 819 l 656 949 l 774 949 l 774 819 l 656 819 z "},"ﺷ":{"ha":1164,"x_min":-28,"x_max":1061,"o":"m 743 0 q 647 19 694 0 q 558 76 600 38 l 635 157 q 692 119 667 131 q 743 107 717 107 l 992 107 l 942 57 l 942 386 q 937 456 942 410 q 923 559 932 501 q 901 675 914 617 l 1018 694 q 1038 586 1028 646 q 1054 472 1047 526 q 1061 386 1061 418 l 1061 0 l 743 0 m 0 0 l 0 107 l 203 107 l 174 78 l 174 556 l 290 556 l 290 0 l 0 0 m 290 0 l 290 107 l 442 107 q 513 121 489 107 q 547 176 538 135 q 557 299 557 218 l 557 625 l 675 625 l 675 299 q 651 123 675 189 q 576 28 628 57 q 442 0 525 0 l 290 0 m 0 0 q -23 15 -18 0 q -28 54 -28 31 q -23 93 -28 79 q 0 107 -18 107 l 0 0 m 561 1007 l 561 1128 l 669 1128 l 669 1007 l 561 1007 m 457 819 l 457 949 l 575 949 l 575 819 l 457 819 m 656 819 l 656 949 l 774 949 l 774 819 l 656 819 z "},"ص":{"ha":1658,"x_min":56,"x_max":1554,"o":"m 450 -344 q 249 -303 339 -344 q 108 -190 160 -262 q 56 -24 56 -117 q 60 53 56 6 q 73 160 65 101 q 90 278 81 218 q 108 393 100 339 l 225 375 q 199 199 210 281 q 181 61 188 118 q 175 -24 175 4 q 209 -134 175 -86 q 306 -210 243 -182 q 450 -237 368 -237 q 590 -212 532 -237 q 679 -140 649 -186 q 710 -32 710 -93 l 710 694 l 828 694 l 828 -32 q 777 -199 828 -129 q 641 -307 726 -269 q 450 -344 556 -344 m 828 0 l 828 107 l 1544 107 l 1438 11 l 1438 332 q 1413 474 1438 418 q 1342 559 1389 531 q 1226 588 1296 588 q 1113 567 1165 588 q 1015 513 1060 546 q 933 440 971 479 q 863 360 894 400 q 806 286 831 319 l 768 390 q 842 481 806 436 q 918 564 879 525 q 1003 632 957 603 q 1103 678 1049 661 q 1228 694 1158 694 q 1390 662 1326 694 q 1489 574 1453 629 q 1540 456 1525 519 q 1554 332 1554 393 l 1554 0 l 828 0 z "},"ﺺ":{"ha":1706,"x_min":56,"x_max":1733,"o":"m 1554 0 l 1554 107 l 1706 107 l 1706 0 l 1554 0 m 450 -344 q 249 -303 339 -344 q 108 -190 160 -262 q 56 -24 56 -117 q 60 53 56 6 q 73 160 65 101 q 90 278 81 218 q 108 393 100 339 l 225 375 q 199 199 210 281 q 181 61 188 118 q 175 -24 175 4 q 209 -134 175 -86 q 306 -210 243 -182 q 450 -237 368 -237 q 590 -212 532 -237 q 679 -140 649 -186 q 710 -32 710 -93 l 710 694 l 828 694 l 828 -32 q 777 -199 828 -129 q 641 -307 726 -269 q 450 -344 556 -344 m 828 0 l 828 107 l 1544 107 l 1438 11 l 1438 332 q 1413 474 1438 418 q 1342 559 1389 531 q 1226 588 1296 588 q 1113 567 1165 588 q 1015 513 1060 546 q 933 440 971 479 q 863 360 894 400 q 806 286 831 319 l 768 390 q 842 481 806 436 q 918 564 879 525 q 1003 632 957 603 q 1103 678 1049 661 q 1228 694 1158 694 q 1390 662 1326 694 q 1489 574 1453 629 q 1540 456 1525 519 q 1554 332 1554 393 l 1554 0 l 828 0 m 1706 0 l 1706 107 q 1728 93 1724 107 q 1733 54 1733 79 q 1728 15 1733 31 q 1706 0 1724 0 z "},"ﺼ":{"ha":1190,"x_min":-28,"x_max":1218,"o":"m 1040 0 l 1040 107 l 1190 107 l 1190 0 l 1040 0 m 0 0 l 0 107 l 1029 107 l 922 11 l 922 332 q 898 474 922 418 q 827 559 874 531 q 711 588 781 588 q 598 567 650 588 q 501 513 546 546 q 417 440 456 479 q 347 360 379 400 q 290 286 315 319 l 254 390 q 328 481 292 436 q 404 564 365 525 q 489 632 443 603 q 590 678 535 661 q 715 694 646 694 q 876 662 813 694 q 975 574 939 629 q 1026 456 1011 519 q 1040 332 1040 393 l 1040 0 l 0 0 m 194 107 l 194 694 l 314 694 l 314 107 l 194 107 m 0 0 q -23 15 -18 0 q -28 54 -28 31 q -23 93 -28 79 q 0 107 -18 107 l 0 0 m 1190 0 l 1190 107 q 1213 93 1208 107 q 1218 54 1218 79 q 1213 15 1218 31 q 1190 0 1208 0 z "},"ﺻ":{"ha":1144,"x_min":-28,"x_max":1040,"o":"m 0 0 l 0 107 l 1029 107 l 922 11 l 922 332 q 898 474 922 418 q 827 559 874 531 q 711 588 781 588 q 598 567 650 588 q 501 513 546 546 q 417 440 456 479 q 347 360 379 400 q 290 286 315 319 l 254 390 q 328 481 292 436 q 404 564 365 525 q 489 632 443 603 q 590 678 535 661 q 715 694 646 694 q 876 662 813 694 q 975 574 939 629 q 1026 456 1011 519 q 1040 332 1040 393 l 1040 0 l 0 0 m 194 107 l 194 694 l 314 694 l 314 107 l 194 107 m 0 0 q -23 15 -18 0 q -28 54 -28 31 q -23 93 -28 79 q 0 107 -18 107 l 0 0 z "},"ض":{"ha":1658,"x_min":56,"x_max":1554,"o":"m 450 -344 q 249 -303 339 -344 q 108 -190 160 -262 q 56 -24 56 -117 q 60 53 56 6 q 73 160 65 101 q 90 278 81 218 q 108 393 100 339 l 225 375 q 199 199 210 281 q 181 61 188 118 q 175 -24 175 4 q 209 -134 175 -86 q 306 -210 243 -182 q 450 -237 368 -237 q 590 -212 532 -237 q 679 -140 649 -186 q 710 -32 710 -93 l 710 694 l 828 694 l 828 -32 q 777 -199 828 -129 q 641 -307 726 -269 q 450 -344 556 -344 m 828 0 l 828 107 l 1544 107 l 1438 11 l 1438 332 q 1413 474 1438 418 q 1342 559 1389 531 q 1226 588 1296 588 q 1113 567 1165 588 q 1015 513 1060 546 q 933 440 971 479 q 863 360 894 400 q 806 286 831 319 l 768 390 q 842 481 806 436 q 918 564 879 525 q 1003 632 957 603 q 1103 678 1049 661 q 1228 694 1158 694 q 1390 662 1326 694 q 1489 574 1453 629 q 1540 456 1525 519 q 1554 332 1554 393 l 1554 0 l 828 0 m 1088 818 l 1088 947 l 1207 947 l 1207 818 l 1088 818 z "},"ﺾ":{"ha":1706,"x_min":56,"x_max":1733,"o":"m 1554 0 l 1554 107 l 1706 107 l 1706 0 l 1554 0 m 450 -344 q 249 -303 339 -344 q 108 -190 160 -262 q 56 -24 56 -117 q 60 53 56 6 q 73 160 65 101 q 90 278 81 218 q 108 393 100 339 l 225 375 q 199 199 210 281 q 181 61 188 118 q 175 -24 175 4 q 209 -134 175 -86 q 306 -210 243 -182 q 450 -237 368 -237 q 590 -212 532 -237 q 679 -140 649 -186 q 710 -32 710 -93 l 710 694 l 828 694 l 828 -32 q 777 -199 828 -129 q 641 -307 726 -269 q 450 -344 556 -344 m 828 0 l 828 107 l 1544 107 l 1438 11 l 1438 332 q 1413 474 1438 418 q 1342 559 1389 531 q 1226 588 1296 588 q 1113 567 1165 588 q 1015 513 1060 546 q 933 440 971 479 q 863 360 894 400 q 806 286 831 319 l 768 390 q 842 481 806 436 q 918 564 879 525 q 1003 632 957 603 q 1103 678 1049 661 q 1228 694 1158 694 q 1390 662 1326 694 q 1489 574 1453 629 q 1540 456 1525 519 q 1554 332 1554 393 l 1554 0 l 828 0 m 1706 0 l 1706 107 q 1728 93 1724 107 q 1733 54 1733 79 q 1728 15 1733 31 q 1706 0 1724 0 m 1088 818 l 1088 947 l 1207 947 l 1207 818 l 1088 818 z "},"ﻀ":{"ha":1190,"x_min":-28,"x_max":1218,"o":"m 1040 0 l 1040 107 l 1190 107 l 1190 0 l 1040 0 m 0 0 l 0 107 l 1029 107 l 922 11 l 922 332 q 898 474 922 418 q 827 559 874 531 q 711 588 781 588 q 598 567 650 588 q 501 513 546 546 q 417 440 456 479 q 347 360 379 400 q 290 286 315 319 l 254 390 q 328 481 292 436 q 404 564 365 525 q 489 632 443 603 q 590 678 535 661 q 715 694 646 694 q 876 662 813 694 q 975 574 939 629 q 1026 456 1011 519 q 1040 332 1040 393 l 1040 0 l 0 0 m 194 107 l 194 694 l 314 694 l 314 107 l 194 107 m 0 0 q -23 15 -18 0 q -28 54 -28 31 q -23 93 -28 79 q 0 107 -18 107 l 0 0 m 1190 0 l 1190 107 q 1213 93 1208 107 q 1218 54 1218 79 q 1213 15 1218 31 q 1190 0 1208 0 m 572 818 l 572 947 l 692 947 l 692 818 l 572 818 z "},"ﺿ":{"ha":1144,"x_min":-28,"x_max":1040,"o":"m 0 0 l 0 107 l 1029 107 l 922 11 l 922 332 q 898 474 922 418 q 827 559 874 531 q 711 588 781 588 q 598 567 650 588 q 501 513 546 546 q 417 440 456 479 q 347 360 379 400 q 290 286 315 319 l 254 390 q 328 481 292 436 q 404 564 365 525 q 489 632 443 603 q 590 678 535 661 q 715 694 646 694 q 876 662 813 694 q 975 574 939 629 q 1026 456 1011 519 q 1040 332 1040 393 l 1040 0 l 0 0 m 194 107 l 194 694 l 314 694 l 314 107 l 194 107 m 0 0 q -23 15 -18 0 q -28 54 -28 31 q -23 93 -28 79 q 0 107 -18 107 l 0 0 m 572 818 l 572 947 l 692 947 l 692 818 l 572 818 z "},"ط":{"ha":1069,"x_min":28,"x_max":965,"o":"m 28 0 l 28 107 l 956 107 l 847 11 l 847 332 q 824 474 847 418 q 753 559 800 531 q 636 588 707 588 q 523 567 575 588 q 426 513 471 546 q 344 440 382 479 q 274 360 306 400 q 215 286 242 319 l 179 390 q 269 501 224 447 q 367 599 314 556 q 486 668 419 642 q 639 694 553 694 q 801 662 738 694 q 900 574 864 629 q 951 456 936 519 q 965 332 965 393 l 965 0 l 28 0 m 119 107 l 119 994 l 239 994 l 239 107 l 119 107 z "},"ﻂ":{"ha":1117,"x_min":28,"x_max":1144,"o":"m 965 0 l 965 107 l 1117 107 l 1117 0 l 965 0 m 28 0 l 28 107 l 956 107 l 847 11 l 847 332 q 824 474 847 418 q 753 559 800 531 q 636 588 707 588 q 523 567 575 588 q 426 513 471 546 q 344 440 382 479 q 274 360 306 400 q 215 286 242 319 l 179 390 q 269 501 224 447 q 367 599 314 556 q 486 668 419 642 q 639 694 553 694 q 801 662 738 694 q 900 574 864 629 q 951 456 936 519 q 965 332 965 393 l 965 0 l 28 0 m 119 107 l 119 994 l 239 994 l 239 107 l 119 107 m 1117 0 l 1117 107 q 1139 93 1133 107 q 1144 54 1144 79 q 1139 15 1144 31 q 1117 0 1133 0 z "},"ﻄ":{"ha":1050,"x_min":-28,"x_max":1078,"o":"m 901 0 l 901 107 l 1050 107 l 1050 0 l 901 0 m 0 0 l 0 107 l 928 107 l 819 11 l 819 332 q 796 474 819 418 q 726 559 772 531 q 608 588 679 588 q 495 567 547 588 q 399 513 443 546 q 316 440 354 479 q 246 360 278 400 q 188 286 214 319 l 151 390 q 241 501 196 447 q 339 599 286 556 q 458 668 392 642 q 611 694 525 694 q 773 662 710 694 q 872 574 836 629 q 923 456 908 519 q 938 332 938 393 l 938 0 l 0 0 m 92 107 l 92 994 l 211 994 l 211 107 l 92 107 m 0 0 q -23 15 -18 0 q -28 54 -28 31 q -23 93 -28 79 q 0 107 -18 107 l 0 0 m 1050 0 l 1050 107 q 1073 93 1068 107 q 1078 54 1078 79 q 1073 15 1078 31 q 1050 0 1068 0 z "},"ﻃ":{"ha":1040,"x_min":-28,"x_max":938,"o":"m 0 0 l 0 107 l 928 107 l 819 11 l 819 332 q 796 474 819 418 q 726 559 772 531 q 608 588 679 588 q 495 567 547 588 q 399 513 443 546 q 316 440 354 479 q 246 360 278 400 q 188 286 214 319 l 151 390 q 241 501 196 447 q 339 599 286 556 q 458 668 392 642 q 611 694 525 694 q 773 662 710 694 q 872 574 836 629 q 923 456 908 519 q 938 332 938 393 l 938 0 l 0 0 m 92 107 l 92 994 l 211 994 l 211 107 l 92 107 m 0 0 q -23 15 -18 0 q -28 54 -28 31 q -23 93 -28 79 q 0 107 -18 107 l 0 0 z "},"ظ":{"ha":1069,"x_min":28,"x_max":965,"o":"m 28 0 l 28 107 l 956 107 l 847 11 l 847 332 q 824 474 847 418 q 753 559 800 531 q 636 588 707 588 q 523 567 575 588 q 426 513 471 546 q 344 440 382 479 q 274 360 306 400 q 215 286 242 319 l 179 390 q 269 501 224 447 q 367 599 314 556 q 486 668 419 642 q 639 694 553 694 q 801 662 738 694 q 900 574 864 629 q 951 456 936 519 q 965 332 965 393 l 965 0 l 28 0 m 119 107 l 119 994 l 239 994 l 239 107 l 119 107 m 503 819 l 503 949 l 622 949 l 622 819 l 503 819 z "},"ﻆ":{"ha":1117,"x_min":28,"x_max":1144,"o":"m 965 0 l 965 107 l 1117 107 l 1117 0 l 965 0 m 28 0 l 28 107 l 956 107 l 847 11 l 847 332 q 824 474 847 418 q 753 559 800 531 q 636 588 707 588 q 523 567 575 588 q 426 513 471 546 q 344 440 382 479 q 274 360 306 400 q 215 286 242 319 l 179 390 q 269 501 224 447 q 367 599 314 556 q 486 668 419 642 q 639 694 553 694 q 801 662 738 694 q 900 574 864 629 q 951 456 936 519 q 965 332 965 393 l 965 0 l 28 0 m 119 107 l 119 994 l 239 994 l 239 107 l 119 107 m 1117 0 l 1117 107 q 1139 93 1133 107 q 1144 54 1144 79 q 1139 15 1144 31 q 1117 0 1133 0 m 503 819 l 503 949 l 622 949 l 622 819 l 503 819 z "},"ﻈ":{"ha":1050,"x_min":-28,"x_max":1078,"o":"m 901 0 l 901 107 l 1050 107 l 1050 0 l 901 0 m 0 0 l 0 107 l 928 107 l 819 11 l 819 332 q 796 474 819 418 q 726 559 772 531 q 608 588 679 588 q 495 567 547 588 q 399 513 443 546 q 316 440 354 479 q 246 360 278 400 q 188 286 214 319 l 151 390 q 241 501 196 447 q 339 599 286 556 q 458 668 392 642 q 611 694 525 694 q 773 662 710 694 q 872 574 836 629 q 923 456 908 519 q 938 332 938 393 l 938 0 l 0 0 m 92 107 l 92 994 l 211 994 l 211 107 l 92 107 m 0 0 q -23 15 -18 0 q -28 54 -28 31 q -23 93 -28 79 q 0 107 -18 107 l 0 0 m 1050 0 l 1050 107 q 1073 93 1068 107 q 1078 54 1078 79 q 1073 15 1078 31 q 1050 0 1068 0 m 475 819 l 475 949 l 594 949 l 594 819 l 475 819 z "},"ﻇ":{"ha":1040,"x_min":-28,"x_max":938,"o":"m 0 0 l 0 107 l 928 107 l 819 11 l 819 332 q 796 474 819 418 q 726 559 772 531 q 608 588 679 588 q 495 567 547 588 q 399 513 443 546 q 316 440 354 479 q 246 360 278 400 q 188 286 214 319 l 151 390 q 241 501 196 447 q 339 599 286 556 q 458 668 392 642 q 611 694 525 694 q 773 662 710 694 q 872 574 836 629 q 923 456 908 519 q 938 332 938 393 l 938 0 l 0 0 m 92 107 l 92 994 l 211 994 l 211 107 l 92 107 m 0 0 q -23 15 -18 0 q -28 54 -28 31 q -23 93 -28 79 q 0 107 -18 107 l 0 0 m 475 819 l 475 949 l 594 949 l 594 819 l 475 819 z "},"ع":{"ha":771,"x_min":56,"x_max":672,"o":"m 390 -443 q 212 -411 288 -443 q 96 -317 136 -379 q 56 -167 56 -254 q 96 -18 56 -79 q 212 75 136 43 q 392 107 288 107 l 672 107 l 672 0 l 392 0 q 227 -42 279 0 q 175 -168 175 -85 q 227 -293 175 -250 q 390 -336 279 -336 q 475 -332 425 -336 q 597 -318 525 -328 l 615 -414 q 495 -435 550 -428 q 390 -443 440 -443 m 263 7 q 150 153 189 71 q 111 326 111 235 q 139 473 111 406 q 216 590 167 540 q 333 667 265 640 q 476 694 400 694 q 563 686 517 694 q 653 663 610 678 l 613 563 q 544 581 579 574 q 478 588 510 588 q 349 554 406 588 q 260 462 293 521 q 228 326 228 403 q 258 196 228 257 q 342 86 288 135 l 263 7 z "},"ﻊ":{"ha":882,"x_min":56,"x_max":910,"o":"m 597 -317 l 615 -414 q 495 -435 550 -428 q 390 -443 440 -443 q 212 -411 288 -443 q 96 -317 136 -379 q 56 -167 56 -254 q 81 -40 56 -99 q 154 60 107 18 q 267 126 201 103 l 307 144 q 413 192 358 165 q 516 253 467 219 q 605 327 565 286 q 667 415 644 368 q 689 517 689 463 l 689 601 l 753 506 q 596 567 674 546 q 444 588 518 588 q 295 567 372 588 q 139 506 218 546 l 201 601 l 201 517 q 227 412 201 468 q 298 302 253 356 q 404 204 343 249 q 539 133 465 160 q 693 107 613 107 l 882 107 l 882 0 l 701 0 q 499 35 593 0 q 328 127 404 69 q 197 253 251 185 q 113 391 142 322 q 83 517 83 460 l 83 600 q 205 653 143 632 q 328 684 267 674 q 444 694 389 694 q 563 684 503 694 q 685 653 624 674 q 807 600 747 632 l 807 517 q 774 370 807 436 q 688 252 742 304 q 572 160 635 200 q 449 92 510 121 q 413 76 436 86 q 366 56 390 67 q 324 37 342 44 q 301 26 306 29 q 214 -40 253 4 q 175 -167 175 -85 q 227 -292 175 -249 q 390 -336 279 -336 q 474 -331 424 -336 q 597 -317 525 -326 m 882 0 l 882 107 q 905 93 900 107 q 910 54 910 79 q 905 15 910 31 q 882 0 900 0 z "},"ﻌ":{"ha":889,"x_min":-28,"x_max":917,"o":"m 0 0 l 0 107 l 201 107 q 354 133 281 107 q 490 204 428 160 q 597 302 551 249 q 668 412 643 356 q 693 517 693 468 l 693 601 l 756 506 q 599 567 676 546 q 449 588 522 588 q 299 567 376 588 q 143 506 221 546 l 206 601 l 206 517 q 231 412 206 468 q 302 302 257 356 q 408 204 347 249 q 543 133 469 160 q 697 107 617 107 l 889 107 l 889 0 l 704 0 q 501 35 596 0 q 331 127 407 69 q 199 253 254 185 q 115 391 144 322 q 86 517 86 460 l 86 600 q 208 653 146 632 q 332 684 271 674 q 449 694 393 694 q 567 684 506 694 q 690 653 628 674 q 811 600 751 632 l 811 517 q 782 391 811 460 q 698 253 753 322 q 567 127 643 185 q 396 35 490 69 q 193 0 301 0 l 0 0 m 0 0 q -23 15 -18 0 q -28 54 -28 31 q -23 93 -28 79 q 0 107 -18 107 l 0 0 m 889 0 l 889 107 q 912 93 907 107 q 917 54 917 79 q 912 15 917 31 q 889 0 907 0 z "},"ﻋ":{"ha":819,"x_min":-28,"x_max":701,"o":"m 296 7 q 182 153 221 71 q 143 326 143 235 q 172 473 143 406 q 249 590 200 540 q 365 667 299 640 q 508 694 432 694 q 596 686 550 694 q 685 663 642 678 l 646 563 q 576 581 611 574 q 511 588 542 588 q 382 554 439 588 q 294 462 325 521 q 263 326 263 403 q 375 86 263 182 l 296 7 m 0 0 l 0 107 l 701 107 l 701 0 l 0 0 m 0 0 q -23 15 -18 0 q -28 54 -28 31 q -23 93 -28 79 q 0 107 -18 107 l 0 0 z "},"غ":{"ha":771,"x_min":56,"x_max":672,"o":"m 390 -443 q 212 -411 288 -443 q 96 -317 136 -379 q 56 -167 56 -254 q 96 -18 56 -79 q 212 75 136 43 q 392 107 288 107 l 672 107 l 672 0 l 392 0 q 227 -42 279 0 q 175 -168 175 -85 q 227 -293 175 -250 q 390 -336 279 -336 q 475 -332 425 -336 q 597 -318 525 -328 l 615 -414 q 495 -435 550 -428 q 390 -443 440 -443 m 263 7 q 150 153 189 71 q 111 326 111 235 q 139 473 111 406 q 216 590 167 540 q 333 667 265 640 q 476 694 400 694 q 563 686 517 694 q 653 663 610 678 l 613 563 q 544 581 579 574 q 478 588 510 588 q 349 554 406 588 q 260 462 293 521 q 228 326 228 403 q 258 196 228 257 q 342 86 288 135 l 263 7 m 364 819 l 364 949 l 483 949 l 483 819 l 364 819 z "},"ﻎ":{"ha":882,"x_min":56,"x_max":910,"o":"m 597 -317 l 615 -414 q 495 -435 550 -428 q 390 -443 440 -443 q 212 -411 288 -443 q 96 -317 136 -379 q 56 -167 56 -254 q 81 -40 56 -99 q 154 60 107 18 q 267 126 201 103 l 307 144 q 413 192 358 165 q 516 253 467 219 q 605 327 565 286 q 667 415 644 368 q 689 517 689 463 l 689 601 l 753 506 q 596 567 674 546 q 444 588 518 588 q 295 567 372 588 q 139 506 218 546 l 201 601 l 201 517 q 227 412 201 468 q 298 302 253 356 q 404 204 343 249 q 539 133 465 160 q 693 107 613 107 l 882 107 l 882 0 l 701 0 q 499 35 593 0 q 328 127 404 69 q 197 253 251 185 q 113 391 142 322 q 83 517 83 460 l 83 600 q 205 653 143 632 q 328 684 267 674 q 444 694 389 694 q 563 684 503 694 q 685 653 624 674 q 807 600 747 632 l 807 517 q 774 370 807 436 q 688 252 742 304 q 572 160 635 200 q 449 92 510 121 q 413 76 436 86 q 366 56 390 67 q 324 37 342 44 q 301 26 306 29 q 214 -40 253 4 q 175 -167 175 -85 q 227 -292 175 -249 q 390 -336 279 -336 q 474 -331 424 -336 q 597 -317 525 -326 m 882 0 l 882 107 q 905 93 900 107 q 910 54 910 79 q 905 15 910 31 q 882 0 900 0 m 385 819 l 385 949 l 504 949 l 504 819 l 385 819 z "},"ﻐ":{"ha":889,"x_min":-28,"x_max":917,"o":"m 0 0 l 0 107 l 201 107 q 354 133 281 107 q 490 204 428 160 q 597 302 551 249 q 668 412 643 356 q 693 517 693 468 l 693 601 l 756 506 q 599 567 676 546 q 449 588 522 588 q 299 567 376 588 q 143 506 221 546 l 206 601 l 206 517 q 231 412 206 468 q 302 302 257 356 q 408 204 347 249 q 543 133 469 160 q 697 107 617 107 l 889 107 l 889 0 l 704 0 q 501 35 596 0 q 331 127 407 69 q 199 253 254 185 q 115 391 144 322 q 86 517 86 460 l 86 600 q 208 653 146 632 q 332 684 271 674 q 449 694 393 694 q 567 684 506 694 q 690 653 628 674 q 811 600 751 632 l 811 517 q 782 391 811 460 q 698 253 753 322 q 567 127 643 185 q 396 35 490 69 q 193 0 301 0 l 0 0 m 0 0 q -23 15 -18 0 q -28 54 -28 31 q -23 93 -28 79 q 0 107 -18 107 l 0 0 m 889 0 l 889 107 q 912 93 907 107 q 917 54 917 79 q 912 15 917 31 q 889 0 907 0 m 388 819 l 388 949 l 507 949 l 507 819 l 388 819 z "},"ﻏ":{"ha":819,"x_min":-28,"x_max":701,"o":"m 296 7 q 182 153 221 71 q 143 326 143 235 q 172 473 143 406 q 249 590 200 540 q 365 667 299 640 q 508 694 432 694 q 596 686 550 694 q 685 663 642 678 l 646 563 q 576 581 611 574 q 511 588 542 588 q 382 554 439 588 q 294 462 325 521 q 263 326 263 403 q 375 86 263 182 l 296 7 m 0 0 l 0 107 l 701 107 l 701 0 l 0 0 m 0 0 q -23 15 -18 0 q -28 54 -28 31 q -23 93 -28 79 q 0 107 -18 107 l 0 0 m 394 819 l 394 949 l 514 949 l 514 819 l 394 819 z "},"ف":{"ha":1438,"x_min":75,"x_max":1319,"o":"m 493 0 q 180 74 285 0 q 75 303 75 149 q 80 374 75 336 q 92 449 85 413 q 104 513 99 486 q 111 550 110 540 l 226 528 q 215 468 222 507 q 201 386 207 429 q 194 303 194 343 q 224 190 194 233 q 319 126 253 146 q 494 107 385 107 l 1271 107 l 1201 47 l 1201 633 l 1257 588 l 1029 588 q 908 569 951 588 q 849 498 865 550 q 833 347 833 446 q 849 196 833 247 q 908 126 865 144 q 1029 107 951 107 l 1029 26 q 840 57 908 26 q 742 158 771 88 q 714 347 714 228 q 742 544 714 467 q 840 658 771 621 q 1029 694 908 694 l 1319 694 l 1319 0 l 493 0 m 990 819 l 990 949 l 1110 949 l 1110 819 l 990 819 z "},"ﻒ":{"ha":1469,"x_min":75,"x_max":1497,"o":"m 1319 0 l 1319 107 l 1469 107 l 1469 0 l 1319 0 m 493 0 q 180 74 285 0 q 75 303 75 149 q 80 374 75 336 q 92 449 85 413 q 104 513 99 486 q 111 550 110 540 l 226 528 q 215 468 222 507 q 201 386 207 429 q 194 303 194 343 q 224 190 194 233 q 319 126 253 146 q 494 107 385 107 l 1271 107 l 1201 47 l 1201 633 l 1257 588 l 1029 588 q 908 569 951 588 q 849 498 865 550 q 833 347 833 446 q 849 196 833 247 q 908 126 865 144 q 1029 107 951 107 l 1029 26 q 840 57 908 26 q 742 158 771 88 q 714 347 714 228 q 742 544 714 467 q 840 658 771 621 q 1029 694 908 694 l 1319 694 l 1319 0 l 493 0 m 1469 0 l 1469 107 q 1492 93 1488 107 q 1497 54 1497 79 q 1492 15 1497 31 q 1469 0 1488 0 m 990 819 l 990 949 l 1110 949 l 1110 819 l 990 819 z "},"ﻔ":{"ha":893,"x_min":-28,"x_max":921,"o":"m 743 0 l 743 107 l 893 107 l 893 0 l 743 0 m 0 0 l 0 107 l 694 107 l 624 47 l 624 633 l 679 588 l 451 588 q 331 569 374 588 q 273 498 289 550 q 257 347 257 446 q 273 196 257 247 q 331 126 289 144 q 451 107 374 107 l 451 26 q 263 57 332 26 q 166 158 194 88 q 138 347 138 228 q 166 544 138 467 q 263 658 194 621 q 451 694 332 694 l 743 694 l 743 0 l 0 0 m 0 0 q -23 15 -18 0 q -28 54 -28 31 q -23 93 -28 79 q 0 107 -18 107 l 0 0 m 893 0 l 893 107 q 915 93 910 107 q 921 54 921 79 q 915 15 921 31 q 893 0 910 0 m 413 819 l 413 949 l 532 949 l 532 819 l 413 819 z "},"ﻓ":{"ha":847,"x_min":-28,"x_max":743,"o":"m 0 0 l 0 107 l 694 107 l 624 47 l 624 633 l 679 588 l 451 588 q 331 569 374 588 q 273 498 289 550 q 257 347 257 446 q 273 196 257 247 q 331 126 289 144 q 451 107 374 107 l 451 26 q 263 57 332 26 q 166 158 194 88 q 138 347 138 228 q 166 544 138 467 q 263 658 194 621 q 451 694 332 694 l 743 694 l 743 0 l 0 0 m 0 0 q -23 15 -18 0 q -28 54 -28 31 q -23 93 -28 79 q 0 107 -18 107 l 0 0 m 413 819 l 413 949 l 532 949 l 532 819 l 413 819 z "},"ڤ":{"ha":1438,"x_min":75,"x_max":1319,"o":"m 493 0 q 180 74 285 0 q 75 303 75 149 q 80 374 75 336 q 92 449 85 413 q 104 513 99 486 q 111 550 110 540 l 226 528 q 215 468 222 507 q 201 386 207 429 q 194 303 194 343 q 224 190 194 233 q 319 126 253 146 q 494 107 385 107 l 1271 107 l 1201 47 l 1201 633 l 1257 588 l 1029 588 q 908 569 951 588 q 849 498 865 550 q 833 347 833 446 q 849 196 833 247 q 908 126 865 144 q 1029 107 951 107 l 1029 26 q 840 57 908 26 q 742 158 771 88 q 714 347 714 228 q 742 544 714 467 q 840 658 771 621 q 1029 694 908 694 l 1319 694 l 1319 0 l 493 0 m 994 1007 l 994 1128 l 1103 1128 l 1103 1007 l 994 1007 m 890 819 l 890 949 l 1008 949 l 1008 819 l 890 819 m 1089 819 l 1089 949 l 1207 949 l 1207 819 l 1089 819 z "},"ﭫ":{"ha":1469,"x_min":75,"x_max":1497,"o":"m 1319 0 l 1319 107 l 1469 107 l 1469 0 l 1319 0 m 493 0 q 180 74 285 0 q 75 303 75 149 q 80 374 75 336 q 92 449 85 413 q 104 513 99 486 q 111 550 110 540 l 226 528 q 215 468 222 507 q 201 386 207 429 q 194 303 194 343 q 224 190 194 233 q 319 126 253 146 q 494 107 385 107 l 1271 107 l 1201 47 l 1201 633 l 1257 588 l 1029 588 q 908 569 951 588 q 849 498 865 550 q 833 347 833 446 q 849 196 833 247 q 908 126 865 144 q 1029 107 951 107 l 1029 26 q 840 57 908 26 q 742 158 771 88 q 714 347 714 228 q 742 544 714 467 q 840 658 771 621 q 1029 694 908 694 l 1319 694 l 1319 0 l 493 0 m 1469 0 l 1469 107 q 1492 93 1488 107 q 1497 54 1497 79 q 1492 15 1497 31 q 1469 0 1488 0 m 994 1007 l 994 1128 l 1103 1128 l 1103 1007 l 994 1007 m 890 819 l 890 949 l 1008 949 l 1008 819 l 890 819 m 1089 819 l 1089 949 l 1207 949 l 1207 819 l 1089 819 z "},"ﭭ":{"ha":893,"x_min":-28,"x_max":921,"o":"m 743 0 l 743 107 l 893 107 l 893 0 l 743 0 m 0 0 l 0 107 l 694 107 l 624 47 l 624 633 l 679 588 l 451 588 q 331 569 374 588 q 273 498 289 550 q 257 347 257 446 q 273 196 257 247 q 331 126 289 144 q 451 107 374 107 l 451 26 q 263 57 332 26 q 166 158 194 88 q 138 347 138 228 q 166 544 138 467 q 263 658 194 621 q 451 694 332 694 l 743 694 l 743 0 l 0 0 m 0 0 q -23 15 -18 0 q -28 54 -28 31 q -23 93 -28 79 q 0 107 -18 107 l 0 0 m 893 0 l 893 107 q 915 93 910 107 q 921 54 921 79 q 915 15 921 31 q 893 0 910 0 m 418 1007 l 418 1128 l 526 1128 l 526 1007 l 418 1007 m 314 819 l 314 949 l 432 949 l 432 819 l 314 819 m 513 819 l 513 949 l 631 949 l 631 819 l 513 819 z "},"ﭬ":{"ha":847,"x_min":-28,"x_max":743,"o":"m 0 0 l 0 107 l 694 107 l 624 47 l 624 633 l 679 588 l 451 588 q 331 569 374 588 q 273 498 289 550 q 257 347 257 446 q 273 196 257 247 q 331 126 289 144 q 451 107 374 107 l 451 26 q 263 57 332 26 q 166 158 194 88 q 138 347 138 228 q 166 544 138 467 q 263 658 194 621 q 451 694 332 694 l 743 694 l 743 0 l 0 0 m 0 0 q -23 15 -18 0 q -28 54 -28 31 q -23 93 -28 79 q 0 107 -18 107 l 0 0 m 418 1007 l 418 1128 l 526 1128 l 526 1007 l 418 1007 m 314 819 l 314 949 l 432 949 l 432 819 l 314 819 m 513 819 l 513 949 l 631 949 l 631 819 l 513 819 z "},"ڡ":{"ha":1438,"x_min":75,"x_max":1319,"o":"m 493 0 q 180 74 285 0 q 75 303 75 149 q 80 374 75 336 q 92 449 85 413 q 104 513 99 486 q 111 550 110 540 l 226 528 q 215 468 222 507 q 201 386 207 429 q 194 303 194 343 q 224 190 194 233 q 319 126 253 146 q 494 107 385 107 l 1271 107 l 1201 47 l 1201 633 l 1257 588 l 1029 588 q 908 569 951 588 q 849 498 865 550 q 833 347 833 446 q 849 196 833 247 q 908 126 865 144 q 1029 107 951 107 l 1029 26 q 840 57 908 26 q 742 158 771 88 q 714 347 714 228 q 742 544 714 467 q 840 658 771 621 q 1029 694 908 694 l 1319 694 l 1319 0 l 493 0 z "},"ٯ":{"ha":1208,"x_min":56,"x_max":1104,"o":"m 426 -369 q 238 -331 322 -369 q 105 -226 154 -293 q 56 -69 56 -158 q 61 10 56 -40 q 75 120 67 60 q 93 242 83 181 q 111 357 103 304 l 228 339 q 201 165 213 244 q 183 28 189 86 q 176 -61 176 -29 q 207 -170 176 -125 q 294 -239 238 -215 q 426 -262 351 -262 l 749 -262 q 923 -212 861 -262 q 985 -76 985 -162 l 985 633 l 1040 588 l 813 588 q 692 569 735 588 q 633 498 650 550 q 617 347 617 446 q 633 196 617 247 q 692 126 650 144 q 813 107 735 107 l 985 107 l 985 0 l 813 0 q 622 37 690 0 q 526 151 554 74 q 499 347 499 228 q 526 544 499 467 q 622 658 554 621 q 813 694 690 694 l 1104 694 l 1104 -76 q 1054 -238 1104 -172 q 924 -337 1004 -304 q 749 -369 843 -369 l 426 -369 z "},"ق":{"ha":1199,"x_min":56,"x_max":1104,"o":"m 426 -369 q 238 -331 322 -369 q 105 -226 154 -293 q 56 -69 56 -158 q 61 10 56 -40 q 75 120 67 60 q 93 242 83 181 q 111 357 103 304 l 228 339 q 201 165 213 244 q 183 28 189 86 q 176 -61 176 -29 q 207 -170 176 -125 q 294 -239 238 -215 q 426 -262 351 -262 l 749 -262 q 923 -212 861 -262 q 985 -76 985 -162 l 985 633 l 1040 588 l 813 588 q 692 569 735 588 q 633 498 650 550 q 617 347 617 446 q 633 196 617 247 q 692 126 650 144 q 813 107 735 107 l 985 107 l 985 0 l 813 0 q 622 37 690 0 q 526 151 554 74 q 499 347 499 228 q 526 544 499 467 q 622 658 554 621 q 813 694 690 694 l 1104 694 l 1104 -76 q 1054 -238 1104 -172 q 924 -337 1004 -304 q 749 -369 843 -369 l 426 -369 m 678 814 l 678 943 l 797 943 l 797 814 l 678 814 m 868 814 l 868 943 l 988 943 l 988 814 l 868 814 z "},"ﻖ":{"ha":1243,"x_min":56,"x_max":1281,"o":"m 1104 0 l 1104 107 l 1253 107 l 1253 0 l 1104 0 m 426 -369 q 238 -331 322 -369 q 105 -226 154 -293 q 56 -69 56 -158 q 61 10 56 -40 q 75 120 67 60 q 93 242 83 181 q 111 357 103 304 l 228 339 q 201 165 213 244 q 183 28 189 86 q 176 -61 176 -29 q 207 -170 176 -125 q 294 -239 238 -215 q 426 -262 351 -262 l 749 -262 q 923 -212 861 -262 q 985 -76 985 -162 l 985 633 l 1040 588 l 813 588 q 692 569 735 588 q 633 498 650 550 q 617 347 617 446 q 633 196 617 247 q 692 126 650 144 q 813 107 735 107 l 985 107 l 985 0 l 813 0 q 622 37 690 0 q 526 151 554 74 q 499 347 499 228 q 526 544 499 467 q 622 658 554 621 q 813 694 690 694 l 1104 694 l 1104 -76 q 1054 -238 1104 -172 q 924 -337 1004 -304 q 749 -369 843 -369 l 426 -369 m 1253 0 l 1253 107 q 1276 93 1271 107 q 1281 54 1281 79 q 1276 15 1281 31 q 1253 0 1271 0 m 678 814 l 678 943 l 797 943 l 797 814 l 678 814 m 868 814 l 868 943 l 988 943 l 988 814 l 868 814 z "},"ﻘ":{"ha":888,"x_min":-28,"x_max":921,"o":"m 743 0 l 743 107 l 893 107 l 893 0 l 743 0 m 0 0 l 0 107 l 694 107 l 624 47 l 624 633 l 679 588 l 451 588 q 331 569 374 588 q 273 498 289 550 q 257 347 257 446 q 273 196 257 247 q 331 126 289 144 q 451 107 374 107 l 451 26 q 263 57 332 26 q 166 158 194 88 q 138 347 138 228 q 166 544 138 467 q 263 658 194 621 q 451 694 332 694 l 743 694 l 743 0 l 0 0 m 0 0 q -23 15 -18 0 q -28 54 -28 31 q -23 93 -28 79 q 0 107 -18 107 l 0 0 m 893 0 l 893 107 q 915 93 910 107 q 921 54 921 79 q 915 15 921 31 q 893 0 910 0 m 322 814 l 322 943 l 442 943 l 442 814 l 322 814 m 513 814 l 513 943 l 632 943 l 632 814 l 513 814 z "},"ﻗ":{"ha":843,"x_min":-28,"x_max":743,"o":"m 0 0 l 0 107 l 694 107 l 624 47 l 624 633 l 679 588 l 451 588 q 331 569 374 588 q 273 498 289 550 q 257 347 257 446 q 273 196 257 247 q 331 126 289 144 q 451 107 374 107 l 451 26 q 263 57 332 26 q 166 158 194 88 q 138 347 138 228 q 166 544 138 467 q 263 658 194 621 q 451 694 332 694 l 743 694 l 743 0 l 0 0 m 0 0 q -23 15 -18 0 q -28 54 -28 31 q -23 93 -28 79 q 0 107 -18 107 l 0 0 m 322 814 l 322 943 l 442 943 l 442 814 l 322 814 m 513 814 l 513 943 l 632 943 l 632 814 l 513 814 z "},"ك":{"ha":1101,"x_min":56,"x_max":997,"o":"m 474 0 q 160 74 265 0 q 56 303 56 149 q 60 374 56 336 q 72 449 65 413 q 85 513 79 486 q 92 550 90 540 l 207 528 q 195 468 203 507 q 181 386 188 429 q 175 303 175 343 q 204 190 175 233 q 299 126 233 146 q 475 107 365 107 l 936 107 l 879 60 l 879 994 l 997 994 l 997 0 l 474 0 m 460 486 q 425 541 438 514 q 413 597 413 568 q 433 672 413 639 q 489 723 454 704 q 564 742 524 742 q 609 735 586 742 q 649 718 632 729 l 611 651 q 590 660 600 658 q 568 663 579 663 q 517 644 536 663 q 499 597 499 626 q 506 564 499 581 q 529 528 514 547 l 460 486 m 386 485 l 386 563 l 668 563 l 668 485 l 386 485 z "},"ﻚ":{"ha":1147,"x_min":56,"x_max":1175,"o":"m 997 0 l 997 107 l 1147 107 l 1147 0 l 997 0 m 474 0 q 160 74 265 0 q 56 303 56 149 q 60 374 56 336 q 72 449 65 413 q 85 513 79 486 q 92 550 90 540 l 207 528 q 195 468 203 507 q 181 386 188 429 q 175 303 175 343 q 204 190 175 233 q 299 126 233 146 q 475 107 365 107 l 936 107 l 879 60 l 879 994 l 997 994 l 997 0 l 474 0 m 1147 0 l 1147 107 q 1170 93 1165 107 q 1175 54 1175 79 q 1170 15 1175 31 q 1147 0 1165 0 m 460 486 q 425 541 438 514 q 413 597 413 568 q 433 672 413 639 q 489 723 454 704 q 564 742 524 742 q 609 735 586 742 q 649 718 632 729 l 611 651 q 590 660 600 658 q 568 663 579 663 q 517 644 536 663 q 499 597 499 626 q 506 564 499 581 q 529 528 514 547 l 460 486 m 386 485 l 386 563 l 668 563 l 668 485 l 386 485 z "},"ﻜ":{"ha":921,"x_min":-28,"x_max":949,"o":"m 772 0 l 772 107 l 921 107 l 921 0 l 772 0 m 0 0 l 0 107 l 694 107 l 653 71 l 653 310 q 633 433 653 385 q 576 504 614 481 q 479 528 538 528 l 176 528 l 92 654 l 153 772 q 187 833 169 801 q 231 906 204 864 q 297 1007 257 947 l 396 947 q 332 848 357 888 q 290 780 307 808 q 258 722 274 751 l 190 593 l 163 636 l 479 636 q 624 606 567 636 q 713 527 681 576 q 759 421 746 478 q 772 310 772 364 l 772 0 l 0 0 m 0 0 q -23 15 -18 0 q -28 54 -28 31 q -23 93 -28 79 q 0 107 -18 107 l 0 0 m 921 0 l 921 107 q 944 93 939 107 q 949 54 949 79 q 944 15 949 31 q 921 0 939 0 z "},"ﻛ":{"ha":875,"x_min":-28,"x_max":772,"o":"m 0 0 l 0 107 l 694 107 l 653 71 l 653 310 q 633 433 653 385 q 576 504 614 481 q 479 528 538 528 l 176 528 l 92 654 l 153 772 q 187 833 169 801 q 231 906 204 864 q 297 1007 257 947 l 396 947 q 332 848 357 888 q 290 780 307 808 q 258 722 274 751 l 190 593 l 163 636 l 479 636 q 624 606 567 636 q 713 527 681 576 q 759 421 746 478 q 772 310 772 364 l 772 0 l 0 0 m 0 0 q -23 15 -18 0 q -28 54 -28 31 q -23 93 -28 79 q 0 107 -18 107 l 0 0 z "},"ک":{"ha":1104,"x_min":56,"x_max":1001,"o":"m 474 0 q 160 74 265 0 q 56 303 56 149 q 60 362 56 328 q 69 431 64 396 q 81 498 75 467 q 92 550 88 529 l 207 528 q 197 474 203 504 q 186 413 190 444 q 178 352 182 381 q 175 303 175 324 q 204 190 175 233 q 299 126 233 146 q 475 107 365 107 l 882 107 l 882 310 q 863 433 882 385 q 805 504 843 481 q 708 528 767 528 l 404 528 l 321 654 l 383 772 q 417 833 399 801 q 460 906 435 864 q 526 1007 486 947 l 625 947 q 560 848 585 888 q 519 780 536 808 q 488 722 503 751 l 442 636 l 708 636 q 853 606 796 636 q 943 527 911 576 q 988 421 975 478 q 1001 310 1001 364 l 1001 0 l 474 0 z "},"ﮏ":{"ha":1151,"x_min":56,"x_max":1179,"o":"m 1001 0 l 1001 107 l 1151 107 l 1151 0 l 1001 0 m 474 0 q 160 74 265 0 q 56 303 56 149 q 60 362 56 328 q 69 431 64 396 q 81 498 75 467 q 92 550 88 529 l 207 528 q 197 474 203 504 q 186 413 190 444 q 178 352 182 381 q 175 303 175 324 q 204 190 175 233 q 299 126 233 146 q 475 107 365 107 l 882 107 l 882 310 q 863 433 882 385 q 805 504 843 481 q 708 528 767 528 l 404 528 l 321 654 l 383 772 q 417 833 399 801 q 460 906 435 864 q 526 1007 486 947 l 625 947 q 560 848 585 888 q 519 780 536 808 q 488 722 503 751 l 442 636 l 708 636 q 853 606 796 636 q 943 527 911 576 q 988 421 975 478 q 1001 310 1001 364 l 1001 0 l 474 0 m 1151 0 l 1151 107 q 1174 93 1169 107 q 1179 54 1179 79 q 1174 15 1179 31 q 1151 0 1169 0 z "},"ﮑ":{"ha":921,"x_min":-28,"x_max":949,"o":"m 772 0 l 772 107 l 921 107 l 921 0 l 772 0 m 0 0 l 0 107 l 694 107 l 653 71 l 653 310 q 633 433 653 385 q 576 504 614 481 q 479 528 538 528 l 176 528 l 92 654 l 153 772 q 187 833 169 801 q 231 906 204 864 q 297 1007 257 947 l 396 947 q 332 848 357 888 q 290 780 307 808 q 258 722 274 751 l 190 593 l 163 636 l 479 636 q 624 606 567 636 q 713 527 681 576 q 759 421 746 478 q 772 310 772 364 l 772 0 l 0 0 m 0 0 q -23 15 -18 0 q -28 54 -28 31 q -23 93 -28 79 q 0 107 -18 107 l 0 0 m 921 0 l 921 107 q 944 93 939 107 q 949 54 949 79 q 944 15 949 31 q 921 0 939 0 z "},"ﮐ":{"ha":875,"x_min":-28,"x_max":772,"o":"m 0 0 l 0 107 l 694 107 l 653 71 l 653 310 q 633 433 653 385 q 576 504 614 481 q 479 528 538 528 l 176 528 l 92 654 l 153 772 q 187 833 169 801 q 231 906 204 864 q 297 1007 257 947 l 396 947 q 332 848 357 888 q 290 780 307 808 q 258 722 274 751 l 190 593 l 163 636 l 479 636 q 624 606 567 636 q 713 527 681 576 q 759 421 746 478 q 772 310 772 364 l 772 0 l 0 0 m 0 0 q -23 15 -18 0 q -28 54 -28 31 q -23 93 -28 79 q 0 107 -18 107 l 0 0 z "},"گ":{"ha":1104,"x_min":56,"x_max":1001,"o":"m 290 699 l 240 772 q 294 877 271 832 q 346 968 318 922 q 415 1074 374 1014 l 483 1033 q 431 953 454 989 q 387 880 408 917 q 342 800 365 843 q 290 699 318 757 m 474 0 q 160 74 265 0 q 56 303 56 149 q 60 362 56 328 q 69 431 64 396 q 81 498 75 467 q 92 550 88 529 l 207 528 q 197 474 203 504 q 186 413 190 444 q 178 352 182 381 q 175 303 175 324 q 204 190 175 233 q 299 126 233 146 q 475 107 365 107 l 882 107 l 882 310 q 863 433 882 385 q 805 504 843 481 q 708 528 767 528 l 404 528 l 321 654 l 383 772 q 417 833 399 801 q 460 906 435 864 q 526 1007 486 947 l 625 947 q 560 848 585 888 q 519 780 536 808 q 488 722 503 751 l 442 636 l 708 636 q 853 606 796 636 q 943 527 911 576 q 988 421 975 478 q 1001 310 1001 364 l 1001 0 l 474 0 z "},"ﮓ":{"ha":1151,"x_min":56,"x_max":1179,"o":"m 290 699 l 240 772 q 294 877 271 832 q 346 968 318 922 q 415 1074 374 1014 l 483 1033 q 431 953 454 989 q 387 880 408 917 q 342 800 365 843 q 290 699 318 757 m 474 0 q 160 74 265 0 q 56 303 56 149 q 60 362 56 328 q 69 431 64 396 q 81 498 75 467 q 92 550 88 529 l 207 528 q 197 474 203 504 q 186 413 190 444 q 178 352 182 381 q 175 303 175 324 q 204 190 175 233 q 299 126 233 146 q 475 107 365 107 l 882 107 l 882 310 q 863 433 882 385 q 805 504 843 481 q 708 528 767 528 l 404 528 l 321 654 l 383 772 q 417 833 399 801 q 460 906 435 864 q 526 1007 486 947 l 625 947 q 560 848 585 888 q 519 780 536 808 q 488 722 503 751 l 442 636 l 708 636 q 853 606 796 636 q 943 527 911 576 q 988 421 975 478 q 1001 310 1001 364 l 1001 0 l 474 0 m 1151 0 l 1151 107 q 1174 93 1169 107 q 1179 54 1179 79 q 1174 15 1179 31 q 1151 0 1169 0 m 1001 0 l 1001 107 l 1151 107 l 1151 0 l 1001 0 z "},"ﮕ":{"ha":993,"x_min":-28,"x_max":1021,"o":"m 844 0 l 844 107 l 993 107 l 993 0 l 844 0 m 993 0 l 993 107 q 1016 93 1011 107 q 1021 54 1021 79 q 1016 15 1021 31 q 993 0 1011 0 m 118 699 l 68 772 q 122 877 99 832 q 174 968 146 922 q 243 1074 201 1014 l 311 1033 q 259 953 282 989 q 215 880 236 917 q 169 800 193 843 q 118 699 146 757 m 0 0 l 0 107 l 767 107 l 725 71 l 725 310 q 706 433 725 385 q 648 504 686 481 q 551 528 610 528 l 249 528 l 164 654 l 225 772 q 259 833 242 801 q 303 906 276 864 q 369 1007 329 947 l 468 947 q 405 848 429 888 q 363 780 381 808 q 331 722 346 751 l 264 593 l 236 636 l 551 636 q 696 606 639 636 q 785 527 753 576 q 831 421 818 478 q 844 310 844 364 l 844 0 l 0 0 m 0 0 q -23 15 -18 0 q -28 54 -28 31 q -23 93 -28 79 q 0 107 -18 107 l 0 0 z "},"ﮔ":{"ha":947,"x_min":-28,"x_max":844,"o":"m 118 699 l 68 772 q 122 877 99 832 q 174 968 146 922 q 243 1074 201 1014 l 311 1033 q 259 953 282 989 q 215 880 236 917 q 169 800 193 843 q 118 699 146 757 m 0 0 l 0 107 l 767 107 l 725 71 l 725 310 q 706 433 725 385 q 648 504 686 481 q 551 528 610 528 l 249 528 l 164 654 l 225 772 q 259 833 242 801 q 303 906 276 864 q 369 1007 329 947 l 468 947 q 405 848 429 888 q 363 780 381 808 q 331 722 346 751 l 264 593 l 236 636 l 551 636 q 696 606 639 636 q 785 527 753 576 q 831 421 818 478 q 844 310 844 364 l 844 0 l 0 0 m 0 0 q -23 15 -18 0 q -28 54 -28 31 q -23 93 -28 79 q 0 107 -18 107 l 0 0 z "},"ل":{"ha":932,"x_min":56,"x_max":828,"o":"m 450 -344 q 249 -303 339 -344 q 108 -190 160 -262 q 56 -24 56 -117 q 60 53 56 6 q 73 160 65 101 q 90 278 81 218 q 108 393 100 339 l 225 375 q 199 199 210 281 q 181 61 188 118 q 175 -24 175 4 q 209 -134 175 -86 q 306 -210 243 -182 q 450 -237 368 -237 q 590 -212 532 -237 q 679 -140 649 -186 q 710 -32 710 -93 l 710 994 l 828 994 l 828 -32 q 777 -199 828 -129 q 641 -307 726 -269 q 450 -344 556 -344 z "},"ﻞ":{"ha":978,"x_min":56,"x_max":1006,"o":"m 828 0 l 828 107 l 978 107 l 978 0 l 828 0 m 450 -344 q 249 -303 339 -344 q 108 -190 160 -262 q 56 -24 56 -117 q 60 53 56 6 q 73 160 65 101 q 90 278 81 218 q 108 393 100 339 l 225 375 q 199 199 210 281 q 181 61 188 118 q 175 -24 175 4 q 209 -134 175 -86 q 306 -210 243 -182 q 450 -237 368 -237 q 590 -212 532 -237 q 679 -140 649 -186 q 710 -32 710 -93 l 710 994 l 828 994 l 828 -32 q 777 -199 828 -129 q 641 -307 726 -269 q 450 -344 556 -344 m 978 0 l 978 107 q 1001 93 996 107 q 1006 54 1006 79 q 1001 15 1006 31 q 978 0 996 0 z "},"ﻠ":{"ha":435,"x_min":-28,"x_max":463,"o":"m 286 0 l 286 107 l 435 107 l 435 0 l 286 0 m 167 0 l 167 994 l 286 994 l 286 0 l 167 0 m 0 0 l 0 107 l 167 107 l 167 0 l 0 0 m 0 0 q -23 15 -18 0 q -28 54 -28 31 q -23 93 -28 79 q 0 107 -18 107 l 0 0 m 435 0 l 435 107 q 458 93 453 107 q 463 54 463 79 q 458 15 463 31 q 435 0 453 0 z "},"ﻟ":{"ha":390,"x_min":-28,"x_max":286,"o":"m 167 0 l 167 994 l 286 994 l 286 0 l 167 0 m 0 0 l 0 107 l 167 107 l 167 0 l 0 0 m 0 0 q -23 15 -18 0 q -28 54 -28 31 q -23 93 -28 79 q 0 107 -18 107 l 0 0 z "},"م":{"ha":876,"x_min":56,"x_max":774,"o":"m 90 -461 q 66 -311 76 -382 q 56 -190 56 -240 q 88 -31 56 -97 q 183 72 121 36 q 329 107 244 107 q 396 107 351 107 q 497 107 440 107 q 616 107 554 107 q 736 107 678 107 l 654 35 l 654 340 q 633 488 654 435 q 560 565 613 542 q 419 588 508 588 q 304 579 361 588 q 215 557 247 571 l 288 629 q 271 546 279 596 q 258 438 263 496 q 253 324 253 381 q 258 208 253 265 q 269 110 263 151 q 281 53 276 69 l 167 21 q 153 83 161 39 q 140 190 146 128 q 133 322 133 253 q 140 455 133 390 q 155 572 146 519 q 172 657 164 625 q 272 682 204 669 q 419 694 339 694 q 549 682 492 694 q 649 642 607 669 q 719 574 692 615 q 760 475 747 533 q 774 340 774 417 l 774 0 q 648 0 715 0 q 517 0 581 0 q 402 0 453 0 q 329 0 351 0 q 281 -6 307 0 q 230 -31 254 -12 q 190 -88 206 -50 q 175 -190 175 -126 q 185 -310 175 -243 q 207 -461 194 -378 l 90 -461 z "},"ﻢ":{"ha":924,"x_min":56,"x_max":951,"o":"m 774 0 l 774 107 l 924 107 l 924 0 l 774 0 m 90 -461 q 66 -311 76 -382 q 56 -190 56 -240 q 88 -31 56 -97 q 183 72 121 36 q 329 107 244 107 q 396 107 351 107 q 497 107 440 107 q 616 107 554 107 q 736 107 678 107 l 654 35 l 654 340 q 633 488 654 435 q 560 565 613 542 q 419 588 508 588 q 304 579 361 588 q 215 557 247 571 l 288 629 q 271 546 279 596 q 258 438 263 496 q 253 324 253 381 q 258 208 253 265 q 269 110 263 151 q 281 53 276 69 l 167 21 q 153 83 161 39 q 140 190 146 128 q 133 322 133 253 q 140 455 133 390 q 155 572 146 519 q 172 657 164 625 q 272 682 204 669 q 419 694 339 694 q 549 682 492 694 q 649 642 607 669 q 719 574 692 615 q 760 475 747 533 q 774 340 774 417 l 774 0 q 648 0 715 0 q 517 0 581 0 q 402 0 453 0 q 329 0 351 0 q 281 -6 307 0 q 230 -31 254 -12 q 190 -88 206 -50 q 175 -190 175 -126 q 185 -310 175 -243 q 207 -461 194 -378 l 90 -461 m 924 0 l 924 107 q 947 93 942 107 q 951 54 951 79 q 947 15 951 31 q 924 0 942 0 z "},"ﻤ":{"ha":942,"x_min":-28,"x_max":969,"o":"m 792 0 l 792 107 l 942 107 l 942 0 l 792 0 m 0 0 l 0 107 l 754 107 l 674 49 l 674 340 q 652 489 674 435 q 578 565 631 543 q 438 588 526 588 q 322 580 379 588 q 233 558 265 572 l 306 631 q 289 547 297 597 q 275 438 281 496 q 269 324 269 381 q 275 208 269 265 q 288 110 281 151 q 299 53 294 69 l 186 21 q 172 83 181 39 q 158 190 164 128 q 151 324 151 253 q 158 456 151 392 q 174 574 165 521 q 192 658 183 626 q 290 683 222 671 q 438 696 357 696 q 635 661 556 696 q 753 549 714 626 q 792 340 792 471 l 792 0 l 0 0 m 0 0 q -23 15 -18 0 q -28 54 -28 31 q -23 93 -28 79 q 0 107 -18 107 l 0 0 m 942 0 l 942 107 q 965 93 960 107 q 969 54 969 79 q 965 15 969 31 q 942 0 960 0 z "},"ﻣ":{"ha":896,"x_min":-28,"x_max":792,"o":"m 0 0 l 0 107 l 754 107 l 674 49 l 674 340 q 652 489 674 435 q 578 565 631 543 q 438 588 526 588 q 322 580 379 588 q 233 558 265 572 l 306 631 q 289 547 297 597 q 275 438 281 496 q 269 324 269 381 q 275 208 269 265 q 288 110 281 151 q 299 53 294 69 l 186 21 q 172 83 181 39 q 158 190 164 128 q 151 324 151 253 q 158 456 151 392 q 174 574 165 521 q 192 658 183 626 q 290 683 222 671 q 438 696 357 696 q 635 661 556 696 q 753 549 714 626 q 792 340 792 471 l 792 0 l 0 0 m 0 0 q -23 15 -18 0 q -28 54 -28 31 q -23 93 -28 79 q 0 107 -18 107 l 0 0 z "}}}
